<?xml version="1.0" encoding="UTF-8" standalone="no"?>
<!DOCTYPE svg PUBLIC "-//W3C//DTD SVG 1.1//EN"
 "http://www.w3.org/Graphics/SVG/1.1/DTD/svg11.dtd">
<!-- Generated by graphviz version 13.1.0 (20250701.0955)
 -->
<!-- Title: DictionaryEditorArchitecture Pages: 1 -->
<svg width="1834pt" height="303pt"
 viewBox="0.00 0.00 1834.00 303.00" xmlns="http://www.w3.org/2000/svg" xmlns:xlink="http://www.w3.org/1999/xlink">
<g id="graph0" class="graph" transform="scale(1 1) rotate(0) translate(4 298.5)">
<title>DictionaryEditorArchitecture</title>
<polygon fill="white" stroke="none" points="-4,4 -4,-298.5 1830,-298.5 1830,4 -4,4"/>
<g id="clust1" class="cluster">
<title>cluster_browser</title>
<polygon fill="lightblue" stroke="lightblue" points="8,-8 8,-286.5 237,-286.5 237,-8 8,-8"/>
<text xml:space="preserve" text-anchor="middle" x="122.5" y="-269.2" font-family="Times,serif" font-size="14.00">Browser Environment</text>
</g>
<g id="clust2" class="cluster">
<title>cluster_data</title>
<polygon fill="lightyellow" stroke="lightyellow" points="245,-12 245,-88.5 545,-88.5 545,-12 245,-12"/>
<text xml:space="preserve" text-anchor="middle" x="395" y="-71.2" font-family="Times,serif" font-size="14.00">Data Sources</text>
</g>
<g id="clust3" class="cluster">
<title>cluster_external</title>
<polygon fill="lightcoral" stroke="lightcoral" points="553,-12 553,-88.5 871,-88.5 871,-12 553,-12"/>
<text xml:space="preserve" text-anchor="middle" x="712" y="-71.2" font-family="Times,serif" font-size="14.00">External APIs</text>
</g>
<g id="clust4" class="cluster">
<title>cluster_flow</title>
<polygon fill="lightgray" stroke="lightgray" points="245,-210 245,-286.5 1219,-286.5 1219,-210 245,-210"/>
<text xml:space="preserve" text-anchor="middle" x="732" y="-269.2" font-family="Times,serif" font-size="14.00">Client&#45;Side Data Flow</text>
</g>
<g id="clust5" class="cluster">
<title>cluster_features</title>
<polygon fill="lightgreen" stroke="lightgreen" points="1227,-210 1227,-286.5 1818,-286.5 1818,-210 1227,-210"/>
<text xml:space="preserve" text-anchor="middle" x="1522.5" y="-269.2" font-family="Times,serif" font-size="14.00">Key Features</text>
</g>
<!-- HTML -->
<g id="node1" class="node">
<title>HTML</title>
<polygon fill="skyblue" stroke="black" points="176.12,-254 97.88,-254 97.88,-218 182.12,-218 182.12,-248 176.12,-254"/>
<polyline fill="none" stroke="black" points="176.12,-254 176.12,-248"/>
<polyline fill="none" stroke="black" points="182.12,-248 176.12,-248"/>
<text xml:space="preserve" text-anchor="middle" x="140" y="-238.5" font-family="Arial" font-size="10.00">index.html</text>
<text xml:space="preserve" text-anchor="middle" x="140" y="-226.5" font-family="Arial" font-size="10.00">(Main Interface)</text>
</g>
<!-- JS -->
<g id="node2" class="node">
<title>JS</title>
<polygon fill="lightgreen" stroke="black" points="229,-171.5 51,-171.5 51,-167.5 47,-167.5 47,-163.5 51,-163.5 51,-143.5 47,-143.5 47,-139.5 51,-139.5 51,-135.5 229,-135.5 229,-171.5"/>
<polyline fill="none" stroke="black" points="51,-167.5 55,-167.5 55,-163.5 51,-163.5"/>
<polyline fill="none" stroke="black" points="51,-143.5 55,-143.5 55,-139.5 51,-139.5"/>
<text xml:space="preserve" text-anchor="middle" x="140" y="-156" font-family="Arial" font-size="10.00">JavaScript Modules</text>
<text xml:space="preserve" text-anchor="middle" x="140" y="-144" font-family="Arial" font-size="10.00">(editor.js, validation.js, file&#45;handler.js)</text>
</g>
<!-- HTML&#45;&gt;JS -->
<g id="edge1" class="edge">
<title>HTML&#45;&gt;JS</title>
<path fill="none" stroke="black" d="M140,-217.53C140,-207.51 140,-194.68 140,-183.21"/>
<polygon fill="black" stroke="black" points="143.5,-183.45 140,-173.45 136.5,-183.45 143.5,-183.45"/>
<text xml:space="preserve" text-anchor="middle" x="151.25" y="-191.45" font-family="Arial" font-size="9.00">loads</text>
</g>
<!-- JSONEditor -->
<g id="node3" class="node">
<title>JSONEditor</title>
<polygon fill="orange" stroke="black" points="116.38,-56 15.62,-56 15.62,-52 11.62,-52 11.62,-48 15.62,-48 15.62,-28 11.62,-28 11.62,-24 15.62,-24 15.62,-20 116.38,-20 116.38,-56"/>
<polyline fill="none" stroke="black" points="15.62,-52 19.62,-52 19.62,-48 15.62,-48"/>
<polyline fill="none" stroke="black" points="15.62,-28 19.62,-28 19.62,-24 15.62,-24"/>
<text xml:space="preserve" text-anchor="middle" x="66" y="-40.5" font-family="Arial" font-size="10.00">JSONEditor Library</text>
<text xml:space="preserve" text-anchor="middle" x="66" y="-28.5" font-family="Arial" font-size="10.00">(CDN)</text>
</g>
<!-- JS&#45;&gt;JSONEditor -->
<g id="edge2" class="edge">
<title>JS&#45;&gt;JSONEditor</title>
<path fill="none" stroke="black" d="M125.09,-135.1C120.62,-129.6 115.83,-123.42 111.75,-117.5 100.41,-101.04 89.08,-81.63 80.53,-66.24"/>
<polygon fill="black" stroke="black" points="83.7,-64.72 75.82,-57.63 77.55,-68.08 83.7,-64.72"/>
<text xml:space="preserve" text-anchor="middle" x="130.88" y="-103.7" font-family="Arial" font-size="9.00">initializes</text>
</g>
<!-- LocalStorage -->
<g id="node4" class="node">
<title>LocalStorage</title>
<path fill="lightgrey" stroke="black" d="M229.38,-56C229.38,-58.21 208.14,-60 182,-60 155.86,-60 134.62,-58.21 134.62,-56 134.62,-56 134.62,-20 134.62,-20 134.62,-17.79 155.86,-16 182,-16 208.14,-16 229.38,-17.79 229.38,-20 229.38,-20 229.38,-56 229.38,-56"/>
<path fill="none" stroke="black" d="M229.38,-56C229.38,-53.79 208.14,-52 182,-52 155.86,-52 134.62,-53.79 134.62,-56"/>
<text xml:space="preserve" text-anchor="middle" x="182" y="-40.5" font-family="Arial" font-size="10.00">LocalStorage</text>
<text xml:space="preserve" text-anchor="middle" x="182" y="-28.5" font-family="Arial" font-size="10.00">(Browser Storage)</text>
</g>
<!-- JS&#45;&gt;LocalStorage -->
<g id="edge3" class="edge">
<title>JS&#45;&gt;LocalStorage</title>
<path fill="none" stroke="black" d="M146.38,-135.26C152.68,-118.23 162.47,-91.77 170.19,-70.9"/>
<polygon fill="black" stroke="black" points="173.41,-72.29 173.6,-61.7 166.85,-69.86 173.41,-72.29"/>
<text xml:space="preserve" text-anchor="middle" x="184.12" y="-103.7" font-family="Arial" font-size="9.00">saves/loads</text>
</g>
<!-- JSONFiles -->
<g id="node5" class="node">
<title>JSONFiles</title>
<polygon fill="yellow" stroke="black" points="343.12,-56 340.12,-60 319.12,-60 316.12,-56 252.88,-56 252.88,-20 343.12,-20 343.12,-56"/>
<text xml:space="preserve" text-anchor="middle" x="298" y="-40.5" font-family="Arial" font-size="10.00">JSON Dictionary</text>
<text xml:space="preserve" text-anchor="middle" x="298" y="-28.5" font-family="Arial" font-size="10.00">Files</text>
</g>
<!-- JS&#45;&gt;JSONFiles -->
<g id="edge4" class="edge">
<title>JS&#45;&gt;JSONFiles</title>
<path fill="none" stroke="black" stroke-dasharray="5,2" d="M181.12,-135.03C191.53,-129.93 202.45,-123.98 212,-117.5 234.65,-102.13 257.4,-81.06 273.8,-64.62"/>
<polygon fill="black" stroke="black" points="276.21,-67.17 280.71,-57.58 271.21,-62.27 276.21,-67.17"/>
<text xml:space="preserve" text-anchor="middle" x="257.64" y="-108.95" font-family="Arial" font-size="9.00">File API</text>
<text xml:space="preserve" text-anchor="middle" x="257.64" y="-98.45" font-family="Arial" font-size="9.00">read/write</text>
</g>
<!-- XMLFiles -->
<g id="node6" class="node">
<title>XMLFiles</title>
<polygon fill="lightgrey" stroke="black" points="444.75,-56 441.75,-60 420.75,-60 417.75,-56 361.25,-56 361.25,-20 444.75,-20 444.75,-56"/>
<text xml:space="preserve" text-anchor="middle" x="403" y="-40.5" font-family="Arial" font-size="10.00">XML Dictionary</text>
<text xml:space="preserve" text-anchor="middle" x="403" y="-28.5" font-family="Arial" font-size="10.00">Files (Import)</text>
</g>
<!-- JS&#45;&gt;XMLFiles -->
<g id="edge5" class="edge">
<title>JS&#45;&gt;XMLFiles</title>
<path fill="none" stroke="black" stroke-dasharray="5,2" d="M229.26,-137.56C269.13,-127.97 315.3,-112.63 352,-88.5 362.21,-81.79 372.15,-72.87 380.5,-64.45"/>
<polygon fill="black" stroke="black" points="382.86,-67.04 387.23,-57.39 377.8,-62.21 382.86,-67.04"/>
<text xml:space="preserve" text-anchor="middle" x="352.47" y="-108.95" font-family="Arial" font-size="9.00">File API</text>
<text xml:space="preserve" text-anchor="middle" x="352.47" y="-98.45" font-family="Arial" font-size="9.00">import</text>
</g>
<!-- Clipboard -->
<g id="node7" class="node">
<title>Clipboard</title>
<polygon fill="lightgrey" stroke="black" points="530.88,-56 463.12,-56 463.12,-20 536.88,-20 536.88,-50 530.88,-56"/>
<polyline fill="none" stroke="black" points="530.88,-56 530.88,-50"/>
<polyline fill="none" stroke="black" points="536.88,-50 530.88,-50"/>
<text xml:space="preserve" text-anchor="middle" x="500" y="-40.5" font-family="Arial" font-size="10.00">Clipboard</text>
<text xml:space="preserve" text-anchor="middle" x="500" y="-28.5" font-family="Arial" font-size="10.00">(Copy/Paste)</text>
</g>
<!-- JS&#45;&gt;Clipboard -->
<g id="edge6" class="edge">
<title>JS&#45;&gt;Clipboard</title>
<path fill="none" stroke="black" stroke-dasharray="5,2" d="M229.47,-143.04C272.88,-137.43 325.57,-129.1 372,-117.5 409.5,-108.13 421.69,-109.72 454,-88.5 463.75,-82.1 472.87,-73.2 480.37,-64.71"/>
<polygon fill="black" stroke="black" points="482.85,-67.2 486.6,-57.29 477.49,-62.7 482.85,-67.2"/>
<text xml:space="preserve" text-anchor="middle" x="468.35" y="-103.7" font-family="Arial" font-size="9.00">Clipboard API</text>
</g>
<!-- Wikidata -->
<g id="node8" class="node">
<title>Wikidata</title>
<polygon fill="lightcoral" stroke="black" points="652.88,-56 561.12,-56 561.12,-52 557.12,-52 557.12,-48 561.12,-48 561.12,-28 557.12,-28 557.12,-24 561.12,-24 561.12,-20 652.88,-20 652.88,-56"/>
<polyline fill="none" stroke="black" points="561.12,-52 565.12,-52 565.12,-48 561.12,-48"/>
<polyline fill="none" stroke="black" points="561.12,-28 565.12,-28 565.12,-24 561.12,-24"/>
<text xml:space="preserve" text-anchor="middle" x="607" y="-40.5" font-family="Arial" font-size="10.00">Wikidata API</text>
<text xml:space="preserve" text-anchor="middle" x="607" y="-28.5" font-family="Arial" font-size="10.00">(Client&#45;side calls)</text>
</g>
<!-- JS&#45;&gt;Wikidata -->
<g id="edge7" class="edge">
<title>JS&#45;&gt;Wikidata</title>
<path fill="none" stroke="black" stroke-dasharray="5,2" d="M229.44,-148.37C319.66,-143.39 452.36,-133.62 501,-117.5 532.81,-106.96 562.89,-82.81 582.82,-64.07"/>
<polygon fill="black" stroke="black" points="585.15,-66.69 589.89,-57.21 580.28,-61.66 585.15,-66.69"/>
<text xml:space="preserve" text-anchor="middle" x="552.28" y="-103.7" font-family="Arial" font-size="9.00">fetch()</text>
</g>
<!-- Wikipedia -->
<g id="node9" class="node">
<title>Wikipedia</title>
<polygon fill="lightgrey" stroke="black" points="762.88,-56 671.12,-56 671.12,-52 667.12,-52 667.12,-48 671.12,-48 671.12,-28 667.12,-28 667.12,-24 671.12,-24 671.12,-20 762.88,-20 762.88,-56"/>
<polyline fill="none" stroke="black" points="671.12,-52 675.12,-52 675.12,-48 671.12,-48"/>
<polyline fill="none" stroke="black" points="671.12,-28 675.12,-28 675.12,-24 671.12,-24"/>
<text xml:space="preserve" text-anchor="middle" x="717" y="-40.5" font-family="Arial" font-size="10.00">Wikipedia API</text>
<text xml:space="preserve" text-anchor="middle" x="717" y="-28.5" font-family="Arial" font-size="10.00">(Client&#45;side calls)</text>
</g>
<!-- JS&#45;&gt;Wikipedia -->
<g id="edge8" class="edge">
<title>JS&#45;&gt;Wikipedia</title>
<path fill="none" stroke="black" stroke-dasharray="5,2" d="M229.1,-150.95C316.42,-148.09 452.91,-140.05 569,-117.5 611.5,-109.24 624.37,-109.92 662,-88.5 673.34,-82.05 684.33,-72.92 693.48,-64.27"/>
<polygon fill="black" stroke="black" points="695.9,-66.79 700.55,-57.27 690.98,-61.81 695.9,-66.79"/>
<text xml:space="preserve" text-anchor="middle" x="658.37" y="-103.7" font-family="Arial" font-size="9.00">fetch()</text>
</g>
<!-- AmiLib -->
<g id="node10" class="node">
<title>AmiLib</title>
<polygon fill="lightgrey" stroke="black" points="862.62,-56 781.38,-56 781.38,-52 777.38,-52 777.38,-48 781.38,-48 781.38,-28 777.38,-28 777.38,-24 781.38,-24 781.38,-20 862.62,-20 862.62,-56"/>
<polyline fill="none" stroke="black" points="781.38,-52 785.38,-52 785.38,-48 781.38,-48"/>
<polyline fill="none" stroke="black" points="781.38,-28 785.38,-28 785.38,-24 781.38,-24"/>
<text xml:space="preserve" text-anchor="middle" x="822" y="-40.5" font-family="Arial" font-size="10.00">amilib</text>
<text xml:space="preserve" text-anchor="middle" x="822" y="-28.5" font-family="Arial" font-size="10.00">(Import/Export)</text>
</g>
<!-- JS&#45;&gt;AmiLib -->
<g id="edge9" class="edge">
<title>JS&#45;&gt;AmiLib</title>
<path fill="none" stroke="black" stroke-dasharray="5,2" d="M229.25,-152.77C336.07,-151.69 519.95,-145.38 675,-117.5 719.29,-109.54 733.3,-111.46 772,-88.5 782.56,-82.24 792.53,-73.26 800.75,-64.67"/>
<polygon fill="black" stroke="black" points="803.19,-67.19 807.33,-57.44 798.01,-62.48 803.19,-67.19"/>
<text xml:space="preserve" text-anchor="middle" x="779.55" y="-103.7" font-family="Arial" font-size="9.00">conversion</text>
</g>
<!-- Flow1 -->
<g id="node11" class="node">
<title>Flow1</title>
<polygon fill="lightgrey" stroke="none" points="378.75,-254 253.25,-254 253.25,-218 378.75,-218 378.75,-254"/>
<text xml:space="preserve" text-anchor="middle" x="316" y="-232.5" font-family="Arial" font-size="10.00">1. User opens index.html</text>
</g>
<!-- Flow2 -->
<g id="node12" class="node">
<title>Flow2</title>
<polygon fill="lightgrey" stroke="none" points="552.75,-254 397.25,-254 397.25,-218 552.75,-218 552.75,-254"/>
<text xml:space="preserve" text-anchor="middle" x="475" y="-232.5" font-family="Arial" font-size="10.00">2. JavaScript loads JSONEditor</text>
</g>
<!-- Flow3 -->
<g id="node13" class="node">
<title>Flow3</title>
<polygon fill="lightgrey" stroke="none" points="729.62,-254 570.38,-254 570.38,-218 729.62,-218 729.62,-254"/>
<text xml:space="preserve" text-anchor="middle" x="650" y="-232.5" font-family="Arial" font-size="10.00">3. User imports file or starts new</text>
</g>
<!-- Flow4 -->
<g id="node14" class="node">
<title>Flow4</title>
<polygon fill="lightgrey" stroke="none" points="902,-254 748,-254 748,-218 902,-218 902,-254"/>
<text xml:space="preserve" text-anchor="middle" x="825" y="-232.5" font-family="Arial" font-size="10.00">4. CRUD operations in memory</text>
</g>
<!-- Flow5 -->
<g id="node15" class="node">
<title>Flow5</title>
<polygon fill="lightgrey" stroke="none" points="1059.5,-254 920.5,-254 920.5,-218 1059.5,-218 1059.5,-254"/>
<text xml:space="preserve" text-anchor="middle" x="990" y="-232.5" font-family="Arial" font-size="10.00">5. Auto&#45;save to localStorage</text>
</g>
<!-- Flow6 -->
<g id="node16" class="node">
<title>Flow6</title>
<polygon fill="lightgrey" stroke="none" points="1210.5,-254 1077.5,-254 1077.5,-218 1210.5,-218 1210.5,-254"/>
<text xml:space="preserve" text-anchor="middle" x="1144" y="-232.5" font-family="Arial" font-size="10.00">6. Export to file when done</text>
</g>
<!-- Feature1 -->
<g id="node17" class="node">
<title>Feature1</title>
<polygon fill="lightgrey" stroke="none" points="1344.5,-254 1235.5,-254 1235.5,-218 1344.5,-218 1344.5,-254"/>
<text xml:space="preserve" text-anchor="middle" x="1290" y="-232.5" font-family="Arial" font-size="10.00">• No Server Required</text>
</g>
<!-- Feature2 -->
<g id="node18" class="node">
<title>Feature2</title>
<polygon fill="lightgrey" stroke="none" points="1451.75,-254 1362.25,-254 1362.25,-218 1451.75,-218 1451.75,-254"/>
<text xml:space="preserve" text-anchor="middle" x="1407" y="-232.5" font-family="Arial" font-size="10.00">• Offline Capable</text>
</g>
<!-- Feature3 -->
<g id="node19" class="node">
<title>Feature3</title>
<polygon fill="lightgrey" stroke="none" points="1570,-254 1470,-254 1470,-218 1570,-218 1570,-254"/>
<text xml:space="preserve" text-anchor="middle" x="1520" y="-232.5" font-family="Arial" font-size="10.00">• Instant Response</text>
</g>
<!-- Feature4 -->
<g id="node20" class="node">
<title>Feature4</title>
<polygon fill="lightgrey" stroke="none" points="1691.5,-254 1588.5,-254 1588.5,-218 1691.5,-218 1691.5,-254"/>
<text xml:space="preserve" text-anchor="middle" x="1640" y="-232.5" font-family="Arial" font-size="10.00">• Privacy Preserved</text>
</g>
<!-- Feature5 -->
<g id="node21" class="node">
<title>Feature5</title>
<polygon fill="lightgrey" stroke="none" points="1810.38,-254 1709.62,-254 1709.62,-218 1810.38,-218 1810.38,-254"/>
<text xml:space="preserve" text-anchor="middle" x="1760" y="-232.5" font-family="Arial" font-size="10.00">• File Import/Export</text>
</g>
</g>
</svg>
