<?xml version="1.0" encoding="UTF-8" standalone="no"?>
<!DOCTYPE svg PUBLIC "-//W3C//DTD SVG 1.1//EN"
 "http://www.w3.org/Graphics/SVG/1.1/DTD/svg11.dtd">
<!-- Generated by graphviz version 13.1.0 (20250701.0955)
 -->
<!-- Title: pipeline_workflow Pages: 1 -->
<svg width="1602pt" height="251pt"
 viewBox="0.00 0.00 1602.00 251.00" xmlns="http://www.w3.org/2000/svg" xmlns:xlink="http://www.w3.org/1999/xlink">
<g id="graph0" class="graph" transform="scale(1 1) rotate(0) translate(4 247.25)">
<title>pipeline_workflow</title>
<polygon fill="white" stroke="none" points="-4,4 -4,-247.25 1598.02,-247.25 1598.02,4 -4,4"/>
<!-- query -->
<g id="node1" class="node">
<title>query</title>
<ellipse fill="lightblue" stroke="black" cx="78.67" cy="-220.63" rx="78.67" ry="22.63"/>
<text xml:space="preserve" text-anchor="middle" x="78.67" y="-223.13" font-family="Arial" font-size="10.00">Query</text>
<text xml:space="preserve" text-anchor="middle" x="78.67" y="-211.13" font-family="Arial" font-size="10.00">(EPMC search terms)</text>
</g>
<!-- pygetpapers_ui -->
<g id="node9" class="node">
<title>pygetpapers_ui</title>
<polygon fill="lightgreen" stroke="black" points="290.71,-238.63 196.71,-238.63 196.71,-202.63 290.71,-202.63 290.71,-238.63"/>
<text xml:space="preserve" text-anchor="middle" x="243.71" y="-223.13" font-family="Arial" font-size="10.00">1. pygetpapers UI</text>
<text xml:space="preserve" text-anchor="middle" x="243.71" y="-211.13" font-family="Arial" font-size="10.00">Query EPMC API</text>
</g>
<!-- query&#45;&gt;pygetpapers_ui -->
<g id="edge1" class="edge">
<title>query&#45;&gt;pygetpapers_ui</title>
<path fill="none" stroke="black" d="M157.37,-220.63C166.6,-220.63 175.91,-220.63 184.8,-220.63"/>
<polygon fill="black" stroke="black" points="184.7,-224.13 194.7,-220.63 184.7,-217.13 184.7,-224.13"/>
</g>
<!-- corpus -->
<g id="node2" class="node">
<title>corpus</title>
<ellipse fill="lightblue" stroke="black" cx="416.17" cy="-162.63" rx="86.09" ry="22.63"/>
<text xml:space="preserve" text-anchor="middle" x="416.17" y="-165.13" font-family="Arial" font-size="10.00">Corpus</text>
<text xml:space="preserve" text-anchor="middle" x="416.17" y="-153.13" font-family="Arial" font-size="10.00">(XML, PDF, JSON files)</text>
</g>
<!-- convert_xml -->
<g id="node11" class="node">
<title>convert_xml</title>
<polygon fill="lightgreen" stroke="black" points="664.51,-180.63 538.26,-180.63 538.26,-144.63 664.51,-144.63 664.51,-180.63"/>
<text xml:space="preserve" text-anchor="middle" x="601.39" y="-165.13" font-family="Arial" font-size="10.00">3. Convert XML to HTML</text>
<text xml:space="preserve" text-anchor="middle" x="601.39" y="-153.13" font-family="Arial" font-size="10.00">amilib.ami_html</text>
</g>
<!-- corpus&#45;&gt;convert_xml -->
<g id="edge4" class="edge">
<title>corpus&#45;&gt;convert_xml</title>
<path fill="none" stroke="black" d="M502.61,-162.63C510.57,-162.63 518.59,-162.63 526.44,-162.63"/>
<polygon fill="black" stroke="black" points="526.26,-166.13 536.26,-162.63 526.26,-159.13 526.26,-166.13"/>
</g>
<!-- html_corpus -->
<g id="node3" class="node">
<title>html_corpus</title>
<ellipse fill="lightblue" stroke="black" cx="761.68" cy="-162.63" rx="60.63" ry="22.63"/>
<text xml:space="preserve" text-anchor="middle" x="761.68" y="-165.13" font-family="Arial" font-size="10.00">HTML Corpus</text>
<text xml:space="preserve" text-anchor="middle" x="761.68" y="-153.13" font-family="Arial" font-size="10.00">(converted files)</text>
</g>
<!-- datatables -->
<g id="node12" class="node">
<title>datatables</title>
<polygon fill="lightgreen" stroke="black" points="664.51,-124.63 538.26,-124.63 538.26,-80.63 664.51,-80.63 664.51,-124.63"/>
<text xml:space="preserve" text-anchor="middle" x="601.39" y="-111.13" font-family="Arial" font-size="10.00">4. JQuery Datatables</text>
<text xml:space="preserve" text-anchor="middle" x="601.39" y="-99.13" font-family="Arial" font-size="10.00">Filter &amp; refine corpus</text>
<text xml:space="preserve" text-anchor="middle" x="601.39" y="-87.13" font-family="Arial" font-size="10.00">amilib.datatables_module</text>
</g>
<!-- html_corpus&#45;&gt;datatables -->
<g id="edge6" class="edge">
<title>html_corpus&#45;&gt;datatables</title>
<path fill="none" stroke="black" d="M718,-146.45C703.85,-141.09 687.7,-134.96 672.05,-129.03"/>
<polygon fill="black" stroke="black" points="673.33,-125.78 662.74,-125.51 670.85,-132.32 673.33,-125.78"/>
</g>
<!-- filtered_corpus -->
<g id="node4" class="node">
<title>filtered_corpus</title>
<ellipse fill="lightblue" stroke="black" cx="761.68" cy="-99.63" rx="61.16" ry="22.63"/>
<text xml:space="preserve" text-anchor="middle" x="761.68" y="-102.13" font-family="Arial" font-size="10.00">Filtered Corpus</text>
<text xml:space="preserve" text-anchor="middle" x="761.68" y="-90.13" font-family="Arial" font-size="10.00">(refined dataset)</text>
</g>
<!-- unsupervised_search -->
<g id="node13" class="node">
<title>unsupervised_search</title>
<polygon fill="lightgreen" stroke="black" points="984.34,-152.63 858.84,-152.63 858.84,-108.63 984.34,-108.63 984.34,-152.63"/>
<text xml:space="preserve" text-anchor="middle" x="921.59" y="-139.13" font-family="Arial" font-size="10.00">5. Unsupervised Search</text>
<text xml:space="preserve" text-anchor="middle" x="921.59" y="-127.13" font-family="Arial" font-size="10.00">TF&#45;IDF phrase extraction</text>
<text xml:space="preserve" text-anchor="middle" x="921.59" y="-115.13" font-family="Arial" font-size="10.00">txt2phrases</text>
</g>
<!-- filtered_corpus&#45;&gt;unsupervised_search -->
<g id="edge8" class="edge">
<title>filtered_corpus&#45;&gt;unsupervised_search</title>
<path fill="none" stroke="black" d="M816.14,-110.12C826.13,-112.08 836.72,-114.16 847.19,-116.22"/>
<polygon fill="black" stroke="black" points="846.49,-119.65 856.98,-118.14 847.84,-112.78 846.49,-119.65"/>
</g>
<!-- supervised_search -->
<g id="node15" class="node">
<title>supervised_search</title>
<polygon fill="lightgreen" stroke="black" points="982.84,-90.63 860.34,-90.63 860.34,-46.63 982.84,-46.63 982.84,-90.63"/>
<text xml:space="preserve" text-anchor="middle" x="921.59" y="-77.13" font-family="Arial" font-size="10.00">7. Supervised Search</text>
<text xml:space="preserve" text-anchor="middle" x="921.59" y="-65.13" font-family="Arial" font-size="10.00">Encyclopedia annotation</text>
<text xml:space="preserve" text-anchor="middle" x="921.59" y="-53.13" font-family="Arial" font-size="10.00">amilib.html_marker</text>
</g>
<!-- filtered_corpus&#45;&gt;supervised_search -->
<g id="edge9" class="edge">
<title>filtered_corpus&#45;&gt;supervised_search</title>
<path fill="none" stroke="black" d="M816.14,-89.13C826.74,-87.05 838.03,-84.83 849.12,-82.66"/>
<polygon fill="black" stroke="black" points="849.49,-86.15 858.63,-80.79 848.14,-79.28 849.49,-86.15"/>
</g>
<!-- phrases -->
<g id="node5" class="node">
<title>phrases</title>
<ellipse fill="lightblue" stroke="black" cx="1111.2" cy="-130.63" rx="67" ry="22.63"/>
<text xml:space="preserve" text-anchor="middle" x="1111.2" y="-133.13" font-family="Arial" font-size="10.00">Common Phrases</text>
<text xml:space="preserve" text-anchor="middle" x="1111.2" y="-121.13" font-family="Arial" font-size="10.00">(TF&#45;IDF results)</text>
</g>
<!-- encyclopedia_creation -->
<g id="node14" class="node">
<title>encyclopedia_creation</title>
<polygon fill="lightgreen" stroke="black" points="1363.57,-151.63 1238.07,-151.63 1238.07,-107.63 1363.57,-107.63 1363.57,-151.63"/>
<text xml:space="preserve" text-anchor="middle" x="1300.82" y="-138.13" font-family="Arial" font-size="10.00">6. Encyclopedia Creation</text>
<text xml:space="preserve" text-anchor="middle" x="1300.82" y="-126.13" font-family="Arial" font-size="10.00">Wikipedia &amp; authorities</text>
<text xml:space="preserve" text-anchor="middle" x="1300.82" y="-114.13" font-family="Arial" font-size="10.00">amilib.ami_encyclopedia</text>
</g>
<!-- phrases&#45;&gt;encyclopedia_creation -->
<g id="edge11" class="edge">
<title>phrases&#45;&gt;encyclopedia_creation</title>
<path fill="none" stroke="black" d="M1178.61,-130.27C1194.05,-130.19 1210.57,-130.1 1226.3,-130.02"/>
<polygon fill="black" stroke="black" points="1226.09,-133.52 1236.07,-129.97 1226.05,-126.52 1226.09,-133.52"/>
</g>
<!-- encyclopedia -->
<g id="node6" class="node">
<title>encyclopedia</title>
<ellipse fill="lightblue" stroke="black" cx="1496.79" cy="-85.63" rx="97.23" ry="22.63"/>
<text xml:space="preserve" text-anchor="middle" x="1496.79" y="-88.13" font-family="Arial" font-size="10.00">Encyclopedia</text>
<text xml:space="preserve" text-anchor="middle" x="1496.79" y="-76.13" font-family="Arial" font-size="10.00">(Wikipedia&#45;enhanced terms)</text>
</g>
<!-- encyclopedia&#45;&gt;supervised_search -->
<g id="edge13" class="edge">
<title>encyclopedia&#45;&gt;supervised_search</title>
<path fill="none" stroke="black" d="M1399.95,-82.78C1285.65,-79.39 1097.19,-73.81 994.59,-70.76"/>
<polygon fill="black" stroke="black" points="994.73,-67.27 984.63,-70.47 994.53,-74.26 994.73,-67.27"/>
</g>
<!-- kg_creation -->
<g id="node16" class="node">
<title>kg_creation</title>
<polygon fill="lightgreen" stroke="black" points="1353.07,-50.63 1248.57,-50.63 1248.57,-6.63 1353.07,-6.63 1353.07,-50.63"/>
<text xml:space="preserve" text-anchor="middle" x="1300.82" y="-37.13" font-family="Arial" font-size="10.00">8. Knowledge Graph</text>
<text xml:space="preserve" text-anchor="middle" x="1300.82" y="-25.13" font-family="Arial" font-size="10.00">Create GraphML</text>
<text xml:space="preserve" text-anchor="middle" x="1300.82" y="-13.13" font-family="Arial" font-size="10.00">amilib.ami_graph</text>
</g>
<!-- encyclopedia&#45;&gt;kg_creation -->
<g id="edge16" class="edge">
<title>encyclopedia&#45;&gt;kg_creation</title>
<path fill="none" stroke="black" d="M1434.92,-67.74C1412.46,-61.14 1386.99,-53.65 1364.39,-47.01"/>
<polygon fill="black" stroke="black" points="1365.58,-43.72 1355,-44.25 1363.6,-50.43 1365.58,-43.72"/>
</g>
<!-- annotated_corpus -->
<g id="node7" class="node">
<title>annotated_corpus</title>
<ellipse fill="lightblue" stroke="black" cx="1111.2" cy="-28.63" rx="90.86" ry="22.63"/>
<text xml:space="preserve" text-anchor="middle" x="1111.2" y="-31.13" font-family="Arial" font-size="10.00">Annotated Corpus</text>
<text xml:space="preserve" text-anchor="middle" x="1111.2" y="-19.13" font-family="Arial" font-size="10.00">(full text with annotations)</text>
</g>
<!-- annotated_corpus&#45;&gt;kg_creation -->
<g id="edge15" class="edge">
<title>annotated_corpus&#45;&gt;kg_creation</title>
<path fill="none" stroke="black" d="M1202.44,-28.63C1214.07,-28.63 1225.78,-28.63 1236.85,-28.63"/>
<polygon fill="black" stroke="black" points="1236.6,-32.13 1246.6,-28.63 1236.6,-25.13 1236.6,-32.13"/>
</g>
<!-- knowledge_graph -->
<g id="node8" class="node">
<title>knowledge_graph</title>
<ellipse fill="lightblue" stroke="black" cx="1496.79" cy="-22.63" rx="65.94" ry="22.63"/>
<text xml:space="preserve" text-anchor="middle" x="1496.79" y="-25.13" font-family="Arial" font-size="10.00">Knowledge Graph</text>
<text xml:space="preserve" text-anchor="middle" x="1496.79" y="-13.13" font-family="Arial" font-size="10.00">(GraphML format)</text>
</g>
<!-- download -->
<g id="node10" class="node">
<title>download</title>
<polygon fill="lightgreen" stroke="black" points="294.08,-184.63 193.33,-184.63 193.33,-140.63 294.08,-140.63 294.08,-184.63"/>
<text xml:space="preserve" text-anchor="middle" x="243.71" y="-171.13" font-family="Arial" font-size="10.00">2. Download</text>
<text xml:space="preserve" text-anchor="middle" x="243.71" y="-159.13" font-family="Arial" font-size="10.00">Create local corpus</text>
<text xml:space="preserve" text-anchor="middle" x="243.71" y="-147.13" font-family="Arial" font-size="10.00">(XML, PDF, JSON)</text>
</g>
<!-- pygetpapers_ui&#45;&gt;download -->
<g id="edge2" class="edge">
<title>pygetpapers_ui&#45;&gt;download</title>
<path fill="none" stroke="black" d="M243.71,-202.17C243.71,-200.18 243.71,-198.2 243.71,-196.21"/>
<polygon fill="black" stroke="black" points="247.21,-196.34 243.71,-186.34 240.21,-196.34 247.21,-196.34"/>
</g>
<!-- download&#45;&gt;corpus -->
<g id="edge3" class="edge">
<title>download&#45;&gt;corpus</title>
<path fill="none" stroke="black" d="M294.47,-162.63C302.1,-162.63 310.2,-162.63 318.44,-162.63"/>
<polygon fill="black" stroke="black" points="318.23,-166.13 328.23,-162.63 318.23,-159.13 318.23,-166.13"/>
</g>
<!-- convert_xml&#45;&gt;html_corpus -->
<g id="edge5" class="edge">
<title>convert_xml&#45;&gt;html_corpus</title>
<path fill="none" stroke="black" d="M664.95,-162.63C672.94,-162.63 681.16,-162.63 689.27,-162.63"/>
<polygon fill="black" stroke="black" points="689.12,-166.13 699.12,-162.63 689.12,-159.13 689.12,-166.13"/>
</g>
<!-- datatables&#45;&gt;filtered_corpus -->
<g id="edge7" class="edge">
<title>datatables&#45;&gt;filtered_corpus</title>
<path fill="none" stroke="black" d="M664.95,-101.44C672.73,-101.29 680.73,-101.14 688.64,-100.99"/>
<polygon fill="black" stroke="black" points="688.68,-104.49 698.61,-100.8 688.54,-97.49 688.68,-104.49"/>
</g>
<!-- unsupervised_search&#45;&gt;phrases -->
<g id="edge10" class="edge">
<title>unsupervised_search&#45;&gt;phrases</title>
<path fill="none" stroke="black" d="M984.8,-130.63C1000.08,-130.63 1016.63,-130.63 1032.53,-130.63"/>
<polygon fill="black" stroke="black" points="1032.46,-134.13 1042.46,-130.63 1032.46,-127.13 1032.46,-134.13"/>
</g>
<!-- encyclopedia_creation&#45;&gt;encyclopedia -->
<g id="edge12" class="edge">
<title>encyclopedia_creation&#45;&gt;encyclopedia</title>
<path fill="none" stroke="black" d="M1363.99,-115.52C1380.17,-111.85 1397.85,-107.85 1414.84,-103.99"/>
<polygon fill="black" stroke="black" points="1415.44,-107.44 1424.41,-101.82 1413.89,-100.62 1415.44,-107.44"/>
</g>
<!-- supervised_search&#45;&gt;annotated_corpus -->
<g id="edge14" class="edge">
<title>supervised_search&#45;&gt;annotated_corpus</title>
<path fill="none" stroke="black" d="M983.24,-55.7C998.06,-52.54 1014.15,-49.11 1029.73,-45.79"/>
<polygon fill="black" stroke="black" points="1030.43,-49.21 1039.48,-43.71 1028.97,-42.37 1030.43,-49.21"/>
</g>
<!-- kg_creation&#45;&gt;knowledge_graph -->
<g id="edge17" class="edge">
<title>kg_creation&#45;&gt;knowledge_graph</title>
<path fill="none" stroke="black" d="M1353.55,-27.03C1373.71,-26.4 1397.24,-25.68 1419.29,-24.99"/>
<polygon fill="black" stroke="black" points="1419.26,-28.5 1429.15,-24.69 1419.05,-21.5 1419.26,-28.5"/>
</g>
</g>
</svg>
