<?xml version="1.0" encoding="UTF-8" standalone="no"?>
<!DOCTYPE svg PUBLIC "-//W3C//DTD SVG 1.1//EN"
 "http://www.w3.org/Graphics/SVG/1.1/DTD/svg11.dtd">
<!-- Generated by graphviz version 13.1.0 (20250701.0955)
 -->
<!-- Title: pipeline_workflow_v3 Pages: 1 -->
<svg width="1145pt" height="292pt"
 viewBox="0.00 0.00 1145.00 292.00" xmlns="http://www.w3.org/2000/svg" xmlns:xlink="http://www.w3.org/1999/xlink">
<g id="graph0" class="graph" transform="scale(1 1) rotate(0) translate(4 288)">
<title>pipeline_workflow_v3</title>
<polygon fill="white" stroke="none" points="-4,4 -4,-288 1141.05,-288 1141.05,4 -4,4"/>
<g id="clust1" class="cluster">
<title>cluster_encyclopedia</title>
<polygon fill="#dfefff" stroke="black" points="187.08,-8 187.08,-92 1129.05,-92 1129.05,-8 187.08,-8"/>
<text xml:space="preserve" text-anchor="middle" x="658.06" y="-76.6" font-family="Times,serif" font-size="12.00">Encyclopedia A</text>
</g>
<g id="clust2" class="cluster">
<title>cluster_corpus</title>
<polygon fill="#e0f7ff" stroke="black" points="32.26,-148 32.26,-276 858.56,-276 858.56,-148 32.26,-148"/>
<text xml:space="preserve" text-anchor="middle" x="445.41" y="-260.6" font-family="Times,serif" font-size="12.00">Corpus</text>
</g>
<g id="clust3" class="cluster">
<title>cluster_files</title>
<polygon fill="#d0e7ff" stroke="black" points="40.26,-156 40.26,-234 393.01,-234 393.01,-156 40.26,-156"/>
</g>
<!-- query -->
<g id="node1" class="node">
<title>query</title>
<ellipse fill="lightblue" stroke="black" cx="78.67" cy="-117" rx="78.67" ry="22.63"/>
<text xml:space="preserve" text-anchor="middle" x="78.67" y="-119.5" font-family="Arial" font-size="10.00">Query</text>
<text xml:space="preserve" text-anchor="middle" x="78.67" y="-107.5" font-family="Arial" font-size="10.00">(EPMC search terms)</text>
</g>
<!-- pygetpapers -->
<g id="node15" class="node">
<title>pygetpapers</title>
<path fill="#ffe9c6" stroke="#c97b00" stroke-width="2" d="M251.58,-136C251.58,-136 206.33,-136 206.33,-136 200.33,-136 194.33,-130 194.33,-124 194.33,-124 194.33,-112 194.33,-112 194.33,-106 200.33,-100 206.33,-100 206.33,-100 251.58,-100 251.58,-100 257.58,-100 263.58,-106 263.58,-112 263.58,-112 263.58,-124 263.58,-124 263.58,-130 257.58,-136 251.58,-136"/>
<text xml:space="preserve" text-anchor="middle" x="228.96" y="-114.5" font-family="Arial" font-size="10.00">pygetpapers</text>
</g>
<!-- query&#45;&gt;pygetpapers -->
<g id="edge3" class="edge">
<title>query&#45;&gt;pygetpapers</title>
<path fill="none" stroke="black" d="M157.72,-117.53C166.06,-117.58 174.33,-117.64 182.12,-117.69"/>
<polygon fill="black" stroke="black" points="181.96,-121.19 191.99,-117.76 182.01,-114.19 181.96,-121.19"/>
</g>
<!-- phrases -->
<g id="node2" class="node">
<title>phrases</title>
<ellipse fill="white" stroke="black" cx="358.01" cy="-44" rx="57.43" ry="18"/>
<text xml:space="preserve" text-anchor="middle" x="358.01" y="-40.5" font-family="Arial" font-size="10.00">Weighted Phrases</text>
</g>
<!-- ami_encyclopedia -->
<g id="node6" class="node">
<title>ami_encyclopedia</title>
<path fill="#ffe9c6" stroke="#c97b00" stroke-width="2" d="M631.31,-60C631.31,-60 561.31,-60 561.31,-60 555.31,-60 549.31,-54 549.31,-48 549.31,-48 549.31,-36 549.31,-36 549.31,-30 555.31,-24 561.31,-24 561.31,-24 631.31,-24 631.31,-24 637.31,-24 643.31,-30 643.31,-36 643.31,-36 643.31,-48 643.31,-48 643.31,-54 637.31,-60 631.31,-60"/>
<text xml:space="preserve" text-anchor="middle" x="596.31" y="-38.5" font-family="Arial" font-size="10.00">ami_encyclopedia</text>
</g>
<!-- phrases&#45;&gt;ami_encyclopedia -->
<g id="edge12" class="edge">
<title>phrases&#45;&gt;ami_encyclopedia</title>
<path fill="none" stroke="black" d="M415.91,-43.52C452.67,-43.21 500.36,-42.8 537.33,-42.49"/>
<polygon fill="black" stroke="black" points="536.95,-45.99 546.92,-42.41 536.89,-38.99 536.95,-45.99"/>
</g>
<!-- encyclopedia_entries -->
<g id="node3" class="node">
<title>encyclopedia_entries</title>
<ellipse fill="white" stroke="black" cx="796.29" cy="-39" rx="77.6" ry="22.63"/>
<text xml:space="preserve" text-anchor="middle" x="796.29" y="-41.5" font-family="Arial" font-size="10.00">Entries</text>
<text xml:space="preserve" text-anchor="middle" x="796.29" y="-29.5" font-family="Arial" font-size="10.00">(Wikipedia&#45;enhanced)</text>
</g>
<!-- ami_graph -->
<g id="node7" class="node">
<title>ami_graph</title>
<path fill="#ffe9c6" stroke="#c97b00" stroke-width="2" d="M959.9,-60C959.9,-60 922.9,-60 922.9,-60 916.9,-60 910.9,-54 910.9,-48 910.9,-48 910.9,-36 910.9,-36 910.9,-30 916.9,-24 922.9,-24 922.9,-24 959.9,-24 959.9,-24 965.9,-24 971.9,-30 971.9,-36 971.9,-36 971.9,-48 971.9,-48 971.9,-54 965.9,-60 959.9,-60"/>
<text xml:space="preserve" text-anchor="middle" x="941.4" y="-38.5" font-family="Arial" font-size="10.00">ami_graph</text>
</g>
<!-- encyclopedia_entries&#45;&gt;ami_graph -->
<g id="edge19" class="edge">
<title>encyclopedia_entries&#45;&gt;ami_graph</title>
<path fill="none" stroke="black" d="M873.87,-40.61C882.43,-40.78 890.9,-40.96 898.77,-41.13"/>
<polygon fill="black" stroke="black" points="898.62,-44.62 908.69,-41.34 898.77,-37.63 898.62,-44.62"/>
</g>
<!-- html_marker -->
<g id="node14" class="node">
<title>html_marker</title>
<path fill="#ffe9c6" stroke="#c97b00" stroke-width="2" d="M619.31,-192C619.31,-192 573.31,-192 573.31,-192 567.31,-192 561.31,-186 561.31,-180 561.31,-180 561.31,-168 561.31,-168 561.31,-162 567.31,-156 573.31,-156 573.31,-156 619.31,-156 619.31,-156 625.31,-156 631.31,-162 631.31,-168 631.31,-168 631.31,-180 631.31,-180 631.31,-186 625.31,-192 619.31,-192"/>
<text xml:space="preserve" text-anchor="middle" x="596.31" y="-170.5" font-family="Arial" font-size="10.00">html_marker</text>
</g>
<!-- encyclopedia_entries&#45;&gt;html_marker -->
<g id="edge15" class="edge">
<title>encyclopedia_entries&#45;&gt;html_marker</title>
<path fill="none" stroke="black" d="M777.85,-61.27C760.3,-82.42 731.48,-113.9 700.69,-134 683.04,-145.52 661.58,-154.5 642.79,-161.01"/>
<polygon fill="black" stroke="black" points="641.91,-157.62 633.52,-164.08 644.11,-164.26 641.91,-157.62"/>
</g>
<!-- encyclopedia_entries&#45;&gt;pygetpapers -->
<g id="edge14" class="edge">
<title>encyclopedia_entries&#45;&gt;pygetpapers</title>
<path fill="none" stroke="black" d="M733.42,-52.52C706.41,-58.12 674.32,-64.38 645.19,-69 511.53,-90.21 352.33,-106.51 275.67,-113.81"/>
<polygon fill="black" stroke="black" points="275.67,-110.29 266.04,-114.72 276.33,-117.26 275.67,-110.29"/>
<text xml:space="preserve" text-anchor="middle" x="481.44" y="-100.14" font-family="Times,serif" font-size="14.00">supervised search</text>
</g>
<!-- knowledge_graph -->
<g id="node4" class="node">
<title>knowledge_graph</title>
<ellipse fill="white" stroke="black" cx="1064.97" cy="-42" rx="56.07" ry="18"/>
<text xml:space="preserve" text-anchor="middle" x="1064.97" y="-38.5" font-family="Arial" font-size="10.00">Knowledge Graph</text>
</g>
<!-- txt2phrases -->
<g id="node5" class="node">
<title>txt2phrases</title>
<path fill="#ffe9c6" stroke="#c97b00" stroke-width="2" d="M250.83,-62C250.83,-62 207.08,-62 207.08,-62 201.08,-62 195.08,-56 195.08,-50 195.08,-50 195.08,-30 195.08,-30 195.08,-24 201.08,-18 207.08,-18 207.08,-18 250.83,-18 250.83,-18 256.83,-18 262.83,-24 262.83,-30 262.83,-30 262.83,-50 262.83,-50 262.83,-56 256.83,-62 250.83,-62"/>
<text xml:space="preserve" text-anchor="middle" x="228.96" y="-48.5" font-family="Arial" font-size="10.00">txt2phrases</text>
<text xml:space="preserve" text-anchor="middle" x="228.96" y="-36.5" font-family="Arial" font-size="10.00">OR</text>
<text xml:space="preserve" text-anchor="middle" x="228.96" y="-24.5" font-family="Arial" font-size="10.00">docanalysis</text>
</g>
<!-- txt2phrases&#45;&gt;phrases -->
<g id="edge11" class="edge">
<title>txt2phrases&#45;&gt;phrases</title>
<path fill="none" stroke="black" d="M263.67,-41.06C271.63,-41.31 280.4,-41.59 289.28,-41.87"/>
<polygon fill="black" stroke="black" points="288.91,-45.36 299.02,-42.17 289.13,-38.36 288.91,-45.36"/>
</g>
<!-- ami_encyclopedia&#45;&gt;encyclopedia_entries -->
<g id="edge13" class="edge">
<title>ami_encyclopedia&#45;&gt;encyclopedia_entries</title>
<path fill="none" stroke="black" d="M644.23,-41.29C663.12,-41 685.55,-40.66 707.26,-40.33"/>
<polygon fill="black" stroke="black" points="707.07,-43.84 717.02,-40.19 706.97,-36.84 707.07,-43.84"/>
</g>
<!-- ami_graph&#45;&gt;knowledge_graph -->
<g id="edge20" class="edge">
<title>ami_graph&#45;&gt;knowledge_graph</title>
<path fill="none" stroke="black" d="M972.76,-42C980.29,-42 988.66,-42 997.19,-42"/>
<polygon fill="black" stroke="black" points="996.93,-45.5 1006.93,-42 996.93,-38.5 996.93,-45.5"/>
</g>
<!-- corpus_xml -->
<g id="node8" class="node">
<title>corpus_xml</title>
<ellipse fill="white" stroke="black" cx="78.67" cy="-195" rx="30.41" ry="31.11"/>
<text xml:space="preserve" text-anchor="middle" x="78.67" y="-203.5" font-family="Arial" font-size="10.00">JSON</text>
<text xml:space="preserve" text-anchor="middle" x="78.67" y="-191.5" font-family="Arial" font-size="10.00">PDF</text>
<text xml:space="preserve" text-anchor="middle" x="78.67" y="-179.5" font-family="Arial" font-size="10.00">XML</text>
</g>
<!-- ami_html -->
<g id="node9" class="node">
<title>ami_html</title>
<path fill="#ffe9c6" stroke="#c97b00" stroke-width="2" d="M244.83,-213C244.83,-213 213.08,-213 213.08,-213 207.08,-213 201.08,-207 201.08,-201 201.08,-201 201.08,-189 201.08,-189 201.08,-183 207.08,-177 213.08,-177 213.08,-177 244.83,-177 244.83,-177 250.83,-177 256.83,-183 256.83,-189 256.83,-189 256.83,-201 256.83,-201 256.83,-207 250.83,-213 244.83,-213"/>
<text xml:space="preserve" text-anchor="middle" x="228.96" y="-191.5" font-family="Arial" font-size="10.00">ami_html</text>
</g>
<!-- corpus_xml&#45;&gt;ami_html -->
<!-- corpus_xml&#45;&gt;ami_html -->
<g id="edge5" class="edge">
<title>corpus_xml&#45;&gt;ami_html</title>
<path fill="none" stroke="black" d="M108.96,-200.5C131.84,-201.97 163.85,-202.14 188.91,-201.03"/>
<polygon fill="black" stroke="black" points="188.92,-204.53 198.71,-200.48 188.53,-197.54 188.92,-204.53"/>
</g>
<!-- jquery_tables -->
<g id="node13" class="node">
<title>jquery_tables</title>
<path fill="#ffe9c6" stroke="#c97b00" stroke-width="2" d="M633.19,-246C633.19,-246 559.44,-246 559.44,-246 553.44,-246 547.44,-240 547.44,-234 547.44,-234 547.44,-222 547.44,-222 547.44,-216 553.44,-210 559.44,-210 559.44,-210 633.19,-210 633.19,-210 639.19,-210 645.19,-216 645.19,-222 645.19,-222 645.19,-234 645.19,-234 645.19,-240 639.19,-246 633.19,-246"/>
<text xml:space="preserve" text-anchor="middle" x="596.31" y="-224.5" font-family="Arial" font-size="10.00">datatables_module</text>
</g>
<!-- corpus_xml&#45;&gt;jquery_tables -->
<g id="edge8" class="edge">
<title>corpus_xml&#45;&gt;jquery_tables</title>
<path fill="none" stroke="black" d="M108.04,-204.05C129.5,-210.42 159.82,-218.42 187.08,-222 310,-238.13 455.51,-235.02 535.37,-231.43"/>
<polygon fill="black" stroke="black" points="535.32,-234.94 545.15,-230.97 535,-227.95 535.32,-234.94"/>
</g>
<!-- corpus_html -->
<g id="node10" class="node">
<title>corpus_html</title>
<ellipse fill="white" stroke="black" cx="358.01" cy="-195" rx="27" ry="18"/>
<text xml:space="preserve" text-anchor="middle" x="358.01" y="-191.5" font-family="Arial" font-size="10.00">HTML</text>
</g>
<!-- ami_html&#45;&gt;corpus_html -->
<!-- ami_html&#45;&gt;corpus_html -->
<g id="edge6" class="edge">
<title>ami_html&#45;&gt;corpus_html</title>
<path fill="none" stroke="black" d="M257.52,-200.68C276.07,-201.92 300.72,-202.08 320.84,-201.16"/>
<polygon fill="black" stroke="black" points="320.79,-204.67 330.57,-200.58 320.38,-197.68 320.79,-204.67"/>
</g>
<!-- corpus_html&#45;&gt;jquery_tables -->
<g id="edge7" class="edge">
<title>corpus_html&#45;&gt;jquery_tables</title>
<path fill="none" stroke="black" d="M384.75,-198.59C420.63,-203.61 486.74,-212.84 535.34,-219.62"/>
<polygon fill="black" stroke="black" points="534.78,-223.08 545.17,-221 535.75,-216.15 534.78,-223.08"/>
</g>
<!-- corpus_html&#45;&gt;html_marker -->
<g id="edge16" class="edge">
<title>corpus_html&#45;&gt;html_marker</title>
<path fill="none" stroke="black" d="M385.2,-192.67C424.8,-189.15 500.48,-182.43 549.38,-178.08"/>
<polygon fill="black" stroke="black" points="549.44,-181.59 559.09,-177.22 548.82,-174.62 549.44,-181.59"/>
</g>
<!-- corpus_datatables -->
<g id="node11" class="node">
<title>corpus_datatables</title>
<ellipse fill="white" stroke="black" cx="796.29" cy="-228" rx="38.03" ry="18"/>
<text xml:space="preserve" text-anchor="middle" x="796.29" y="-224.5" font-family="Arial" font-size="10.00">Datatables</text>
</g>
<!-- corpus_annotated_html -->
<g id="node12" class="node">
<title>corpus_annotated_html</title>
<ellipse fill="white" stroke="black" cx="796.29" cy="-174" rx="54.27" ry="18"/>
<text xml:space="preserve" text-anchor="middle" x="796.29" y="-170.5" font-family="Arial" font-size="10.00">Annotated HTML</text>
</g>
<!-- corpus_annotated_html&#45;&gt;ami_graph -->
<g id="edge18" class="edge">
<title>corpus_annotated_html&#45;&gt;ami_graph</title>
<path fill="none" stroke="black" d="M816,-156.74C840.31,-134.32 882.99,-94.95 911.48,-68.67"/>
<polygon fill="black" stroke="black" points="913.74,-71.35 918.72,-62 909,-66.2 913.74,-71.35"/>
</g>
<!-- jquery_tables&#45;&gt;txt2phrases -->
<g id="edge10" class="edge">
<title>jquery_tables&#45;&gt;txt2phrases</title>
<path fill="none" stroke="black" d="M554.87,-209.03C552.08,-206.62 549.54,-203.95 547.44,-201 521.95,-165.32 561.06,-134.37 529.44,-104 455.32,-32.81 399.39,-99.24 300.58,-71 291.89,-68.52 282.87,-65.19 274.3,-61.63"/>
<polygon fill="black" stroke="black" points="275.71,-58.42 265.14,-57.65 272.92,-64.84 275.71,-58.42"/>
</g>
<!-- jquery_tables&#45;&gt;corpus_datatables -->
<g id="edge9" class="edge">
<title>jquery_tables&#45;&gt;corpus_datatables</title>
<path fill="none" stroke="black" d="M646,-228C676.66,-228 716.09,-228 746.72,-228"/>
<polygon fill="black" stroke="black" points="746.48,-231.5 756.48,-228 746.48,-224.5 746.48,-231.5"/>
<text xml:space="preserve" text-anchor="middle" x="681.94" y="-231.2" font-family="Times,serif" font-size="14.00">creates</text>
</g>
<!-- html_marker&#45;&gt;corpus_annotated_html -->
<g id="edge17" class="edge">
<title>html_marker&#45;&gt;corpus_annotated_html</title>
<path fill="none" stroke="black" d="M632.25,-174C659.36,-174 697.7,-174 730.39,-174"/>
<polygon fill="black" stroke="black" points="730.18,-177.5 740.18,-174 730.18,-170.5 730.18,-177.5"/>
<text xml:space="preserve" text-anchor="middle" x="681.94" y="-177.2" font-family="Times,serif" font-size="14.00">creates</text>
</g>
<!-- pygetpapers&#45;&gt;phrases -->
<!-- pygetpapers&#45;&gt;corpus_xml -->
<g id="edge4" class="edge">
<title>pygetpapers&#45;&gt;corpus_xml</title>
<path fill="none" stroke="black" d="M193.57,-135.85C170.37,-147.9 139.8,-163.78 116.17,-176.05"/>
<polygon fill="black" stroke="black" points="114.78,-172.82 107.52,-180.54 118.01,-179.03 114.78,-172.82"/>
</g>
</g>
</svg>
