<?xml version="1.0" encoding="UTF-8" standalone="no"?>
<!DOCTYPE svg PUBLIC "-//W3C//DTD SVG 1.1//EN"
 "http://www.w3.org/Graphics/SVG/1.1/DTD/svg11.dtd">
<!-- Generated by graphviz version 9.0.0 (20230911.1827)
 -->
<!-- Pages: 1 -->
<svg width="5409pt" height="404pt"
 viewBox="0.00 0.00 5408.55 404.00" xmlns="http://www.w3.org/2000/svg" xmlns:xlink="http://www.w3.org/1999/xlink">
<g id="graph0" class="graph" transform="scale(1 1) rotate(0) translate(4 400)">
<polygon fill="white" stroke="none" points="-4,4 -4,-400 5404.55,-400 5404.55,4 -4,4"/>
<!-- lxml.etree -->
<g id="node1" class="node">
<title>lxml.etree</title>
<ellipse fill="none" stroke="black" cx="500.15" cy="-378" rx="48.79" ry="18"/>
<text text-anchor="middle" x="500.15" y="-372.95" font-family="Times,serif" font-size="14.00">lxml.etree</text>
</g>
<!-- amilib.ami_bib -->
<g id="node2" class="node">
<title>amilib.ami_bib</title>
<ellipse fill="none" stroke="black" cx="984.15" cy="-234" rx="68.24" ry="18"/>
<text text-anchor="middle" x="984.15" y="-228.95" font-family="Times,serif" font-size="14.00">amilib.ami_bib</text>
</g>
<!-- lxml.etree&#45;&gt;amilib.ami_bib -->
<g id="edge1" class="edge">
<title>lxml.etree&#45;&gt;amilib.ami_bib</title>
<path fill="none" stroke="black" d="M547.31,-372.89C631.74,-365.07 805.11,-346.78 861.15,-324 898.61,-308.77 935.34,-279.84 958.76,-259.09"/>
<polygon fill="black" stroke="black" points="960.87,-261.9 965.94,-252.6 956.18,-256.71 960.87,-261.9"/>
</g>
<!-- amilib.wikimedia -->
<g id="node4" class="node">
<title>amilib.wikimedia</title>
<ellipse fill="none" stroke="black" cx="314.15" cy="-162" rx="76.94" ry="18"/>
<text text-anchor="middle" x="314.15" y="-156.95" font-family="Times,serif" font-size="14.00">amilib.wikimedia</text>
</g>
<!-- lxml.etree&#45;&gt;amilib.wikimedia -->
<g id="edge3" class="edge">
<title>lxml.etree&#45;&gt;amilib.wikimedia</title>
<path fill="none" stroke="black" d="M451.42,-375.3C377.4,-371.57 242.04,-359.89 212.15,-324 174.47,-278.76 238.45,-218.62 280.97,-186.16"/>
<polygon fill="black" stroke="black" points="282.8,-189.16 288.72,-180.38 278.61,-183.55 282.8,-189.16"/>
</g>
<!-- amilib.ami_html -->
<g id="node5" class="node">
<title>amilib.ami_html</title>
<ellipse fill="none" stroke="black" cx="515.15" cy="-234" rx="73.87" ry="18"/>
<text text-anchor="middle" x="515.15" y="-228.95" font-family="Times,serif" font-size="14.00">amilib.ami_html</text>
</g>
<!-- lxml.etree&#45;&gt;amilib.ami_html -->
<g id="edge65" class="edge">
<title>lxml.etree&#45;&gt;amilib.ami_html</title>
<path fill="none" stroke="black" d="M461.65,-366.82C440.09,-358.93 415.02,-345.6 402.15,-324 393.96,-310.26 393.57,-301.5 402.15,-288 413.28,-270.49 431.89,-258.66 450.84,-250.71"/>
<polygon fill="black" stroke="black" points="451.85,-254.07 459.94,-247.23 449.35,-247.54 451.85,-254.07"/>
</g>
<!-- amilib.pdf_args -->
<g id="node6" class="node">
<title>amilib.pdf_args</title>
<ellipse fill="none" stroke="black" cx="2344.15" cy="-90" rx="69.78" ry="18"/>
<text text-anchor="middle" x="2344.15" y="-84.95" font-family="Times,serif" font-size="14.00">amilib.pdf_args</text>
</g>
<!-- lxml.etree&#45;&gt;amilib.pdf_args -->
<g id="edge6" class="edge">
<title>lxml.etree&#45;&gt;amilib.pdf_args</title>
<path fill="none" stroke="black" d="M531.08,-363.89C551.32,-354.47 577.7,-340.55 598.15,-324 647.16,-284.33 634.26,-245.19 690.15,-216 972.43,-68.57 1801.33,-128.27 2119.15,-108 2168.31,-104.86 2223.47,-100.71 2266.87,-97.29"/>
<polygon fill="black" stroke="black" points="2267.01,-100.79 2276.7,-96.51 2266.46,-93.81 2267.01,-100.79"/>
</g>
<!-- amilib.ami_pdf_libs -->
<g id="node8" class="node">
<title>amilib.ami_pdf_libs</title>
<ellipse fill="none" stroke="black" cx="1523.15" cy="-162" rx="86.67" ry="18"/>
<text text-anchor="middle" x="1523.15" y="-156.95" font-family="Times,serif" font-size="14.00">amilib.ami_pdf_libs</text>
</g>
<!-- lxml.etree&#45;&gt;amilib.ami_pdf_libs -->
<g id="edge44" class="edge">
<title>lxml.etree&#45;&gt;amilib.ami_pdf_libs</title>
<path fill="none" stroke="black" d="M537.98,-366.22C565.27,-357.4 602.25,-343.23 631.15,-324 687.4,-286.56 676.69,-244.09 738.15,-216 799.24,-188.08 1229.92,-171.77 1426.15,-165.72"/>
<polygon fill="black" stroke="black" points="1426.19,-169.22 1436.08,-165.42 1425.98,-162.22 1426.19,-169.22"/>
</g>
<!-- amilib.html_marker -->
<g id="node9" class="node">
<title>amilib.html_marker</title>
<ellipse fill="none" stroke="black" cx="419.15" cy="-18" rx="86.15" ry="18"/>
<text text-anchor="middle" x="419.15" y="-12.95" font-family="Times,serif" font-size="14.00">amilib.html_marker</text>
</g>
<!-- lxml.etree&#45;&gt;amilib.html_marker -->
<g id="edge11" class="edge">
<title>lxml.etree&#45;&gt;amilib.html_marker</title>
<path fill="none" stroke="black" d="M452.02,-374.08C370.18,-368.37 208.12,-353.61 160.15,-324 59.82,-262.07 42.08,-220.29 6.15,-108 1.27,-92.76 -4.42,-84.01 6.15,-72 26.94,-48.36 210.67,-32.35 325.96,-24.54"/>
<polygon fill="black" stroke="black" points="325.99,-28.04 335.73,-23.88 325.52,-21.06 325.99,-28.04"/>
</g>
<!-- amilib.xml_lib -->
<g id="node10" class="node">
<title>amilib.xml_lib</title>
<ellipse fill="none" stroke="black" cx="288.15" cy="-306" rx="66.71" ry="18"/>
<text text-anchor="middle" x="288.15" y="-300.95" font-family="Times,serif" font-size="14.00">amilib.xml_lib</text>
</g>
<!-- lxml.etree&#45;&gt;amilib.xml_lib -->
<g id="edge61" class="edge">
<title>lxml.etree&#45;&gt;amilib.xml_lib</title>
<path fill="none" stroke="black" d="M464.66,-365.28C430.51,-354.01 378.48,-336.83 339.74,-324.04"/>
<polygon fill="black" stroke="black" points="341.23,-320.84 330.63,-321.03 339.03,-327.49 341.23,-320.84"/>
</g>
<!-- amilib.amidriver -->
<g id="node13" class="node">
<title>amilib.amidriver</title>
<ellipse fill="none" stroke="black" cx="3286.15" cy="-306" rx="73.87" ry="18"/>
<text text-anchor="middle" x="3286.15" y="-300.95" font-family="Times,serif" font-size="14.00">amilib.amidriver</text>
</g>
<!-- lxml.etree&#45;&gt;amilib.amidriver -->
<g id="edge18" class="edge">
<title>lxml.etree&#45;&gt;amilib.amidriver</title>
<path fill="none" stroke="black" d="M546.73,-372.15C587.02,-368.16 646.86,-362.73 699.15,-360 1530.17,-316.56 1739.19,-341.89 2571.15,-324 2798.97,-319.1 3067.61,-312.49 3201.46,-309.14"/>
<polygon fill="black" stroke="black" points="3201.39,-312.64 3211.3,-308.89 3201.22,-305.64 3201.39,-312.64"/>
</g>
<!-- amilib.ami_svg -->
<g id="node30" class="node">
<title>amilib.ami_svg</title>
<ellipse fill="none" stroke="black" cx="828.15" cy="-234" rx="69.26" ry="18"/>
<text text-anchor="middle" x="828.15" y="-228.95" font-family="Times,serif" font-size="14.00">amilib.ami_svg</text>
</g>
<!-- lxml.etree&#45;&gt;amilib.ami_svg -->
<g id="edge43" class="edge">
<title>lxml.etree&#45;&gt;amilib.ami_svg</title>
<path fill="none" stroke="black" d="M547.62,-373.04C637.04,-365.11 823.21,-346.1 842.15,-324 856.51,-307.24 850.79,-281.92 842.76,-262.57"/>
<polygon fill="black" stroke="black" points="846.01,-261.26 838.66,-253.62 839.64,-264.17 846.01,-261.26"/>
</g>
<!-- amilib.headless_lib -->
<g id="node42" class="node">
<title>amilib.headless_lib</title>
<ellipse fill="none" stroke="black" cx="98.15" cy="-90" rx="83.08" ry="18"/>
<text text-anchor="middle" x="98.15" y="-84.95" font-family="Times,serif" font-size="14.00">amilib.headless_lib</text>
</g>
<!-- lxml.etree&#45;&gt;amilib.headless_lib -->
<g id="edge73" class="edge">
<title>lxml.etree&#45;&gt;amilib.headless_lib</title>
<path fill="none" stroke="black" d="M452.22,-373.94C377.17,-368.29 236.43,-353.95 197.15,-324 130.79,-273.41 108.41,-169.72 101.27,-119.5"/>
<polygon fill="black" stroke="black" points="104.76,-119.19 100,-109.73 97.82,-120.1 104.76,-119.19"/>
</g>
<!-- amilib.util -->
<g id="node3" class="node">
<title>amilib.util</title>
<ellipse fill="none" stroke="black" cx="2512.15" cy="-306" rx="49.82" ry="18"/>
<text text-anchor="middle" x="2512.15" y="-300.95" font-family="Times,serif" font-size="14.00">amilib.util</text>
</g>
<!-- amilib.util&#45;&gt;amilib.ami_bib -->
<g id="edge2" class="edge">
<title>amilib.util&#45;&gt;amilib.ami_bib</title>
<path fill="none" stroke="black" d="M2462.37,-304.3C2241.07,-301 1345.15,-285.79 1066.15,-252 1059.23,-251.16 1052.04,-250.04 1044.9,-248.78"/>
<polygon fill="black" stroke="black" points="1045.76,-245.38 1035.28,-246.97 1044.46,-252.26 1045.76,-245.38"/>
</g>
<!-- amilib.util&#45;&gt;amilib.wikimedia -->
<g id="edge4" class="edge">
<title>amilib.util&#45;&gt;amilib.wikimedia</title>
<path fill="none" stroke="black" d="M2462.19,-305.21C2225.91,-305.9 1226.73,-305.63 1099.15,-252 1077.7,-242.98 1082.44,-225.37 1061.15,-216 1002.1,-190.01 585.63,-172.46 401.42,-165.89"/>
<polygon fill="black" stroke="black" points="401.79,-162.4 391.68,-165.54 401.55,-169.4 401.79,-162.4"/>
</g>
<!-- amilib.util&#45;&gt;amilib.ami_html -->
<g id="edge67" class="edge">
<title>amilib.util&#45;&gt;amilib.ami_html</title>
<path fill="none" stroke="black" d="M2462.36,-304.27C2253.57,-301.05 1427.91,-286.69 750.15,-252 698.65,-249.36 640.88,-245.2 595.51,-241.66"/>
<polygon fill="black" stroke="black" points="596.01,-238.18 585.76,-240.89 595.46,-245.16 596.01,-238.18"/>
</g>
<!-- amilib.util&#45;&gt;amilib.pdf_args -->
<g id="edge7" class="edge">
<title>amilib.util&#45;&gt;amilib.pdf_args</title>
<path fill="none" stroke="black" d="M2520.4,-287.92C2534.44,-256.11 2558.48,-187.09 2526.15,-144 2512.28,-125.52 2458.87,-111.37 2413.46,-102.35"/>
<polygon fill="black" stroke="black" points="2414.39,-98.97 2403.91,-100.51 2413.07,-105.84 2414.39,-98.97"/>
</g>
<!-- amilib.util&#45;&gt;amilib.ami_pdf_libs -->
<g id="edge51" class="edge">
<title>amilib.util&#45;&gt;amilib.ami_pdf_libs</title>
<path fill="none" stroke="black" d="M2494.11,-288.95C2469.17,-267.86 2421.82,-231.66 2374.15,-216 2236.95,-170.92 1814.55,-163.77 1621.38,-162.92"/>
<polygon fill="black" stroke="black" points="1621.64,-159.42 1611.63,-162.88 1621.62,-166.42 1621.64,-159.42"/>
</g>
<!-- amilib.util&#45;&gt;amilib.html_marker -->
<g id="edge14" class="edge">
<title>amilib.util&#45;&gt;amilib.html_marker</title>
<path fill="none" stroke="black" d="M2528.63,-288.99C2537.46,-279.24 2547.46,-265.99 2552.15,-252 2558.48,-233.09 2554.61,-154.5 2548.15,-144 2514.54,-89.4 2484.86,-89.38 2423.15,-72 2239.07,-20.16 893.95,-18.27 517.06,-18.77"/>
<polygon fill="black" stroke="black" points="517.17,-15.27 507.18,-18.78 517.18,-22.27 517.17,-15.27"/>
</g>
<!-- amilib.ami_integrate -->
<g id="node11" class="node">
<title>amilib.ami_integrate</title>
<ellipse fill="none" stroke="black" cx="1523.15" cy="-90" rx="88.71" ry="18"/>
<text text-anchor="middle" x="1523.15" y="-84.95" font-family="Times,serif" font-size="14.00">amilib.ami_integrate</text>
</g>
<!-- amilib.util&#45;&gt;amilib.ami_integrate -->
<g id="edge80" class="edge">
<title>amilib.util&#45;&gt;amilib.ami_integrate</title>
<path fill="none" stroke="black" d="M2504.8,-287.75C2495.23,-267.41 2476.55,-234.11 2450.15,-216 2394.68,-177.95 2363.16,-210.38 2303.15,-180 2280.91,-168.74 2283.25,-153.35 2260.15,-144 2202.42,-120.65 1808.22,-102.23 1621.21,-94.69"/>
<polygon fill="black" stroke="black" points="1621.39,-91.2 1611.26,-94.29 1621.11,-98.19 1621.39,-91.2"/>
</g>
<!-- amilib.html_args -->
<g id="node21" class="node">
<title>amilib.html_args</title>
<ellipse fill="none" stroke="black" cx="2729.15" cy="-234" rx="74.89" ry="18"/>
<text text-anchor="middle" x="2729.15" y="-228.95" font-family="Times,serif" font-size="14.00">amilib.html_args</text>
</g>
<!-- amilib.util&#45;&gt;amilib.html_args -->
<g id="edge72" class="edge">
<title>amilib.util&#45;&gt;amilib.html_args</title>
<path fill="none" stroke="black" d="M2548.47,-293.28C2582.99,-282.15 2635.35,-265.26 2674.83,-252.52"/>
<polygon fill="black" stroke="black" points="2675.71,-255.91 2684.16,-249.51 2673.56,-249.25 2675.71,-255.91"/>
</g>
<!-- amilib.amix -->
<g id="node22" class="node">
<title>amilib.amix</title>
<ellipse fill="none" stroke="black" cx="2523.15" cy="-18" rx="56.47" ry="18"/>
<text text-anchor="middle" x="2523.15" y="-12.95" font-family="Times,serif" font-size="14.00">amilib.amix</text>
</g>
<!-- amilib.util&#45;&gt;amilib.amix -->
<g id="edge27" class="edge">
<title>amilib.util&#45;&gt;amilib.amix</title>
<path fill="none" stroke="black" d="M2548.97,-293.42C2568.48,-285.19 2590.72,-271.99 2602.15,-252 2641.85,-182.55 2639.79,-142.59 2602.15,-72 2594.46,-57.58 2580.9,-46.38 2567.17,-38.08"/>
<polygon fill="black" stroke="black" points="2568.98,-35.08 2558.54,-33.27 2565.58,-41.2 2568.98,-35.08"/>
</g>
<!-- amilib.html_generator -->
<g id="node28" class="node">
<title>amilib.html_generator</title>
<ellipse fill="none" stroke="black" cx="2016.15" cy="-90" rx="94.34" ry="18"/>
<text text-anchor="middle" x="2016.15" y="-84.95" font-family="Times,serif" font-size="14.00">amilib.html_generator</text>
</g>
<!-- amilib.util&#45;&gt;amilib.html_generator -->
<g id="edge38" class="edge">
<title>amilib.util&#45;&gt;amilib.html_generator</title>
<path fill="none" stroke="black" d="M2516.21,-287.76C2522.87,-254.72 2531.79,-182.38 2493.15,-144 2479.82,-130.77 2248.64,-109.88 2113.1,-98.69"/>
<polygon fill="black" stroke="black" points="2113.66,-95.22 2103.41,-97.89 2113.09,-102.2 2113.66,-95.22"/>
</g>
<!-- amilib.util&#45;&gt;amilib.ami_svg -->
<g id="edge41" class="edge">
<title>amilib.util&#45;&gt;amilib.ami_svg</title>
<path fill="none" stroke="black" d="M2462.33,-303.89C2208.46,-298.14 1064.44,-271.36 907.15,-252 901.06,-251.25 894.74,-250.26 888.45,-249.13"/>
<polygon fill="black" stroke="black" points="889.19,-245.71 878.71,-247.27 887.87,-252.59 889.19,-245.71"/>
</g>
<!-- amilib.wikimedia&#45;&gt;amilib.amix -->
<g id="edge29" class="edge">
<title>amilib.wikimedia&#45;&gt;amilib.amix</title>
<path fill="none" stroke="black" d="M378.37,-151.79C399.02,-149.03 422.02,-146.16 443.15,-144 1232.2,-63.15 2195.41,-29.1 2455.66,-20.99"/>
<polygon fill="black" stroke="black" points="2455.76,-24.49 2465.65,-20.68 2455.54,-17.49 2455.76,-24.49"/>
</g>
<!-- amilib.wikimedia&#45;&gt;amilib.headless_lib -->
<g id="edge76" class="edge">
<title>amilib.wikimedia&#45;&gt;amilib.headless_lib</title>
<path fill="none" stroke="black" d="M270.44,-146.83C236.81,-135.94 190.11,-120.8 153.81,-109.04"/>
<polygon fill="black" stroke="black" points="154.94,-105.73 144.35,-105.97 152.78,-112.38 154.94,-105.73"/>
</g>
<!-- amilib.ami_html&#45;&gt;amilib.wikimedia -->
<g id="edge5" class="edge">
<title>amilib.ami_html&#45;&gt;amilib.wikimedia</title>
<path fill="none" stroke="black" d="M473.99,-218.67C442.9,-207.84 400,-192.9 366.47,-181.22"/>
<polygon fill="black" stroke="black" points="367.97,-178.04 357.37,-178.05 365.67,-184.65 367.97,-178.04"/>
</g>
<!-- amilib.ami_html&#45;&gt;amilib.pdf_args -->
<g id="edge10" class="edge">
<title>amilib.ami_html&#45;&gt;amilib.pdf_args</title>
<path fill="none" stroke="black" d="M541.06,-216.66C556.54,-206.59 576.4,-193.13 593.15,-180 611.97,-165.24 610.92,-152.84 633.15,-144 709.88,-113.48 2036.67,-112.11 2119.15,-108 2168.71,-105.53 2224.32,-101.34 2267.85,-97.74"/>
<polygon fill="black" stroke="black" points="2268.04,-101.24 2277.71,-96.92 2267.45,-94.26 2268.04,-101.24"/>
</g>
<!-- amilib.ami_html&#45;&gt;amilib.ami_pdf_libs -->
<g id="edge53" class="edge">
<title>amilib.ami_html&#45;&gt;amilib.ami_pdf_libs</title>
<path fill="none" stroke="black" d="M576.89,-223.74C597.31,-220.93 620.17,-218.04 641.15,-216 926.12,-188.25 1264.39,-172.79 1426.77,-166.45"/>
<polygon fill="black" stroke="black" points="1426.78,-169.95 1436.64,-166.07 1426.51,-162.96 1426.78,-169.95"/>
</g>
<!-- amilib.ami_html&#45;&gt;amilib.html_marker -->
<g id="edge15" class="edge">
<title>amilib.ami_html&#45;&gt;amilib.html_marker</title>
<path fill="none" stroke="black" d="M507.45,-215.85C490.88,-178.91 451.69,-91.55 431.56,-46.67"/>
<polygon fill="black" stroke="black" points="434.78,-45.3 427.5,-37.61 428.4,-48.17 434.78,-45.3"/>
</g>
<!-- amilib.ami_html&#45;&gt;amilib.ami_integrate -->
<g id="edge81" class="edge">
<title>amilib.ami_html&#45;&gt;amilib.ami_integrate</title>
<path fill="none" stroke="black" d="M517.87,-215.84C522.19,-194.94 532.77,-160.41 557.15,-144 627.63,-96.57 1190.14,-91 1422.88,-90.76"/>
<polygon fill="black" stroke="black" points="1422.88,-94.26 1432.87,-90.75 1422.87,-87.26 1422.88,-94.26"/>
</g>
<!-- amilib.ami_html&#45;&gt;amilib.html_generator -->
<g id="edge39" class="edge">
<title>amilib.ami_html&#45;&gt;amilib.html_generator</title>
<path fill="none" stroke="black" d="M529.19,-215.99C549.76,-191.3 586.58,-148 595.15,-144 698.51,-95.74 1507.16,-112.45 1621.15,-108 1720.72,-104.11 1834.38,-99.17 1914.14,-95.61"/>
<polygon fill="black" stroke="black" points="1913.82,-99.13 1923.65,-95.19 1913.5,-92.14 1913.82,-99.13"/>
</g>
<!-- amilib.pdf_args&#45;&gt;amilib.amix -->
<g id="edge28" class="edge">
<title>amilib.pdf_args&#45;&gt;amilib.amix</title>
<path fill="none" stroke="black" d="M2381.24,-74.5C2409.33,-63.51 2448.05,-48.37 2477.95,-36.67"/>
<polygon fill="black" stroke="black" points="2479.09,-39.99 2487.13,-33.09 2476.54,-33.47 2479.09,-39.99"/>
</g>
<!-- amilib.file_lib -->
<g id="node7" class="node">
<title>amilib.file_lib</title>
<ellipse fill="none" stroke="black" cx="2397.15" cy="-378" rx="64.15" ry="18"/>
<text text-anchor="middle" x="2397.15" y="-372.95" font-family="Times,serif" font-size="14.00">amilib.file_lib</text>
</g>
<!-- amilib.file_lib&#45;&gt;amilib.util -->
<g id="edge25" class="edge">
<title>amilib.file_lib&#45;&gt;amilib.util</title>
<path fill="none" stroke="black" d="M2423.24,-361.12C2439.57,-351.18 2460.77,-338.27 2478.37,-327.56"/>
<polygon fill="black" stroke="black" points="2479.71,-330.84 2486.44,-322.65 2476.07,-324.86 2479.71,-330.84"/>
</g>
<!-- amilib.file_lib&#45;&gt;amilib.ami_html -->
<g id="edge66" class="edge">
<title>amilib.file_lib&#45;&gt;amilib.ami_html</title>
<path fill="none" stroke="black" d="M2333.2,-376.47C2044.76,-373.86 871.99,-361.07 712.15,-324 652.91,-310.26 589.75,-278.26 551.35,-256.62"/>
<polygon fill="black" stroke="black" points="553.41,-253.76 542.99,-251.84 549.93,-259.84 553.41,-253.76"/>
</g>
<!-- amilib.file_lib&#45;&gt;amilib.pdf_args -->
<g id="edge8" class="edge">
<title>amilib.file_lib&#45;&gt;amilib.pdf_args</title>
<path fill="none" stroke="black" d="M2443.69,-365.19C2452.44,-363.24 2461.54,-361.41 2470.15,-360 2511.57,-353.23 2817.92,-355.06 2846.15,-324 2878.43,-288.48 2873.93,-255.14 2846.15,-216 2797.14,-146.95 2547.98,-111.8 2420.11,-98.08"/>
<polygon fill="black" stroke="black" points="2420.68,-94.62 2410.37,-97.05 2419.95,-101.58 2420.68,-94.62"/>
</g>
<!-- amilib.file_lib&#45;&gt;amilib.ami_pdf_libs -->
<g id="edge59" class="edge">
<title>amilib.file_lib&#45;&gt;amilib.ami_pdf_libs</title>
<path fill="none" stroke="black" d="M2396.94,-359.62C2395.48,-325.68 2386.96,-250.85 2341.15,-216 2285.08,-173.35 1826.38,-164.97 1621.43,-163.36"/>
<polygon fill="black" stroke="black" points="1621.63,-159.86 1611.6,-163.29 1621.57,-166.86 1621.63,-159.86"/>
</g>
<!-- amilib.file_lib&#45;&gt;amilib.xml_lib -->
<g id="edge62" class="edge">
<title>amilib.file_lib&#45;&gt;amilib.xml_lib</title>
<path fill="none" stroke="black" d="M2333.06,-376.35C2035.89,-373.15 790.23,-357.96 402.15,-324 386.59,-322.64 369.92,-320.53 354.26,-318.25"/>
<polygon fill="black" stroke="black" points="354.98,-314.82 344.57,-316.79 353.94,-321.74 354.98,-314.82"/>
</g>
<!-- amilib.file_lib&#45;&gt;amilib.ami_integrate -->
<g id="edge78" class="edge">
<title>amilib.file_lib&#45;&gt;amilib.ami_integrate</title>
<path fill="none" stroke="black" d="M2400.84,-359.54C2406.97,-325.1 2414.54,-248.92 2370.15,-216 2309.98,-171.38 1819.47,-119.53 1613.59,-99.5"/>
<polygon fill="black" stroke="black" points="1614.02,-96.03 1603.73,-98.54 1613.35,-102.99 1614.02,-96.03"/>
</g>
<!-- amilib.file_lib&#45;&gt;amilib.html_args -->
<g id="edge71" class="edge">
<title>amilib.file_lib&#45;&gt;amilib.html_args</title>
<path fill="none" stroke="black" d="M2444.66,-365.52C2480.2,-356.22 2529.63,-341.77 2571.15,-324 2615.42,-305.06 2663.19,-276.98 2694.47,-257.45"/>
<polygon fill="black" stroke="black" points="2696.15,-260.53 2702.74,-252.23 2692.42,-254.6 2696.15,-260.53"/>
</g>
<!-- amilib.file_lib&#45;&gt;amilib.html_generator -->
<g id="edge35" class="edge">
<title>amilib.file_lib&#45;&gt;amilib.html_generator</title>
<path fill="none" stroke="black" d="M2445.29,-365.77C2508.55,-350.99 2612.68,-326.58 2621.15,-324 2708.33,-297.45 2761.24,-326.91 2813.15,-252 2822.26,-238.85 2823.03,-228.58 2813.15,-216 2802.73,-202.73 2534.77,-146.89 2518.15,-144 2379.52,-119.88 2217.31,-105.16 2115.63,-97.55"/>
<polygon fill="black" stroke="black" points="2115.89,-94.06 2105.66,-96.81 2115.38,-101.04 2115.89,-94.06"/>
</g>
<!-- amilib.file_lib&#45;&gt;amilib.ami_svg -->
<g id="edge40" class="edge">
<title>amilib.file_lib&#45;&gt;amilib.ami_svg</title>
<path fill="none" stroke="black" d="M2333.64,-374.59C2127.07,-366.12 1455.97,-333.73 907.15,-252 901.25,-251.12 895.13,-250.07 889.03,-248.92"/>
<polygon fill="black" stroke="black" points="890.09,-245.56 879.61,-247.06 888.74,-252.43 890.09,-245.56"/>
</g>
<!-- amilib.ami_pdf_libs&#45;&gt;amilib.pdf_args -->
<g id="edge9" class="edge">
<title>amilib.ami_pdf_libs&#45;&gt;amilib.pdf_args</title>
<path fill="none" stroke="black" d="M1602.24,-154.26C1759.85,-140.82 2111.31,-110.85 2267.17,-97.56"/>
<polygon fill="black" stroke="black" points="2267.32,-101.06 2276.99,-96.73 2266.73,-94.09 2267.32,-101.06"/>
</g>
<!-- amilib.ami_pdf_libs&#45;&gt;amilib.ami_integrate -->
<g id="edge79" class="edge">
<title>amilib.ami_pdf_libs&#45;&gt;amilib.ami_integrate</title>
<path fill="none" stroke="black" d="M1517.23,-143.7C1516.48,-136.41 1516.24,-127.73 1516.5,-119.54"/>
<polygon fill="black" stroke="black" points="1519.99,-119.82 1517.15,-109.61 1513,-119.36 1519.99,-119.82"/>
</g>
<!-- amilib.ami_pdf_libs&#45;&gt;amilib.html_generator -->
<g id="edge37" class="edge">
<title>amilib.ami_pdf_libs&#45;&gt;amilib.html_generator</title>
<path fill="none" stroke="black" d="M1593.26,-151.05C1682.16,-138.42 1835.33,-116.67 1930.89,-103.11"/>
<polygon fill="black" stroke="black" points="1931.35,-106.58 1940.75,-101.7 1930.36,-99.65 1931.35,-106.58"/>
</g>
<!-- amilib.xml_lib&#45;&gt;amilib.ami_html -->
<g id="edge70" class="edge">
<title>amilib.xml_lib&#45;&gt;amilib.ami_html</title>
<path fill="none" stroke="black" d="M330.84,-291.83C367.35,-280.58 420.14,-264.3 459.87,-252.05"/>
<polygon fill="black" stroke="black" points="460.73,-255.44 469.26,-249.15 458.67,-248.75 460.73,-255.44"/>
</g>
<!-- amilib.xml_lib&#45;&gt;amilib.ami_pdf_libs -->
<g id="edge52" class="edge">
<title>amilib.xml_lib&#45;&gt;amilib.ami_pdf_libs</title>
<path fill="none" stroke="black" d="M344.58,-296.13C427.31,-283.01 574.34,-259.2 598.15,-252 635.86,-240.59 640.89,-225.38 679.15,-216 818.1,-181.93 1234.65,-169.02 1425.59,-164.79"/>
<polygon fill="black" stroke="black" points="1425.57,-168.29 1435.49,-164.58 1425.42,-161.3 1425.57,-168.29"/>
</g>
<!-- amilib.xml_lib&#45;&gt;amilib.html_marker -->
<g id="edge12" class="edge">
<title>amilib.xml_lib&#45;&gt;amilib.html_marker</title>
<path fill="none" stroke="black" d="M272.87,-288.36C247.3,-258.39 201.19,-193.86 228.15,-144 256.68,-91.23 318.24,-57.17 363.8,-38.13"/>
<polygon fill="black" stroke="black" points="365.06,-41.4 373.03,-34.41 362.44,-34.91 365.06,-41.4"/>
</g>
<!-- amilib.xml_lib&#45;&gt;amilib.ami_integrate -->
<g id="edge77" class="edge">
<title>amilib.xml_lib&#45;&gt;amilib.ami_integrate</title>
<path fill="none" stroke="black" d="M301.64,-288.02C330.32,-253.38 401.3,-175.25 481.15,-144 502.96,-135.46 1170.43,-106.09 1425.43,-95.15"/>
<polygon fill="black" stroke="black" points="1425.54,-98.65 1435.38,-94.73 1425.24,-91.66 1425.54,-98.65"/>
</g>
<!-- amilib.xml_lib&#45;&gt;amilib.html_generator -->
<g id="edge34" class="edge">
<title>amilib.xml_lib&#45;&gt;amilib.html_generator</title>
<path fill="none" stroke="black" d="M311.63,-288.82C366.99,-251.04 504.99,-159.08 558.15,-144 671.84,-111.74 1503.06,-112.54 1621.15,-108 1720.72,-104.17 1834.38,-99.22 1914.14,-95.65"/>
<polygon fill="black" stroke="black" points="1913.82,-99.17 1923.65,-95.22 1913.5,-92.17 1913.82,-99.17"/>
</g>
<!-- amilib.xml_lib&#45;&gt;amilib.ami_svg -->
<g id="edge42" class="edge">
<title>amilib.xml_lib&#45;&gt;amilib.ami_svg</title>
<path fill="none" stroke="black" d="M344.94,-296.25C363.19,-293.52 383.51,-290.55 402.15,-288 525.69,-271.11 669.71,-253.66 754.67,-243.59"/>
<polygon fill="black" stroke="black" points="754.98,-247.08 764.5,-242.43 754.16,-240.13 754.98,-247.08"/>
</g>
<!-- amilib.xml_lib&#45;&gt;amilib.headless_lib -->
<g id="edge74" class="edge">
<title>amilib.xml_lib&#45;&gt;amilib.headless_lib</title>
<path fill="none" stroke="black" d="M263.06,-288.97C248.79,-279.21 231.04,-265.96 217.15,-252 174.93,-209.58 135.67,-151.39 114.49,-117.83"/>
<polygon fill="black" stroke="black" points="117.57,-116.17 109.31,-109.54 111.63,-119.87 117.57,-116.17"/>
</g>
<!-- amilib.ami_integrate&#45;&gt;amilib.ami_pdf_libs -->
<g id="edge58" class="edge">
<title>amilib.ami_integrate&#45;&gt;amilib.ami_pdf_libs</title>
<path fill="none" stroke="black" d="M1529.04,-108.1C1529.8,-115.37 1530.06,-124.04 1529.8,-132.24"/>
<polygon fill="black" stroke="black" points="1526.31,-131.98 1529.16,-142.19 1533.3,-132.43 1526.31,-131.98"/>
</g>
<!-- amilib.ami_integrate&#45;&gt;amilib.html_marker -->
<g id="edge13" class="edge">
<title>amilib.ami_integrate&#45;&gt;amilib.html_marker</title>
<path fill="none" stroke="black" d="M1439.72,-83.71C1237.73,-70.9 723.54,-38.3 512.1,-24.89"/>
<polygon fill="black" stroke="black" points="512.46,-21.41 502.26,-24.27 512.01,-28.4 512.46,-21.41"/>
</g>
<!-- webdriver_manager.chrome -->
<g id="node12" class="node">
<title>webdriver_manager.chrome</title>
<ellipse fill="none" stroke="black" cx="2594.15" cy="-378" rx="115.33" ry="18"/>
<text text-anchor="middle" x="2594.15" y="-372.95" font-family="Times,serif" font-size="14.00">webdriver_manager.chrome</text>
</g>
<!-- webdriver_manager.chrome&#45;&gt;amilib.amidriver -->
<g id="edge16" class="edge">
<title>webdriver_manager.chrome&#45;&gt;amilib.amidriver</title>
<path fill="none" stroke="black" d="M2677.46,-365.17C2691.37,-363.34 2705.66,-361.55 2719.15,-360 2892.04,-340.17 3095.24,-322.55 3205.33,-313.48"/>
<polygon fill="black" stroke="black" points="3205.47,-316.98 3215.15,-312.67 3204.9,-310 3205.47,-316.98"/>
</g>
<!-- selenium.webdriver.support -->
<g id="node14" class="node">
<title>selenium.webdriver.support</title>
<ellipse fill="none" stroke="black" cx="2842.15" cy="-378" rx="114.3" ry="18"/>
<text text-anchor="middle" x="2842.15" y="-372.95" font-family="Times,serif" font-size="14.00">selenium.webdriver.support</text>
</g>
<!-- selenium.webdriver.support&#45;&gt;amilib.amidriver -->
<g id="edge17" class="edge">
<title>selenium.webdriver.support&#45;&gt;amilib.amidriver</title>
<path fill="none" stroke="black" d="M2921.01,-364.57C3004.2,-351.45 3134.11,-330.97 3214.47,-318.3"/>
<polygon fill="black" stroke="black" points="3214.64,-321.82 3223.98,-316.8 3213.55,-314.9 3214.64,-321.82"/>
</g>
<!-- selenium.webdriver -->
<g id="node15" class="node">
<title>selenium.webdriver</title>
<ellipse fill="none" stroke="black" cx="3059.15" cy="-378" rx="84.62" ry="18"/>
<text text-anchor="middle" x="3059.15" y="-372.95" font-family="Times,serif" font-size="14.00">selenium.webdriver</text>
</g>
<!-- selenium.webdriver&#45;&gt;amilib.amidriver -->
<g id="edge19" class="edge">
<title>selenium.webdriver&#45;&gt;amilib.amidriver</title>
<path fill="none" stroke="black" d="M3105.91,-362.58C3142.17,-351.4 3192.54,-335.87 3230.81,-324.06"/>
<polygon fill="black" stroke="black" points="3231.79,-327.42 3240.32,-321.13 3229.73,-320.73 3231.79,-327.42"/>
</g>
<!-- selenium.webdriver.support.ui -->
<g id="node16" class="node">
<title>selenium.webdriver.support.ui</title>
<ellipse fill="none" stroke="black" cx="3286.15" cy="-378" rx="124.03" ry="18"/>
<text text-anchor="middle" x="3286.15" y="-372.95" font-family="Times,serif" font-size="14.00">selenium.webdriver.support.ui</text>
</g>
<!-- selenium.webdriver.support.ui&#45;&gt;amilib.amidriver -->
<g id="edge20" class="edge">
<title>selenium.webdriver.support.ui&#45;&gt;amilib.amidriver</title>
<path fill="none" stroke="black" d="M3286.15,-359.7C3286.15,-352.41 3286.15,-343.73 3286.15,-335.54"/>
<polygon fill="black" stroke="black" points="3289.65,-335.62 3286.15,-325.62 3282.65,-335.62 3289.65,-335.62"/>
</g>
<!-- selenium.webdriver.common.by -->
<g id="node17" class="node">
<title>selenium.webdriver.common.by</title>
<ellipse fill="none" stroke="black" cx="3560.15" cy="-378" rx="131.71" ry="18"/>
<text text-anchor="middle" x="3560.15" y="-372.95" font-family="Times,serif" font-size="14.00">selenium.webdriver.common.by</text>
</g>
<!-- selenium.webdriver.common.by&#45;&gt;amilib.amidriver -->
<g id="edge21" class="edge">
<title>selenium.webdriver.common.by&#45;&gt;amilib.amidriver</title>
<path fill="none" stroke="black" d="M3499.68,-361.55C3454.25,-349.95 3392.3,-334.12 3346.83,-322.5"/>
<polygon fill="black" stroke="black" points="3347.95,-319.18 3337.4,-320.09 3346.22,-325.96 3347.95,-319.18"/>
</g>
<!-- selenium.common.exceptions -->
<g id="node18" class="node">
<title>selenium.common.exceptions</title>
<ellipse fill="none" stroke="black" cx="3832.15" cy="-378" rx="122.49" ry="18"/>
<text text-anchor="middle" x="3832.15" y="-372.95" font-family="Times,serif" font-size="14.00">selenium.common.exceptions</text>
</g>
<!-- selenium.common.exceptions&#45;&gt;amilib.amidriver -->
<g id="edge22" class="edge">
<title>selenium.common.exceptions&#45;&gt;amilib.amidriver</title>
<path fill="none" stroke="black" d="M3742.66,-365.36C3728.76,-363.56 3714.57,-361.73 3701.15,-360 3582.63,-344.74 3445.06,-327.21 3361.86,-316.62"/>
<polygon fill="black" stroke="black" points="3362.36,-313.16 3351.99,-315.37 3361.47,-320.1 3362.36,-313.16"/>
</g>
<!-- selenium.webdriver.remote.webelement -->
<g id="node19" class="node">
<title>selenium.webdriver.remote.webelement</title>
<ellipse fill="none" stroke="black" cx="4133.15" cy="-378" rx="160.37" ry="18"/>
<text text-anchor="middle" x="4133.15" y="-372.95" font-family="Times,serif" font-size="14.00">selenium.webdriver.remote.webelement</text>
</g>
<!-- selenium.webdriver.remote.webelement&#45;&gt;amilib.amidriver -->
<g id="edge23" class="edge">
<title>selenium.webdriver.remote.webelement&#45;&gt;amilib.amidriver</title>
<path fill="none" stroke="black" d="M4017.96,-365.14C3999.63,-363.35 3980.87,-361.58 3963.15,-360 3748.28,-340.85 3494.7,-322 3367.53,-312.8"/>
<polygon fill="black" stroke="black" points="3368.1,-309.33 3357.87,-312.1 3367.59,-316.32 3368.1,-309.33"/>
</g>
<!-- selenium.webdriver.chrome.service -->
<g id="node20" class="node">
<title>selenium.webdriver.chrome.service</title>
<ellipse fill="none" stroke="black" cx="4455.15" cy="-378" rx="143.48" ry="18"/>
<text text-anchor="middle" x="4455.15" y="-372.95" font-family="Times,serif" font-size="14.00">selenium.webdriver.chrome.service</text>
</g>
<!-- selenium.webdriver.chrome.service&#45;&gt;amilib.amidriver -->
<g id="edge24" class="edge">
<title>selenium.webdriver.chrome.service&#45;&gt;amilib.amidriver</title>
<path fill="none" stroke="black" d="M4354,-364.92C4336.72,-363.09 4318.93,-361.37 4302.15,-360 3957.15,-331.86 3544.96,-315.74 3370.63,-309.73"/>
<polygon fill="black" stroke="black" points="3370.87,-306.24 3360.76,-309.4 3370.63,-313.24 3370.87,-306.24"/>
</g>
<!-- amilib.html_args&#45;&gt;amilib.amix -->
<g id="edge26" class="edge">
<title>amilib.html_args&#45;&gt;amilib.amix</title>
<path fill="none" stroke="black" d="M2733.56,-215.62C2740.63,-183.3 2750.49,-113.47 2716.15,-72 2699.35,-51.72 2634.82,-36.88 2584.94,-28.14"/>
<polygon fill="black" stroke="black" points="2585.84,-24.75 2575.39,-26.52 2584.67,-31.65 2585.84,-24.75"/>
</g>
<!-- sklearn.metrics.pairwise -->
<g id="node23" class="node">
<title>sklearn.metrics.pairwise</title>
<ellipse fill="none" stroke="black" cx="4718.15" cy="-378" rx="101.51" ry="18"/>
<text text-anchor="middle" x="4718.15" y="-372.95" font-family="Times,serif" font-size="14.00">sklearn.metrics.pairwise</text>
</g>
<!-- amilib.ami_nlp -->
<g id="node24" class="node">
<title>amilib.ami_nlp</title>
<ellipse fill="none" stroke="black" cx="5064.15" cy="-306" rx="68.24" ry="18"/>
<text text-anchor="middle" x="5064.15" y="-300.95" font-family="Times,serif" font-size="14.00">amilib.ami_nlp</text>
</g>
<!-- sklearn.metrics.pairwise&#45;&gt;amilib.ami_nlp -->
<g id="edge30" class="edge">
<title>sklearn.metrics.pairwise&#45;&gt;amilib.ami_nlp</title>
<path fill="none" stroke="black" d="M4783.23,-363.83C4845.33,-351.27 4938.33,-332.45 5000.09,-319.96"/>
<polygon fill="black" stroke="black" points="5000.66,-323.42 5009.76,-318 4999.27,-316.55 5000.66,-323.42"/>
</g>
<!-- sklearn.feature_extraction.text -->
<g id="node25" class="node">
<title>sklearn.feature_extraction.text</title>
<ellipse fill="none" stroke="black" cx="4961.15" cy="-378" rx="123.52" ry="18"/>
<text text-anchor="middle" x="4961.15" y="-372.95" font-family="Times,serif" font-size="14.00">sklearn.feature_extraction.text</text>
</g>
<!-- sklearn.feature_extraction.text&#45;&gt;amilib.ami_nlp -->
<g id="edge31" class="edge">
<title>sklearn.feature_extraction.text&#45;&gt;amilib.ami_nlp</title>
<path fill="none" stroke="black" d="M4986.08,-360.05C4999.56,-350.89 5016.38,-339.46 5030.96,-329.56"/>
<polygon fill="black" stroke="black" points="5032.6,-332.67 5038.9,-324.16 5028.66,-326.88 5032.6,-332.67"/>
</g>
<!-- sklearn.cluster -->
<g id="node26" class="node">
<title>sklearn.cluster</title>
<ellipse fill="none" stroke="black" cx="5167.15" cy="-378" rx="64.66" ry="18"/>
<text text-anchor="middle" x="5167.15" y="-372.95" font-family="Times,serif" font-size="14.00">sklearn.cluster</text>
</g>
<!-- sklearn.cluster&#45;&gt;amilib.ami_nlp -->
<g id="edge32" class="edge">
<title>sklearn.cluster&#45;&gt;amilib.ami_nlp</title>
<path fill="none" stroke="black" d="M5143.52,-360.94C5129.88,-351.67 5112.5,-339.86 5097.49,-329.66"/>
<polygon fill="black" stroke="black" points="5099.51,-326.8 5089.28,-324.08 5095.58,-332.59 5099.51,-326.8"/>
</g>
<!-- matplotlib.pyplot -->
<g id="node27" class="node">
<title>matplotlib.pyplot</title>
<ellipse fill="none" stroke="black" cx="5325.15" cy="-378" rx="75.41" ry="18"/>
<text text-anchor="middle" x="5325.15" y="-372.95" font-family="Times,serif" font-size="14.00">matplotlib.pyplot</text>
</g>
<!-- matplotlib.pyplot&#45;&gt;amilib.ami_nlp -->
<g id="edge33" class="edge">
<title>matplotlib.pyplot&#45;&gt;amilib.ami_nlp</title>
<path fill="none" stroke="black" d="M5276.36,-363.92C5232.61,-352.18 5168.35,-334.95 5122.01,-322.52"/>
<polygon fill="black" stroke="black" points="5122.97,-319.15 5112.4,-319.94 5121.15,-325.91 5122.97,-319.15"/>
</g>
<!-- pyamihtml.ami_pdf -->
<g id="node29" class="node">
<title>pyamihtml.ami_pdf</title>
<ellipse fill="none" stroke="black" cx="2398.15" cy="-162" rx="85.64" ry="18"/>
<text text-anchor="middle" x="2398.15" y="-156.95" font-family="Times,serif" font-size="14.00">pyamihtml.ami_pdf</text>
</g>
<!-- pyamihtml.ami_pdf&#45;&gt;amilib.html_generator -->
<g id="edge36" class="edge">
<title>pyamihtml.ami_pdf&#45;&gt;amilib.html_generator</title>
<path fill="none" stroke="black" d="M2335.07,-149.44C2268.89,-137.31 2164.79,-118.24 2093.65,-105.2"/>
<polygon fill="black" stroke="black" points="2094.49,-101.8 2084.02,-103.44 2093.22,-108.68 2094.49,-101.8"/>
</g>
<!-- amilib.ami_svg&#45;&gt;amilib.ami_pdf_libs -->
<g id="edge46" class="edge">
<title>amilib.ami_svg&#45;&gt;amilib.ami_pdf_libs</title>
<path fill="none" stroke="black" d="M878.12,-221.25C887.72,-219.28 897.71,-217.42 907.15,-216 1090.19,-188.54 1306.13,-174.03 1427.6,-167.48"/>
<polygon fill="black" stroke="black" points="1427.75,-170.98 1437.55,-166.95 1427.38,-163.99 1427.75,-170.98"/>
</g>
<!-- pdfplumber.page -->
<g id="node31" class="node">
<title>pdfplumber.page</title>
<ellipse fill="none" stroke="black" cx="2258.15" cy="-234" rx="73.87" ry="18"/>
<text text-anchor="middle" x="2258.15" y="-228.95" font-family="Times,serif" font-size="14.00">pdfplumber.page</text>
</g>
<!-- pdfplumber.page&#45;&gt;amilib.ami_pdf_libs -->
<g id="edge45" class="edge">
<title>pdfplumber.page&#45;&gt;amilib.ami_pdf_libs</title>
<path fill="none" stroke="black" d="M2205.18,-221.16C2195.24,-219.22 2184.9,-217.39 2175.15,-216 1978.43,-187.96 1746.04,-173.49 1618.64,-167.14"/>
<polygon fill="black" stroke="black" points="1619.06,-163.66 1608.9,-166.66 1618.72,-170.65 1619.06,-163.66"/>
</g>
<!-- pdfminer.image -->
<g id="node32" class="node">
<title>pdfminer.image</title>
<ellipse fill="none" stroke="black" cx="1178.15" cy="-234" rx="70.29" ry="18"/>
<text text-anchor="middle" x="1178.15" y="-228.95" font-family="Times,serif" font-size="14.00">pdfminer.image</text>
</g>
<!-- pdfminer.image&#45;&gt;amilib.ami_pdf_libs -->
<g id="edge47" class="edge">
<title>pdfminer.image&#45;&gt;amilib.ami_pdf_libs</title>
<path fill="none" stroke="black" d="M1230.39,-221.64C1239.31,-219.73 1248.49,-217.79 1257.15,-216 1322.47,-202.46 1396.96,-187.68 1450.46,-177.17"/>
<polygon fill="black" stroke="black" points="1450.93,-180.65 1460.06,-175.29 1449.58,-173.78 1450.93,-180.65"/>
</g>
<!-- pdfminer.pdfinterp -->
<g id="node33" class="node">
<title>pdfminer.pdfinterp</title>
<ellipse fill="none" stroke="black" cx="1347.15" cy="-234" rx="81.04" ry="18"/>
<text text-anchor="middle" x="1347.15" y="-228.95" font-family="Times,serif" font-size="14.00">pdfminer.pdfinterp</text>
</g>
<!-- pdfminer.pdfinterp&#45;&gt;amilib.ami_pdf_libs -->
<g id="edge48" class="edge">
<title>pdfminer.pdfinterp&#45;&gt;amilib.ami_pdf_libs</title>
<path fill="none" stroke="black" d="M1385.34,-217.81C1411.25,-207.51 1445.74,-193.79 1473.74,-182.65"/>
<polygon fill="black" stroke="black" points="1474.72,-186.03 1482.71,-179.08 1472.13,-179.53 1474.72,-186.03"/>
</g>
<!-- pdfminer.pdfpage -->
<g id="node34" class="node">
<title>pdfminer.pdfpage</title>
<ellipse fill="none" stroke="black" cx="1523.15" cy="-234" rx="76.94" ry="18"/>
<text text-anchor="middle" x="1523.15" y="-228.95" font-family="Times,serif" font-size="14.00">pdfminer.pdfpage</text>
</g>
<!-- pdfminer.pdfpage&#45;&gt;amilib.ami_pdf_libs -->
<g id="edge49" class="edge">
<title>pdfminer.pdfpage&#45;&gt;amilib.ami_pdf_libs</title>
<path fill="none" stroke="black" d="M1523.15,-215.7C1523.15,-208.41 1523.15,-199.73 1523.15,-191.54"/>
<polygon fill="black" stroke="black" points="1526.65,-191.62 1523.15,-181.62 1519.65,-191.62 1526.65,-191.62"/>
</g>
<!-- lxml.builder -->
<g id="node35" class="node">
<title>lxml.builder</title>
<ellipse fill="none" stroke="black" cx="1675.15" cy="-234" rx="56.98" ry="18"/>
<text text-anchor="middle" x="1675.15" y="-228.95" font-family="Times,serif" font-size="14.00">lxml.builder</text>
</g>
<!-- lxml.builder&#45;&gt;amilib.ami_pdf_libs -->
<g id="edge50" class="edge">
<title>lxml.builder&#45;&gt;amilib.ami_pdf_libs</title>
<path fill="none" stroke="black" d="M1644.02,-218.67C1622.06,-208.55 1592.3,-194.85 1567.81,-183.57"/>
<polygon fill="black" stroke="black" points="1569.6,-180.54 1559.05,-179.54 1566.67,-186.9 1569.6,-180.54"/>
</g>
<!-- os.path -->
<g id="node36" class="node">
<title>os.path</title>
<ellipse fill="none" stroke="black" cx="1788.15" cy="-234" rx="37.53" ry="18"/>
<text text-anchor="middle" x="1788.15" y="-228.95" font-family="Times,serif" font-size="14.00">os.path</text>
</g>
<!-- os.path&#45;&gt;amilib.ami_pdf_libs -->
<g id="edge54" class="edge">
<title>os.path&#45;&gt;amilib.ami_pdf_libs</title>
<path fill="none" stroke="black" d="M1759.48,-222.07C1753.46,-219.94 1747.13,-217.8 1741.15,-216 1692.37,-201.3 1636.52,-187.78 1593.56,-178.08"/>
<polygon fill="black" stroke="black" points="1594.37,-174.67 1583.84,-175.9 1592.84,-181.5 1594.37,-174.67"/>
</g>
<!-- pdfminer.converter -->
<g id="node37" class="node">
<title>pdfminer.converter</title>
<ellipse fill="none" stroke="black" cx="1926.15" cy="-234" rx="82.06" ry="18"/>
<text text-anchor="middle" x="1926.15" y="-228.95" font-family="Times,serif" font-size="14.00">pdfminer.converter</text>
</g>
<!-- pdfminer.converter&#45;&gt;amilib.ami_pdf_libs -->
<g id="edge55" class="edge">
<title>pdfminer.converter&#45;&gt;amilib.ami_pdf_libs</title>
<path fill="none" stroke="black" d="M1865.48,-221.52C1855.35,-219.65 1844.96,-217.75 1835.15,-216 1755.29,-201.76 1663.78,-186.32 1600.61,-175.8"/>
<polygon fill="black" stroke="black" points="1601.48,-172.39 1591.04,-174.2 1600.33,-179.3 1601.48,-172.39"/>
</g>
<!-- amilib.bbox -->
<g id="node38" class="node">
<title>amilib.bbox</title>
<ellipse fill="none" stroke="black" cx="777.15" cy="-306" rx="55.96" ry="18"/>
<text text-anchor="middle" x="777.15" y="-300.95" font-family="Times,serif" font-size="14.00">amilib.bbox</text>
</g>
<!-- amilib.bbox&#45;&gt;amilib.ami_html -->
<g id="edge64" class="edge">
<title>amilib.bbox&#45;&gt;amilib.ami_html</title>
<path fill="none" stroke="black" d="M735.05,-293.75C691.57,-282.14 623.35,-263.91 574.43,-250.84"/>
<polygon fill="black" stroke="black" points="575.39,-247.47 564.83,-248.27 573.58,-254.24 575.39,-247.47"/>
</g>
<!-- amilib.bbox&#45;&gt;amilib.ami_pdf_libs -->
<g id="edge56" class="edge">
<title>amilib.bbox&#45;&gt;amilib.ami_pdf_libs</title>
<path fill="none" stroke="black" d="M763.46,-288.06C749.26,-268.34 731.52,-235.94 750.15,-216 795.26,-167.69 1226.81,-162.32 1424.77,-162.43"/>
<polygon fill="black" stroke="black" points="1424.52,-165.93 1434.52,-162.44 1424.53,-158.93 1424.52,-165.93"/>
</g>
<!-- pdfminer.layout -->
<g id="node39" class="node">
<title>pdfminer.layout</title>
<ellipse fill="none" stroke="black" cx="2096.15" cy="-234" rx="70.29" ry="18"/>
<text text-anchor="middle" x="2096.15" y="-228.95" font-family="Times,serif" font-size="14.00">pdfminer.layout</text>
</g>
<!-- pdfminer.layout&#45;&gt;amilib.ami_pdf_libs -->
<g id="edge57" class="edge">
<title>pdfminer.layout&#45;&gt;amilib.ami_pdf_libs</title>
<path fill="none" stroke="black" d="M2045.3,-221.24C2035.97,-219.31 2026.29,-217.47 2017.15,-216 1877.54,-193.55 1714.16,-178.12 1614.7,-169.92"/>
<polygon fill="black" stroke="black" points="1615.25,-166.46 1605,-169.13 1614.68,-173.43 1615.25,-166.46"/>
</g>
<!-- lxml.html -->
<g id="node40" class="node">
<title>lxml.html</title>
<ellipse fill="none" stroke="black" cx="155.15" cy="-378" rx="48.28" ry="18"/>
<text text-anchor="middle" x="155.15" y="-372.95" font-family="Times,serif" font-size="14.00">lxml.html</text>
</g>
<!-- lxml.html&#45;&gt;amilib.ami_html -->
<g id="edge69" class="edge">
<title>lxml.html&#45;&gt;amilib.ami_html</title>
<path fill="none" stroke="black" d="M161.19,-359.83C169.37,-339.25 186.03,-305.38 212.15,-288 247.8,-264.28 357.68,-249.48 434.81,-241.73"/>
<polygon fill="black" stroke="black" points="434.82,-245.25 444.43,-240.79 434.13,-238.28 434.82,-245.25"/>
</g>
<!-- lxml.html&#45;&gt;amilib.ami_pdf_libs -->
<g id="edge60" class="edge">
<title>lxml.html&#45;&gt;amilib.ami_pdf_libs</title>
<path fill="none" stroke="black" d="M154.34,-359.51C154.42,-339.57 157.69,-307.26 176.15,-288 257.93,-202.67 315.49,-234.99 432.15,-216 621.85,-185.12 1195.15,-169.91 1425.64,-164.92"/>
<polygon fill="black" stroke="black" points="1425.58,-168.42 1435.5,-164.71 1425.43,-161.42 1425.58,-168.42"/>
</g>
<!-- lxml.html&#45;&gt;amilib.xml_lib -->
<g id="edge63" class="edge">
<title>lxml.html&#45;&gt;amilib.xml_lib</title>
<path fill="none" stroke="black" d="M182.38,-362.67C201.45,-352.63 227.24,-339.06 248.57,-327.83"/>
<polygon fill="black" stroke="black" points="250.08,-330.99 257.3,-323.24 246.82,-324.8 250.08,-330.99"/>
</g>
<!-- lxml.html&#45;&gt;amilib.headless_lib -->
<g id="edge75" class="edge">
<title>lxml.html&#45;&gt;amilib.headless_lib</title>
<path fill="none" stroke="black" d="M119.25,-365.8C99.52,-357.61 76.76,-344.31 65.15,-324 25.45,-254.55 43.16,-220.92 65.15,-144 67.82,-134.66 72.66,-125.37 77.83,-117.24"/>
<polygon fill="black" stroke="black" points="80.56,-119.44 83.31,-109.21 74.78,-115.49 80.56,-119.44"/>
</g>
<!-- sklearn.linear_model -->
<g id="node41" class="node">
<title>sklearn.linear_model</title>
<ellipse fill="none" stroke="black" cx="500.15" cy="-306" rx="89.23" ry="18"/>
<text text-anchor="middle" x="500.15" y="-300.95" font-family="Times,serif" font-size="14.00">sklearn.linear_model</text>
</g>
<!-- sklearn.linear_model&#45;&gt;amilib.ami_html -->
<g id="edge68" class="edge">
<title>sklearn.linear_model&#45;&gt;amilib.ami_html</title>
<path fill="none" stroke="black" d="M503.86,-287.7C505.44,-280.32 507.32,-271.52 509.09,-263.25"/>
<polygon fill="black" stroke="black" points="512.49,-264.1 511.17,-253.58 505.65,-262.63 512.49,-264.1"/>
</g>
<!-- amilib.ami_util -->
<g id="node43" class="node">
<title>amilib.ami_util</title>
<ellipse fill="none" stroke="black" cx="777.15" cy="-378" rx="68.75" ry="18"/>
<text text-anchor="middle" x="777.15" y="-372.95" font-family="Times,serif" font-size="14.00">amilib.ami_util</text>
</g>
<!-- amilib.ami_util&#45;&gt;amilib.bbox -->
<g id="edge82" class="edge">
<title>amilib.ami_util&#45;&gt;amilib.bbox</title>
<path fill="none" stroke="black" d="M777.15,-359.7C777.15,-352.41 777.15,-343.73 777.15,-335.54"/>
<polygon fill="black" stroke="black" points="780.65,-335.62 777.15,-325.62 773.65,-335.62 780.65,-335.62"/>
</g>
</g>
</svg>
