<?xml version="1.0" encoding="UTF-8" standalone="no"?>
<!DOCTYPE svg PUBLIC "-//W3C//DTD SVG 1.1//EN"
 "http://www.w3.org/Graphics/SVG/1.1/DTD/svg11.dtd">
<!-- Generated by graphviz version 13.1.0 (20250701.0955)
 -->
<!-- Title: EncyclopediaClustering Pages: 1 -->
<svg width="935pt" height="728pt"
 viewBox="0.00 0.00 935.00 728.00" xmlns="http://www.w3.org/2000/svg" xmlns:xlink="http://www.w3.org/1999/xlink">
<g id="graph0" class="graph" transform="scale(1 1) rotate(0) translate(4 723.61)">
<title>EncyclopediaClustering</title>
<polygon fill="white" stroke="none" points="-4,4 -4,-723.61 930.5,-723.61 930.5,4 -4,4"/>
<text xml:space="preserve" text-anchor="middle" x="463.25" y="-696.61" font-family="Helvetica,sans-Serif" font-size="20.00" fill="blue">Encyclopedia Entry Clustering Workflow</text>
<text xml:space="preserve" text-anchor="middle" x="463.25" y="-675.61" font-family="Helvetica,sans-Serif" font-size="20.00" fill="blue">Based on Description Text Similarity</text>
<g id="clust1" class="cluster">
<title>cluster_preprocessing</title>
<polygon fill="none" stroke="black" stroke-dasharray="5,2" points="602,-362 602,-661.61 738,-661.61 738,-362 602,-362"/>
<text xml:space="preserve" text-anchor="middle" x="670" y="-367.35" font-family="Helvetica,sans-Serif" font-size="12.00" fill="blue">Text Preprocessing</text>
</g>
<g id="clust2" class="cluster">
<title>cluster_clustering</title>
<polygon fill="none" stroke="black" stroke-dasharray="5,2" points="505,-8 505,-244.25 623,-244.25 623,-8 505,-8"/>
<text xml:space="preserve" text-anchor="middle" x="564" y="-13.35" font-family="Helvetica,sans-Serif" font-size="12.00" fill="blue">Clustering Pipeline</text>
</g>
<!-- AmiEncyclopedia -->
<g id="node1" class="node">
<title>AmiEncyclopedia</title>
<polygon fill="lightblue" stroke="black" points="594.25,-544.43 447.75,-544.43 447.75,-508.43 594.25,-508.43 594.25,-544.43"/>
<text xml:space="preserve" text-anchor="middle" x="521" y="-528.18" font-family="Helvetica,sans-Serif" font-size="10.00">AmiEncyclopedia</text>
<text xml:space="preserve" text-anchor="middle" x="521" y="-516.93" font-family="Helvetica,sans-Serif" font-size="10.00">(entries with description_html)</text>
</g>
<!-- Clusterer -->
<g id="node4" class="node">
<title>Clusterer</title>
<polygon fill="cyan" stroke="black" points="402.13,-435.25 257.88,-435.25 257.88,-382.25 402.13,-382.25 402.13,-435.25"/>
<text xml:space="preserve" text-anchor="middle" x="330" y="-421.75" font-family="Helvetica,sans-Serif" font-size="10.00">AmiEncyclopediaClusterer</text>
<text xml:space="preserve" text-anchor="middle" x="330" y="-410.5" font-family="Helvetica,sans-Serif" font-size="10.00">&#45; cluster_entries()</text>
<text xml:space="preserve" text-anchor="middle" x="330" y="-399.25" font-family="Helvetica,sans-Serif" font-size="10.00">&#45; assign_clusters_to_entries()</text>
<text xml:space="preserve" text-anchor="middle" x="330" y="-388" font-family="Helvetica,sans-Serif" font-size="10.00">&#45; get_cluster_statistics()</text>
</g>
<!-- AmiEncyclopedia&#45;&gt;Clusterer -->
<g id="edge1" class="edge">
<title>AmiEncyclopedia&#45;&gt;Clusterer</title>
<path fill="none" stroke="black" d="M492.41,-508.11C463.39,-490.54 417.83,-462.94 382.33,-441.44"/>
<polygon fill="black" stroke="black" points="384.27,-438.53 373.91,-436.34 380.65,-444.51 384.27,-438.53"/>
<text xml:space="preserve" text-anchor="middle" x="424.19" y="-454.45" font-family="Helvetica,sans-Serif" font-size="9.00">Input</text>
</g>
<!-- ClusteredEncyclopedia -->
<g id="node2" class="node">
<title>ClusteredEncyclopedia</title>
<polygon fill="lightgreen" stroke="black" points="159.63,-544.43 42.38,-544.43 42.38,-508.43 159.63,-508.43 159.63,-544.43"/>
<text xml:space="preserve" text-anchor="middle" x="101" y="-528.18" font-family="Helvetica,sans-Serif" font-size="10.00">AmiEncyclopedia</text>
<text xml:space="preserve" text-anchor="middle" x="101" y="-516.93" font-family="Helvetica,sans-Serif" font-size="10.00">(entries with cluster_id)</text>
</g>
<!-- ClusterReport -->
<g id="node3" class="node">
<title>ClusterReport</title>
<polygon fill="lightyellow" stroke="black" points="257.88,-544.43 178.13,-544.43 178.13,-508.43 257.88,-508.43 257.88,-544.43"/>
<text xml:space="preserve" text-anchor="middle" x="218" y="-528.18" font-family="Helvetica,sans-Serif" font-size="10.00">Cluster Report</text>
<text xml:space="preserve" text-anchor="middle" x="218" y="-516.93" font-family="Helvetica,sans-Serif" font-size="10.00">(HTML/JSON)</text>
</g>
<!-- Clusterer&#45;&gt;ClusteredEncyclopedia -->
<g id="edge8" class="edge">
<title>Clusterer&#45;&gt;ClusteredEncyclopedia</title>
<path fill="none" stroke="black" d="M257.66,-432.82C254.74,-433.65 251.85,-434.47 249,-435.25 215.32,-444.5 202.97,-436.18 172.5,-453.25 152.05,-464.71 133.56,-483.73 120.51,-499.36"/>
<polygon fill="black" stroke="black" points="117.97,-496.93 114.43,-506.92 123.42,-501.32 117.97,-496.93"/>
<text xml:space="preserve" text-anchor="middle" x="209.25" y="-454.45" font-family="Helvetica,sans-Serif" font-size="9.00">6. Assign Clusters</text>
</g>
<!-- Clusterer&#45;&gt;ClusterReport -->
<g id="edge9" class="edge">
<title>Clusterer&#45;&gt;ClusterReport</title>
<path fill="none" stroke="black" d="M278.3,-435.71C270.64,-440.88 263.23,-446.75 257,-453.25 244.83,-465.95 235.32,-483.2 228.74,-497.65"/>
<polygon fill="black" stroke="black" points="225.61,-496.07 224.88,-506.64 232.04,-498.83 225.61,-496.07"/>
<text xml:space="preserve" text-anchor="middle" x="296" y="-454.45" font-family="Helvetica,sans-Serif" font-size="9.00">7. Generate Report</text>
</g>
<!-- TextExtractor -->
<g id="node5" class="node">
<title>TextExtractor</title>
<polygon fill="lightpink" stroke="black" points="264.88,-326.25 167.13,-326.25 167.13,-273.25 264.88,-273.25 264.88,-326.25"/>
<text xml:space="preserve" text-anchor="middle" x="216" y="-312.75" font-family="Helvetica,sans-Serif" font-size="10.00">TextExtractor</text>
<text xml:space="preserve" text-anchor="middle" x="216" y="-301.5" font-family="Helvetica,sans-Serif" font-size="10.00">&#45; extract_text()</text>
<text xml:space="preserve" text-anchor="middle" x="216" y="-290.25" font-family="Helvetica,sans-Serif" font-size="10.00">&#45; preprocess_text()</text>
<text xml:space="preserve" text-anchor="middle" x="216" y="-279" font-family="Helvetica,sans-Serif" font-size="10.00">&#45; batch_extract()</text>
</g>
<!-- Clusterer&#45;&gt;TextExtractor -->
<g id="edge3" class="edge">
<title>Clusterer&#45;&gt;TextExtractor</title>
<path fill="none" stroke="black" d="M302.41,-381.85C287.14,-367.52 268.01,-349.56 251.62,-334.19"/>
<polygon fill="black" stroke="black" points="254.13,-331.74 244.45,-327.45 249.34,-336.84 254.13,-331.74"/>
<text xml:space="preserve" text-anchor="middle" x="314.96" y="-345.45" font-family="Helvetica,sans-Serif" font-size="9.00">1. Extract Descriptions</text>
</g>
<!-- EmbeddingGen -->
<g id="node6" class="node">
<title>EmbeddingGen</title>
<polygon fill="lightyellow" stroke="black" points="457.75,-320.62 332.25,-320.62 332.25,-278.88 457.75,-278.88 457.75,-320.62"/>
<text xml:space="preserve" text-anchor="middle" x="395" y="-307.12" font-family="Helvetica,sans-Serif" font-size="10.00">EmbeddingGenerator</text>
<text xml:space="preserve" text-anchor="middle" x="395" y="-295.88" font-family="Helvetica,sans-Serif" font-size="10.00">&#45; generate_embeddings()</text>
<text xml:space="preserve" text-anchor="middle" x="395" y="-284.62" font-family="Helvetica,sans-Serif" font-size="10.00">&#45; Model: all&#45;MiniLM&#45;L6&#45;v2</text>
</g>
<!-- TextExtractor&#45;&gt;EmbeddingGen -->
<g id="edge4" class="edge">
<title>TextExtractor&#45;&gt;EmbeddingGen</title>
<path fill="none" stroke="black" d="M264.91,-299.75C282.14,-299.75 301.91,-299.75 320.75,-299.75"/>
<polygon fill="black" stroke="black" points="320.51,-303.25 330.51,-299.75 320.51,-296.25 320.51,-303.25"/>
<text xml:space="preserve" text-anchor="middle" x="298.56" y="-303.95" font-family="Helvetica,sans-Serif" font-size="9.00">2. Plain Text</text>
</g>
<!-- HTMLText -->
<g id="node10" class="node">
<title>HTMLText</title>
<polygon fill="lightgray" stroke="black" points="704.63,-653.61 611.38,-653.61 611.38,-617.61 704.63,-617.61 704.63,-653.61"/>
<text xml:space="preserve" text-anchor="middle" x="658" y="-637.36" font-family="Helvetica,sans-Serif" font-size="10.00">HTML Text</text>
<text xml:space="preserve" text-anchor="middle" x="658" y="-626.11" font-family="Helvetica,sans-Serif" font-size="10.00">(description_html)</text>
</g>
<!-- TextExtractor&#45;&gt;HTMLText -->
<g id="edge12" class="edge">
<title>TextExtractor&#45;&gt;HTMLText</title>
<path fill="none" stroke="black" stroke-dasharray="5,2" d="M166.81,-310.42C135.42,-318.99 96.06,-334.56 71,-362 7.08,-431.99 -30.59,-501.57 33,-571.86 70.66,-613.49 452,-628.75 599.86,-633.13"/>
<polygon fill="black" stroke="black" points="599.32,-636.61 609.41,-633.4 599.52,-629.61 599.32,-636.61"/>
</g>
<!-- ClusterAlgo -->
<g id="node7" class="node">
<title>ClusterAlgo</title>
<polygon fill="orange" stroke="black" points="706.5,-326.25 537.5,-326.25 537.5,-273.25 706.5,-273.25 706.5,-326.25"/>
<text xml:space="preserve" text-anchor="middle" x="622" y="-312.75" font-family="Helvetica,sans-Serif" font-size="10.00">ClusterAlgorithm</text>
<text xml:space="preserve" text-anchor="middle" x="622" y="-301.5" font-family="Helvetica,sans-Serif" font-size="10.00">(KMeans/Agglomerative/DBSCAN)</text>
<text xml:space="preserve" text-anchor="middle" x="622" y="-290.25" font-family="Helvetica,sans-Serif" font-size="10.00">&#45; fit()</text>
<text xml:space="preserve" text-anchor="middle" x="622" y="-279" font-family="Helvetica,sans-Serif" font-size="10.00">&#45; predict()</text>
</g>
<!-- EmbeddingGen&#45;&gt;ClusterAlgo -->
<g id="edge5" class="edge">
<title>EmbeddingGen&#45;&gt;ClusterAlgo</title>
<path fill="none" stroke="black" d="M458.23,-299.75C479.11,-299.75 502.82,-299.75 525.6,-299.75"/>
<polygon fill="black" stroke="black" points="525.53,-303.25 535.53,-299.75 525.53,-296.25 525.53,-303.25"/>
<text xml:space="preserve" text-anchor="middle" x="497.63" y="-303.95" font-family="Helvetica,sans-Serif" font-size="9.00">3. Embeddings</text>
</g>
<!-- Embeddings -->
<g id="node13" class="node">
<title>Embeddings</title>
<polygon fill="lightgray" stroke="black" points="589,-236.25 513,-236.25 513,-200.25 589,-200.25 589,-236.25"/>
<text xml:space="preserve" text-anchor="middle" x="551" y="-220" font-family="Helvetica,sans-Serif" font-size="10.00">Embeddings</text>
<text xml:space="preserve" text-anchor="middle" x="551" y="-208.75" font-family="Helvetica,sans-Serif" font-size="10.00">(numpy array)</text>
</g>
<!-- EmbeddingGen&#45;&gt;Embeddings -->
<g id="edge16" class="edge">
<title>EmbeddingGen&#45;&gt;Embeddings</title>
<path fill="none" stroke="black" stroke-dasharray="5,2" d="M434.77,-278.48C456.77,-267.27 484.15,-253.32 506.82,-241.77"/>
<polygon fill="black" stroke="black" points="508.19,-244.99 515.51,-237.34 505.02,-238.76 508.19,-244.99"/>
</g>
<!-- Evaluator -->
<g id="node8" class="node">
<title>Evaluator</title>
<polygon fill="wheat" stroke="black" points="926.5,-326.25 793.5,-326.25 793.5,-273.25 926.5,-273.25 926.5,-326.25"/>
<text xml:space="preserve" text-anchor="middle" x="860" y="-312.75" font-family="Helvetica,sans-Serif" font-size="10.00">ClusterEvaluator</text>
<text xml:space="preserve" text-anchor="middle" x="860" y="-301.5" font-family="Helvetica,sans-Serif" font-size="10.00">&#45; evaluate()</text>
<text xml:space="preserve" text-anchor="middle" x="860" y="-290.25" font-family="Helvetica,sans-Serif" font-size="10.00">&#45; silhouette_score()</text>
<text xml:space="preserve" text-anchor="middle" x="860" y="-279" font-family="Helvetica,sans-Serif" font-size="10.00">&#45; cluster_size_distribution()</text>
</g>
<!-- ClusterAlgo&#45;&gt;Evaluator -->
<g id="edge6" class="edge">
<title>ClusterAlgo&#45;&gt;Evaluator</title>
<path fill="none" stroke="black" d="M706.92,-299.75C731.35,-299.75 757.87,-299.75 781.88,-299.75"/>
<polygon fill="black" stroke="black" points="781.56,-303.25 791.56,-299.75 781.56,-296.25 781.56,-303.25"/>
<text xml:space="preserve" text-anchor="middle" x="750" y="-303.95" font-family="Helvetica,sans-Serif" font-size="9.00">4. Cluster Labels</text>
</g>
<!-- ClusterLabels -->
<g id="node14" class="node">
<title>ClusterLabels</title>
<polygon fill="lightgray" stroke="black" points="608.5,-154.5 529.5,-154.5 529.5,-118.5 608.5,-118.5 608.5,-154.5"/>
<text xml:space="preserve" text-anchor="middle" x="569" y="-138.25" font-family="Helvetica,sans-Serif" font-size="10.00">Cluster Labels</text>
<text xml:space="preserve" text-anchor="middle" x="569" y="-127" font-family="Helvetica,sans-Serif" font-size="10.00">(numpy array)</text>
</g>
<!-- ClusterAlgo&#45;&gt;ClusterLabels -->
<g id="edge17" class="edge">
<title>ClusterAlgo&#45;&gt;ClusterLabels</title>
<path fill="none" stroke="black" stroke-dasharray="5,2" d="M624.33,-273.04C625.6,-246.39 624.34,-204.27 608,-172.5 606.3,-169.18 604.14,-166.03 601.71,-163.08"/>
<polygon fill="black" stroke="black" points="604.32,-160.74 594.88,-155.93 599.26,-165.57 604.32,-160.74"/>
</g>
<!-- Evaluator&#45;&gt;Clusterer -->
<g id="edge7" class="edge">
<title>Evaluator&#45;&gt;Clusterer</title>
<path fill="none" stroke="black" d="M793.1,-313.44C768.86,-317.81 741.25,-322.54 716,-326.25 580.97,-346.1 540.75,-319.66 411,-362 399.95,-365.61 388.71,-370.8 378.25,-376.41"/>
<polygon fill="black" stroke="black" points="376.84,-373.19 369.83,-381.13 380.26,-379.3 376.84,-373.19"/>
<text xml:space="preserve" text-anchor="middle" x="492.94" y="-345.45" font-family="Helvetica,sans-Serif" font-size="9.00">5. Metrics</text>
</g>
<!-- ClusterStats -->
<g id="node15" class="node">
<title>ClusterStats</title>
<polygon fill="lightgray" stroke="black" points="614.88,-72.75 523.13,-72.75 523.13,-36.75 614.88,-36.75 614.88,-72.75"/>
<text xml:space="preserve" text-anchor="middle" x="569" y="-56.5" font-family="Helvetica,sans-Serif" font-size="10.00">Cluster Statistics</text>
<text xml:space="preserve" text-anchor="middle" x="569" y="-45.25" font-family="Helvetica,sans-Serif" font-size="10.00">(sizes, metrics)</text>
</g>
<!-- Evaluator&#45;&gt;ClusterStats -->
<g id="edge18" class="edge">
<title>Evaluator&#45;&gt;ClusterStats</title>
<path fill="none" stroke="black" stroke-dasharray="5,2" d="M830.41,-273.06C784.54,-233.38 693.27,-155.05 614,-90.75 609.71,-87.27 605.15,-83.64 600.65,-80.1"/>
<polygon fill="black" stroke="black" points="602.8,-77.34 592.77,-73.95 598.5,-82.86 602.8,-77.34"/>
</g>
<!-- Config -->
<g id="node9" class="node">
<title>Config</title>
<ellipse fill="lavender" stroke="black" cx="353" cy="-526.43" rx="77.07" ry="45.43"/>
<text xml:space="preserve" text-anchor="middle" x="353" y="-545.06" font-family="Helvetica,sans-Serif" font-size="10.00">ClusterConfig</text>
<text xml:space="preserve" text-anchor="middle" x="353" y="-533.81" font-family="Helvetica,sans-Serif" font-size="10.00">&#45; method</text>
<text xml:space="preserve" text-anchor="middle" x="353" y="-522.56" font-family="Helvetica,sans-Serif" font-size="10.00">&#45; n_clusters</text>
<text xml:space="preserve" text-anchor="middle" x="353" y="-511.31" font-family="Helvetica,sans-Serif" font-size="10.00">&#45; embedding_model</text>
<text xml:space="preserve" text-anchor="middle" x="353" y="-500.06" font-family="Helvetica,sans-Serif" font-size="10.00">&#45; clustering_algorithm</text>
</g>
<!-- Config&#45;&gt;Clusterer -->
<g id="edge2" class="edge">
<title>Config&#45;&gt;Clusterer</title>
<path fill="none" stroke="black" d="M344.18,-481.04C341.9,-469.59 339.48,-457.41 337.29,-446.4"/>
<polygon fill="black" stroke="black" points="340.79,-446.06 335.41,-436.93 333.92,-447.43 340.79,-446.06"/>
<text xml:space="preserve" text-anchor="middle" x="367.87" y="-454.45" font-family="Helvetica,sans-Serif" font-size="9.00">Configuration</text>
</g>
<!-- PlainText -->
<g id="node11" class="node">
<title>PlainText</title>
<polygon fill="lightgray" stroke="black" points="697.13,-544.43 618.88,-544.43 618.88,-508.43 697.13,-508.43 697.13,-544.43"/>
<text xml:space="preserve" text-anchor="middle" x="658" y="-528.18" font-family="Helvetica,sans-Serif" font-size="10.00">Plain Text</text>
<text xml:space="preserve" text-anchor="middle" x="658" y="-516.93" font-family="Helvetica,sans-Serif" font-size="10.00">(stripped tags)</text>
</g>
<!-- HTMLText&#45;&gt;PlainText -->
<g id="edge10" class="edge">
<title>HTMLText&#45;&gt;PlainText</title>
<path fill="none" stroke="black" d="M658,-617.39C658,-600.83 658,-575.49 658,-555.92"/>
<polygon fill="black" stroke="black" points="661.5,-556.12 658,-546.12 654.5,-556.12 661.5,-556.12"/>
<text xml:space="preserve" text-anchor="middle" x="692.13" y="-591.06" font-family="Helvetica,sans-Serif" font-size="9.00">strip_html_tags()</text>
</g>
<!-- PreprocessedText -->
<g id="node12" class="node">
<title>PreprocessedText</title>
<polygon fill="lightgray" stroke="black" points="729.75,-426.75 610.25,-426.75 610.25,-390.75 729.75,-390.75 729.75,-426.75"/>
<text xml:space="preserve" text-anchor="middle" x="670" y="-410.5" font-family="Helvetica,sans-Serif" font-size="10.00">Preprocessed Text</text>
<text xml:space="preserve" text-anchor="middle" x="670" y="-399.25" font-family="Helvetica,sans-Serif" font-size="10.00">(lowercase, normalized)</text>
</g>
<!-- PlainText&#45;&gt;PreprocessedText -->
<g id="edge11" class="edge">
<title>PlainText&#45;&gt;PreprocessedText</title>
<path fill="none" stroke="black" d="M659.8,-508.11C661.71,-489.71 664.76,-460.32 667.03,-438.45"/>
<polygon fill="black" stroke="black" points="670.49,-439 668.04,-428.69 663.52,-438.28 670.49,-439"/>
<text xml:space="preserve" text-anchor="middle" x="701.05" y="-454.45" font-family="Helvetica,sans-Serif" font-size="9.00">preprocess_text()</text>
</g>
<!-- PreprocessedText&#45;&gt;EmbeddingGen -->
<g id="edge13" class="edge">
<title>PreprocessedText&#45;&gt;EmbeddingGen</title>
<path fill="none" stroke="black" stroke-dasharray="5,2" d="M625.21,-390.32C579.74,-372.63 508.95,-345.09 457.88,-325.21"/>
<polygon fill="black" stroke="black" points="459.29,-322.01 448.7,-321.65 456.75,-328.53 459.29,-322.01"/>
</g>
<!-- Embeddings&#45;&gt;ClusterLabels -->
<g id="edge14" class="edge">
<title>Embeddings&#45;&gt;ClusterLabels</title>
<path fill="none" stroke="black" d="M549.54,-200.03C549.27,-191.62 549.6,-181.41 551.75,-172.5 552.35,-170.04 553.14,-167.55 554.05,-165.1"/>
<polygon fill="black" stroke="black" points="557.18,-166.67 558.03,-156.11 550.78,-163.84 557.18,-166.67"/>
<text xml:space="preserve" text-anchor="middle" x="579.88" y="-173.7" font-family="Helvetica,sans-Serif" font-size="9.00">fit() + predict()</text>
</g>
<!-- ClusterLabels&#45;&gt;ClusterStats -->
<g id="edge15" class="edge">
<title>ClusterLabels&#45;&gt;ClusterStats</title>
<path fill="none" stroke="black" d="M569,-118.2C569,-108.27 569,-95.56 569,-84.2"/>
<polygon fill="black" stroke="black" points="572.5,-84.53 569,-74.53 565.5,-84.53 572.5,-84.53"/>
<text xml:space="preserve" text-anchor="middle" x="589.63" y="-91.95" font-family="Helvetica,sans-Serif" font-size="9.00">evaluate()</text>
</g>
<!-- SentenceTransformers -->
<g id="node16" class="node">
<title>SentenceTransformers</title>
<ellipse fill="none" stroke="black" stroke-dasharray="5,2" cx="160" cy="-408.75" rx="80.26" ry="21.57"/>
<text xml:space="preserve" text-anchor="middle" x="160" y="-410.5" font-family="Helvetica,sans-Serif" font-size="10.00">sentence&#45;transformers</text>
<text xml:space="preserve" text-anchor="middle" x="160" y="-399.25" font-family="Helvetica,sans-Serif" font-size="10.00">library</text>
</g>
<!-- SentenceTransformers&#45;&gt;EmbeddingGen -->
<g id="edge19" class="edge">
<title>SentenceTransformers&#45;&gt;EmbeddingGen</title>
<path fill="none" stroke="gray" stroke-dasharray="5,2" d="M186.63,-387.95C205.95,-374.27 233.14,-356.42 259,-344.25 278.58,-335.03 300.63,-327.04 321.18,-320.51"/>
<polygon fill="gray" stroke="gray" points="322.12,-323.89 330.64,-317.59 320.05,-317.2 322.12,-323.89"/>
</g>
<!-- Sklearn -->
<g id="node17" class="node">
<title>Sklearn</title>
<ellipse fill="none" stroke="black" stroke-dasharray="5,2" cx="837" cy="-408.75" rx="44.72" ry="21.57"/>
<text xml:space="preserve" text-anchor="middle" x="837" y="-410.5" font-family="Helvetica,sans-Serif" font-size="10.00">scikit&#45;learn</text>
<text xml:space="preserve" text-anchor="middle" x="837" y="-399.25" font-family="Helvetica,sans-Serif" font-size="10.00">library</text>
</g>
<!-- Sklearn&#45;&gt;ClusterAlgo -->
<g id="edge20" class="edge">
<title>Sklearn&#45;&gt;ClusterAlgo</title>
<path fill="none" stroke="gray" stroke-dasharray="5,2" d="M806.65,-392.65C775.03,-376.91 724.57,-351.8 684.39,-331.8"/>
<polygon fill="gray" stroke="gray" points="686.02,-328.7 675.51,-327.38 682.9,-334.97 686.02,-328.7"/>
</g>
<!-- Sklearn&#45;&gt;Evaluator -->
<g id="edge21" class="edge">
<title>Sklearn&#45;&gt;Evaluator</title>
<path fill="none" stroke="gray" stroke-dasharray="5,2" d="M841.49,-386.87C844.51,-372.83 848.57,-353.96 852.11,-337.45"/>
<polygon fill="gray" stroke="gray" points="855.47,-338.49 854.15,-327.98 848.63,-337.02 855.47,-338.49"/>
</g>
<!-- Numpy -->
<g id="node18" class="node">
<title>Numpy</title>
<ellipse fill="none" stroke="black" stroke-dasharray="5,2" cx="452" cy="-408.75" rx="32" ry="21.57"/>
<text xml:space="preserve" text-anchor="middle" x="452" y="-410.5" font-family="Helvetica,sans-Serif" font-size="10.00">numpy</text>
<text xml:space="preserve" text-anchor="middle" x="452" y="-399.25" font-family="Helvetica,sans-Serif" font-size="10.00">library</text>
</g>
<!-- Numpy&#45;&gt;EmbeddingGen -->
<g id="edge22" class="edge">
<title>Numpy&#45;&gt;EmbeddingGen</title>
<path fill="none" stroke="gray" stroke-dasharray="5,2" d="M441.55,-388.12C433.02,-372.11 420.82,-349.22 411.06,-330.89"/>
<polygon fill="gray" stroke="gray" points="414.28,-329.49 406.49,-322.31 408.1,-332.79 414.28,-329.49"/>
</g>
</g>
</svg>
