<?xml version="1.0" encoding="UTF-8" standalone="no"?>
<!DOCTYPE svg PUBLIC "-//W3C//DTD SVG 1.1//EN"
 "http://www.w3.org/Graphics/SVG/1.1/DTD/svg11.dtd">
<!-- Generated by graphviz version 9.0.0 (20230911.1827)
 -->
<!-- Title: SemanticTools Pages: 1 -->
<svg width="856pt" height="235pt"
 viewBox="0.00 0.00 856.38 235.00" xmlns="http://www.w3.org/2000/svg" xmlns:xlink="http://www.w3.org/1999/xlink">
<g id="graph0" class="graph" transform="scale(1 1) rotate(0) translate(4 231)">
<title>SemanticTools</title>
<polygon fill="white" stroke="none" points="-4,4 -4,-231 852.38,-231 852.38,4 -4,4"/>
<!-- EPMC_search -->
<g id="node1" class="node">
<title>EPMC_search</title>
<polygon fill="lightyellow" stroke="black" points="403.12,-218.5 283.62,-218.5 283.62,-182.5 403.12,-182.5 403.12,-218.5"/>
<text text-anchor="middle" x="343.38" y="-194.7" font-family="Helvetica,sans-Serif" font-size="14.00">EPMC_search***</text>
</g>
<!-- open_science_corpus -->
<g id="node7" class="node">
<title>open_science_corpus</title>
<polygon fill="lightsalmon" stroke="black" points="413.62,-123 273.12,-123 273.12,-87 413.62,-87 413.62,-123"/>
<text text-anchor="middle" x="343.38" y="-99.2" font-family="Helvetica,sans-Serif" font-size="14.00">opensci_corpus *****</text>
</g>
<!-- EPMC_search&#45;&gt;open_science_corpus -->
<g id="edge6" class="edge">
<title>EPMC_search&#45;&gt;open_science_corpus</title>
<path fill="none" stroke="black" d="M343.38,-182.35C343.38,-168.99 343.38,-150.15 343.38,-134.53"/>
<polygon fill="black" stroke="black" points="346.88,-134.87 343.38,-124.87 339.88,-134.87 346.88,-134.87"/>
<text text-anchor="middle" x="382.38" y="-142.7" font-family="Helvetica,sans-Serif" font-size="14.00"> pygetpapers</text>
</g>
<!-- IPCC_website -->
<g id="node2" class="node">
<title>IPCC_website</title>
<polygon fill="lightyellow" stroke="black" points="106.75,-218.5 0,-218.5 0,-182.5 106.75,-182.5 106.75,-218.5"/>
<text text-anchor="middle" x="53.38" y="-194.7" font-family="Helvetica,sans-Serif" font-size="14.00">IPCC_website*</text>
</g>
<!-- UN_corpus -->
<g id="node5" class="node">
<title>UN_corpus</title>
<polygon fill="lightpink" stroke="black" points="237.75,-123 125,-123 125,-87 237.75,-87 237.75,-123"/>
<text text-anchor="middle" x="181.38" y="-99.2" font-family="Helvetica,sans-Serif" font-size="14.00">UN Corpus *****</text>
</g>
<!-- IPCC_website&#45;&gt;UN_corpus -->
<g id="edge7" class="edge">
<title>IPCC_website&#45;&gt;UN_corpus</title>
<path fill="none" stroke="black" d="M77.15,-182.13C97.27,-167.44 126.3,-146.23 148.62,-129.93"/>
<polygon fill="black" stroke="black" points="150.49,-132.89 156.5,-124.17 146.36,-127.24 150.49,-132.89"/>
<text text-anchor="middle" x="153.25" y="-142.7" font-family="Helvetica,sans-Serif" font-size="14.00"> amilib</text>
</g>
<!-- UNFCCC_website -->
<g id="node3" class="node">
<title>UNFCCC_website</title>
<polygon fill="lightyellow" stroke="black" points="256.12,-218.5 124.62,-218.5 124.62,-182.5 256.12,-182.5 256.12,-218.5"/>
<text text-anchor="middle" x="190.38" y="-194.7" font-family="Helvetica,sans-Serif" font-size="14.00">UNFCCC_website*</text>
</g>
<!-- UNFCCC_website&#45;&gt;UN_corpus -->
<g id="edge8" class="edge">
<title>UNFCCC_website&#45;&gt;UN_corpus</title>
<path fill="none" stroke="black" d="M188.72,-182.35C187.44,-168.99 185.63,-150.15 184.12,-134.53"/>
<polygon fill="black" stroke="black" points="187.63,-134.48 183.19,-124.86 180.67,-135.15 187.63,-134.48"/>
<text text-anchor="middle" x="206.25" y="-142.7" font-family="Helvetica,sans-Serif" font-size="14.00"> amilib</text>
</g>
<!-- Wikimedia -->
<g id="node4" class="node">
<title>Wikimedia</title>
<polygon fill="cyan" stroke="black" points="175.38,-36 69.38,-36 69.38,0 175.38,0 175.38,-36"/>
<text text-anchor="middle" x="122.38" y="-12.2" font-family="Helvetica,sans-Serif" font-size="14.00">Wikimedia*****</text>
</g>
<!-- dictionary -->
<g id="node6" class="node">
<title>dictionary</title>
<polygon fill="lightblue" stroke="black" points="314.25,-36 210.5,-36 210.5,0 314.25,0 314.25,-36"/>
<text text-anchor="middle" x="262.38" y="-12.2" font-family="Helvetica,sans-Serif" font-size="14.00">dictionary *****</text>
</g>
<!-- Wikimedia&#45;&gt;dictionary -->
<g id="edge5" class="edge">
<title>Wikimedia&#45;&gt;dictionary</title>
<path fill="none" stroke="black" d="M175.7,-18C183.43,-18 191.16,-18 198.9,-18"/>
<polygon fill="black" stroke="black" points="198.72,-21.5 208.72,-18 198.72,-14.5 198.72,-21.5"/>
</g>
<!-- UN_corpus&#45;&gt;dictionary -->
<g id="edge1" class="edge">
<title>UN_corpus&#45;&gt;dictionary</title>
<path fill="none" stroke="black" d="M140.68,-86.56C125.78,-77.67 114.64,-66.18 124.12,-54 126.66,-50.75 163.99,-41.4 199.22,-33.19"/>
<polygon fill="black" stroke="black" points="199.62,-36.69 208.57,-31.02 198.04,-29.87 199.62,-36.69"/>
<text text-anchor="middle" x="154" y="-55.7" font-family="Helvetica,sans-Serif" font-size="14.00">phrases &#160;&#160;</text>
</g>
<!-- UN_corpus&#45;&gt;open_science_corpus -->
<!-- dictionary&#45;&gt;UN_corpus -->
<g id="edge2" class="edge">
<title>dictionary&#45;&gt;UN_corpus</title>
<path fill="none" stroke="black" d="M228.46,-36.34C220.74,-41.33 213.02,-47.27 206.88,-54 200.91,-60.53 195.97,-68.71 192.08,-76.56"/>
<polygon fill="black" stroke="black" points="188.98,-74.92 188.05,-85.48 195.36,-77.81 188.98,-74.92"/>
<text text-anchor="middle" x="253.12" y="-55.7" font-family="Helvetica,sans-Serif" font-size="14.00"> W3C&#45;annotate</text>
</g>
<!-- dictionary&#45;&gt;open_science_corpus -->
<g id="edge4" class="edge">
<title>dictionary&#45;&gt;open_science_corpus</title>
<path fill="none" stroke="black" d="M314.7,-21.86C337.13,-25.99 361.36,-34.99 375.38,-54 380.91,-61.51 378.53,-69.97 373.13,-77.76"/>
<polygon fill="black" stroke="black" points="370.49,-75.46 366.69,-85.35 375.83,-79.99 370.49,-75.46"/>
<text text-anchor="middle" x="426" y="-55.7" font-family="Helvetica,sans-Serif" font-size="14.00"> &#160;W3C&#45;annotate</text>
</g>
<!-- open_science_corpus&#45;&gt;dictionary -->
<g id="edge3" class="edge">
<title>open_science_corpus&#45;&gt;dictionary</title>
<path fill="none" stroke="black" d="M328.24,-86.62C319.64,-76.88 308.58,-64.6 298.38,-54 295.27,-50.77 291.96,-47.43 288.65,-44.15"/>
<polygon fill="black" stroke="black" points="291.23,-41.77 281.63,-37.27 286.33,-46.77 291.23,-41.77"/>
<text text-anchor="middle" x="342" y="-55.7" font-family="Helvetica,sans-Serif" font-size="14.00">phrases &#160;&#160;</text>
</g>
<!-- titlex -->
<g id="node8" class="node">
<title>titlex</title>
<polygon fill="white" stroke="black" points="775.88,-227 420.88,-227 420.88,-174 775.88,-174 775.88,-227"/>
<text text-anchor="middle" x="598.38" y="-209.7" font-family="Helvetica,sans-Serif" font-size="14.00">*****&#45;ification of climate documents.</text>
<text text-anchor="middle" x="598.38" y="-194.7" font-family="Helvetica,sans-Serif" font-size="14.00">Documents populate dictionaries with Phrases which are</text>
<text text-anchor="middle" x="598.38" y="-179.7" font-family="Helvetica,sans-Serif" font-size="14.00">semantified with Wikimedia</text>
</g>
<!-- foo -->
<g id="node9" class="node">
<title>foo</title>
<polygon fill="lightgrey" stroke="black" points="848.38,-218.5 794.38,-218.5 794.38,-182.5 848.38,-182.5 848.38,-218.5"/>
<text text-anchor="middle" x="821.38" y="-194.7" font-family="Helvetica,sans-Serif" font-size="14.00">foo</text>
</g>
</g>
</svg>
