<?xml version="1.0" encoding="UTF-8" standalone="no"?>
<!DOCTYPE svg PUBLIC "-//W3C//DTD SVG 1.1//EN"
 "http://www.w3.org/Graphics/SVG/1.1/DTD/svg11.dtd">
<!-- Generated by graphviz version 9.0.0 (20230911.1827)
 -->
<!-- Title: SemanticTools Pages: 1 -->
<svg width="501pt" height="257pt"
 viewBox="0.00 0.00 501.25 256.75" xmlns="http://www.w3.org/2000/svg" xmlns:xlink="http://www.w3.org/1999/xlink">
<g id="graph0" class="graph" transform="scale(1 1) rotate(0) translate(4 252.75)">
<title>SemanticTools</title>
<polygon fill="white" stroke="none" points="-4,4 -4,-252.75 497.25,-252.75 497.25,4 -4,4"/>
<text text-anchor="middle" x="246.62" y="-216.25" font-family="Helvetica,sans-Serif" font-size="30.00" fill="blue">5*&#45;ification of climate documents</text>
<!-- EPMC_search -->
<g id="node1" class="node">
<title>EPMC_search</title>
<polygon fill="lightyellow" stroke="black" points="429.12,-210 296.88,-210 296.88,-174 429.12,-174 429.12,-210"/>
<text text-anchor="middle" x="363" y="-186.2" font-family="Helvetica,sans-Serif" font-size="14.00">EPMC_search 3&#45;4*</text>
</g>
<!-- open_science_corpus -->
<g id="node8" class="node">
<title>open_science_corpus</title>
<polygon fill="lightpink" stroke="black" points="423.5,-123 296.5,-123 296.5,-87 423.5,-87 423.5,-123"/>
<text text-anchor="middle" x="360" y="-99.2" font-family="Helvetica,sans-Serif" font-size="14.00">opensci_corpus 5*</text>
</g>
<!-- EPMC_search&#45;&gt;open_science_corpus -->
<g id="edge6" class="edge">
<title>EPMC_search&#45;&gt;open_science_corpus</title>
<path fill="none" stroke="black" d="M362.39,-173.8C362,-162.58 361.47,-147.67 361.01,-134.69"/>
<polygon fill="black" stroke="black" points="364.52,-134.85 360.67,-124.98 357.52,-135.1 364.52,-134.85"/>
<text text-anchor="middle" x="400" y="-142.7" font-family="Helvetica,sans-Serif" font-size="14.00"> pygetpapers</text>
</g>
<!-- IPCC_website -->
<g id="node2" class="node">
<title>IPCC_website</title>
<polygon fill="lightyellow" stroke="black" points="118,-210 0,-210 0,-174 118,-174 118,-210"/>
<text text-anchor="middle" x="59" y="-186.2" font-family="Helvetica,sans-Serif" font-size="14.00">IPCC_website 1*</text>
</g>
<!-- UN_corpus -->
<g id="node6" class="node">
<title>UN_corpus</title>
<polygon fill="lightpink" stroke="black" points="256.62,-123 157.38,-123 157.38,-87 256.62,-87 256.62,-123"/>
<text text-anchor="middle" x="207" y="-99.2" font-family="Helvetica,sans-Serif" font-size="14.00">UN Corpus 5*</text>
</g>
<!-- IPCC_website&#45;&gt;UN_corpus -->
<g id="edge7" class="edge">
<title>IPCC_website&#45;&gt;UN_corpus</title>
<path fill="none" stroke="black" d="M89.31,-173.59C111.75,-160.7 142.56,-143.01 167.02,-128.96"/>
<polygon fill="black" stroke="black" points="168.49,-132.15 175.42,-124.14 165.01,-126.08 168.49,-132.15"/>
<text text-anchor="middle" x="161.88" y="-142.7" font-family="Helvetica,sans-Serif" font-size="14.00"> amilib</text>
</g>
<!-- UNFCCC_website -->
<g id="node3" class="node">
<title>UNFCCC_website</title>
<polygon fill="lightyellow" stroke="black" points="278.38,-210 135.62,-210 135.62,-174 278.38,-174 278.38,-210"/>
<text text-anchor="middle" x="207" y="-186.2" font-family="Helvetica,sans-Serif" font-size="14.00">UNFCCC_website 1*</text>
</g>
<!-- UNFCCC_website&#45;&gt;UN_corpus -->
<g id="edge8" class="edge">
<title>UNFCCC_website&#45;&gt;UN_corpus</title>
<path fill="none" stroke="black" d="M207,-173.8C207,-162.58 207,-147.67 207,-134.69"/>
<polygon fill="black" stroke="black" points="210.5,-134.98 207,-124.98 203.5,-134.98 210.5,-134.98"/>
<text text-anchor="middle" x="226.88" y="-142.7" font-family="Helvetica,sans-Serif" font-size="14.00"> amilib</text>
</g>
<!-- Wikimedia -->
<g id="node4" class="node">
<title>Wikimedia</title>
<polygon fill="cyan" stroke="black" points="202.12,-36 105.88,-36 105.88,0 202.12,0 202.12,-36"/>
<text text-anchor="middle" x="154" y="-12.2" font-family="Helvetica,sans-Serif" font-size="14.00">Wikimedia 5*</text>
</g>
<!-- dictionary -->
<g id="node7" class="node">
<title>dictionary</title>
<polygon fill="lightblue" stroke="black" points="328.12,-36 237.88,-36 237.88,0 328.12,0 328.12,-36"/>
<text text-anchor="middle" x="283" y="-12.2" font-family="Helvetica,sans-Serif" font-size="14.00">dictionary 5*</text>
</g>
<!-- Wikimedia&#45;&gt;dictionary -->
<g id="edge5" class="edge">
<title>Wikimedia&#45;&gt;dictionary</title>
<path fill="none" stroke="black" d="M202.38,-5.34C210.37,-4.51 218.36,-4.29 226.35,-4.7"/>
<polygon fill="black" stroke="black" points="225.87,-8.17 236.14,-5.56 226.48,-1.2 225.87,-8.17"/>
</g>
<!-- Wikimedia&#45;&gt;dictionary -->
<!-- IPCCGlossary -->
<g id="node5" class="node">
<title>IPCCGlossary</title>
<polygon fill="lightyellow" stroke="black" points="486.25,-36 363.75,-36 363.75,0 486.25,0 486.25,-36"/>
<text text-anchor="middle" x="425" y="-12.2" font-family="Helvetica,sans-Serif" font-size="14.00">IPCC Glossary 1*</text>
</g>
<!-- IPCCGlossary&#45;&gt;dictionary -->
<g id="edge9" class="edge">
<title>IPCCGlossary&#45;&gt;dictionary</title>
<path fill="none" stroke="black" d="M363.55,-4.74C355.6,-4.34 347.66,-4.44 339.72,-5.05"/>
<polygon fill="black" stroke="black" points="339.56,-1.54 329.99,-6.08 340.3,-8.5 339.56,-1.54"/>
</g>
<!-- UN_corpus&#45;&gt;dictionary -->
<g id="edge1" class="edge">
<title>UN_corpus&#45;&gt;dictionary</title>
<path fill="none" stroke="black" d="M162.24,-86.65C146.53,-77.95 134.96,-66.58 144.75,-54 146.11,-52.26 189.02,-41.55 226.68,-32.44"/>
<polygon fill="black" stroke="black" points="227.26,-35.9 236.16,-30.15 225.62,-29.09 227.26,-35.9"/>
<text text-anchor="middle" x="174.62" y="-55.7" font-family="Helvetica,sans-Serif" font-size="14.00">phrases &#160;&#160;</text>
</g>
<!-- UN_corpus&#45;&gt;open_science_corpus -->
<!-- dictionary&#45;&gt;IPCCGlossary -->
<!-- dictionary&#45;&gt;UN_corpus -->
<g id="edge2" class="edge">
<title>dictionary&#45;&gt;UN_corpus</title>
<path fill="none" stroke="black" d="M248.11,-36.36C240.6,-41.29 233.21,-47.2 227.5,-54 222.15,-60.37 218.04,-68.33 214.97,-76.01"/>
<polygon fill="black" stroke="black" points="211.67,-74.82 211.66,-85.42 218.28,-77.14 211.67,-74.82"/>
<text text-anchor="middle" x="273.75" y="-55.7" font-family="Helvetica,sans-Serif" font-size="14.00"> W3C&#45;annotate</text>
</g>
<!-- dictionary&#45;&gt;open_science_corpus -->
<g id="edge4" class="edge">
<title>dictionary&#45;&gt;open_science_corpus</title>
<path fill="none" stroke="black" d="M328.55,-30.51C357.68,-38.33 390.78,-48.26 395,-54 400.81,-61.9 397.84,-70.62 391.69,-78.54"/>
<polygon fill="black" stroke="black" points="389.33,-75.93 385.06,-85.63 394.45,-80.72 389.33,-75.93"/>
<text text-anchor="middle" x="445.62" y="-55.7" font-family="Helvetica,sans-Serif" font-size="14.00"> &#160;W3C&#45;annotate</text>
</g>
<!-- open_science_corpus&#45;&gt;dictionary -->
<g id="edge3" class="edge">
<title>open_science_corpus&#45;&gt;dictionary</title>
<path fill="none" stroke="black" d="M346.79,-86.94C338.97,-77.08 328.72,-64.58 319,-54 316.12,-50.86 313.02,-47.65 309.9,-44.5"/>
<polygon fill="black" stroke="black" points="312.37,-42.01 302.79,-37.48 307.45,-47 312.37,-42.01"/>
<text text-anchor="middle" x="361.62" y="-55.7" font-family="Helvetica,sans-Serif" font-size="14.00">phrases &#160;&#160;</text>
</g>
</g>
</svg>
