<?xml version="1.0" encoding="UTF-8" standalone="no"?>
<!DOCTYPE svg PUBLIC "-//W3C//DTD SVG 1.1//EN"
 "http://www.w3.org/Graphics/SVG/1.1/DTD/svg11.dtd">
<!-- Generated by graphviz version 13.1.0 (20250701.0955)
 -->
<!-- Title: pipeline_workflow Pages: 1 -->
<svg width="1087pt" height="486pt"
 viewBox="0.00 0.00 1087.00 486.00" xmlns="http://www.w3.org/2000/svg" xmlns:xlink="http://www.w3.org/1999/xlink">
<g id="graph0" class="graph" transform="scale(1 1) rotate(0) translate(4 481.74)">
<title>pipeline_workflow</title>
<polygon fill="white" stroke="none" points="-4,4 -4,-481.74 1082.77,-481.74 1082.77,4 -4,4"/>
<g id="clust1" class="cluster">
<title>cluster_encyclopedia</title>
<polygon fill="lightblue" stroke="black" points="750.06,-16.74 750.06,-163.74 921.27,-163.74 921.27,-16.74 750.06,-16.74"/>
<text xml:space="preserve" text-anchor="middle" x="835.66" y="-148.34" font-family="Times,serif" font-size="12.00">Encyclopedia</text>
</g>
<g id="clust2" class="cluster">
<title>cluster_corpus</title>
<polygon fill="lightblue" stroke="black" points="324.08,-106.74 324.08,-469.74 521.81,-469.74 521.81,-106.74 324.08,-106.74"/>
<text xml:space="preserve" text-anchor="middle" x="422.94" y="-454.34" font-family="Times,serif" font-size="12.00">Corpus</text>
</g>
<!-- query -->
<g id="node1" class="node">
<title>query</title>
<ellipse fill="lightblue" stroke="black" cx="78.67" cy="-367.74" rx="78.67" ry="22.63"/>
<text xml:space="preserve" text-anchor="middle" x="78.67" y="-370.24" font-family="Arial" font-size="10.00">Query</text>
<text xml:space="preserve" text-anchor="middle" x="78.67" y="-358.24" font-family="Arial" font-size="10.00">(EPMC search terms)</text>
</g>
<!-- pygetpapers_op -->
<g id="node11" class="node">
<title>pygetpapers_op</title>
<path fill="orange" stroke="darkorange" stroke-width="2" d="M283.08,-401.74C283.08,-401.74 206.33,-401.74 206.33,-401.74 200.33,-401.74 194.33,-395.74 194.33,-389.74 194.33,-389.74 194.33,-345.74 194.33,-345.74 194.33,-339.74 200.33,-333.74 206.33,-333.74 206.33,-333.74 283.08,-333.74 283.08,-333.74 289.08,-333.74 295.08,-339.74 295.08,-345.74 295.08,-345.74 295.08,-389.74 295.08,-389.74 295.08,-395.74 289.08,-401.74 283.08,-401.74"/>
<text xml:space="preserve" text-anchor="middle" x="244.71" y="-388.24" font-family="Arial" font-size="10.00">1. pygetpapers</text>
<text xml:space="preserve" text-anchor="middle" x="244.71" y="-376.24" font-family="Arial" font-size="10.00">Query EPMC API</text>
<text xml:space="preserve" text-anchor="middle" x="244.71" y="-364.24" font-family="Arial" font-size="10.00">Download corpus</text>
<text xml:space="preserve" text-anchor="middle" x="244.71" y="-352.24" font-family="Arial" font-size="10.00">(XML, PDF, JSON)</text>
<text xml:space="preserve" text-anchor="middle" x="244.71" y="-340.24" font-family="Arial" font-size="10.00">[pygetpapers]</text>
</g>
<!-- query&#45;&gt;pygetpapers_op -->
<g id="edge1" class="edge">
<title>query&#45;&gt;pygetpapers_op</title>
<path fill="none" stroke="black" d="M157.36,-367.74C165.6,-367.74 173.89,-367.74 181.91,-367.74"/>
<polygon fill="black" stroke="black" points="181.91,-371.24 191.91,-367.74 181.91,-364.24 181.91,-371.24"/>
</g>
<!-- phrases -->
<g id="node2" class="node">
<title>phrases</title>
<ellipse fill="lightblue" stroke="black" cx="835.66" cy="-194.74" rx="67" ry="22.63"/>
<text xml:space="preserve" text-anchor="middle" x="835.66" y="-197.24" font-family="Arial" font-size="10.00">Common Phrases</text>
<text xml:space="preserve" text-anchor="middle" x="835.66" y="-185.24" font-family="Arial" font-size="10.00">(TF&#45;IDF results)</text>
</g>
<!-- encyclopedia_creation -->
<g id="node14" class="node">
<title>encyclopedia_creation</title>
<path fill="lightgreen" stroke="darkgreen" stroke-width="2" d="M1066.77,-174.74C1066.77,-174.74 962.27,-174.74 962.27,-174.74 956.27,-174.74 950.27,-168.74 950.27,-162.74 950.27,-162.74 950.27,-142.74 950.27,-142.74 950.27,-136.74 956.27,-130.74 962.27,-130.74 962.27,-130.74 1066.77,-130.74 1066.77,-130.74 1072.77,-130.74 1078.77,-136.74 1078.77,-142.74 1078.77,-142.74 1078.77,-162.74 1078.77,-162.74 1078.77,-168.74 1072.77,-174.74 1066.77,-174.74"/>
<text xml:space="preserve" text-anchor="middle" x="1014.52" y="-161.24" font-family="Arial" font-size="10.00">5. Encyclopedia Creation</text>
<text xml:space="preserve" text-anchor="middle" x="1014.52" y="-149.24" font-family="Arial" font-size="10.00">Wikipedia &amp; authorities</text>
<text xml:space="preserve" text-anchor="middle" x="1014.52" y="-137.24" font-family="Arial" font-size="10.00">[amilib.ami_encyclopedia]</text>
</g>
<!-- phrases&#45;&gt;encyclopedia_creation -->
<g id="edge19" class="edge">
<title>phrases&#45;&gt;encyclopedia_creation</title>
<path fill="none" stroke="black" d="M891.17,-181.8C906.18,-178.24 922.72,-174.31 938.66,-170.52"/>
<polygon fill="black" stroke="black" points="939.18,-174 948.1,-168.28 937.57,-167.18 939.18,-174"/>
</g>
<!-- encyclopedia_terms -->
<g id="node3" class="node">
<title>encyclopedia_terms</title>
<ellipse fill="white" stroke="black" cx="835.66" cy="-110.74" rx="77.6" ry="22.63"/>
<text xml:space="preserve" text-anchor="middle" x="835.66" y="-113.24" font-family="Arial" font-size="10.00">Terms</text>
<text xml:space="preserve" text-anchor="middle" x="835.66" y="-101.24" font-family="Arial" font-size="10.00">(Wikipedia&#45;enhanced)</text>
</g>
<!-- supervised_search -->
<g id="node15" class="node">
<title>supervised_search</title>
<path fill="lightgreen" stroke="darkgreen" stroke-width="2" d="M704.18,-100.74C704.18,-100.74 605.68,-100.74 605.68,-100.74 599.68,-100.74 593.68,-94.74 593.68,-88.74 593.68,-88.74 593.68,-68.74 593.68,-68.74 593.68,-62.74 599.68,-56.74 605.68,-56.74 605.68,-56.74 704.18,-56.74 704.18,-56.74 710.18,-56.74 716.18,-62.74 716.18,-68.74 716.18,-68.74 716.18,-88.74 716.18,-88.74 716.18,-94.74 710.18,-100.74 704.18,-100.74"/>
<text xml:space="preserve" text-anchor="middle" x="654.93" y="-87.24" font-family="Arial" font-size="10.00">6. Supervised Search</text>
<text xml:space="preserve" text-anchor="middle" x="654.93" y="-75.24" font-family="Arial" font-size="10.00">Encyclopedia annotation</text>
<text xml:space="preserve" text-anchor="middle" x="654.93" y="-63.24" font-family="Arial" font-size="10.00">[amilib.html_marker]</text>
</g>
<!-- encyclopedia_terms&#45;&gt;supervised_search -->
<g id="edge21" class="edge">
<title>encyclopedia_terms&#45;&gt;supervised_search</title>
<path fill="none" stroke="black" d="M768.73,-98.94C755.49,-96.57 741.51,-94.07 728.07,-91.66"/>
<polygon fill="black" stroke="black" points="728.89,-88.25 718.43,-89.93 727.66,-95.14 728.89,-88.25"/>
</g>
<!-- kg_creation -->
<g id="node16" class="node">
<title>kg_creation</title>
<path fill="lightgreen" stroke="darkgreen" stroke-width="2" d="M1054.77,-69.74C1054.77,-69.74 974.27,-69.74 974.27,-69.74 968.27,-69.74 962.27,-63.74 962.27,-57.74 962.27,-57.74 962.27,-37.74 962.27,-37.74 962.27,-31.74 968.27,-25.74 974.27,-25.74 974.27,-25.74 1054.77,-25.74 1054.77,-25.74 1060.77,-25.74 1066.77,-31.74 1066.77,-37.74 1066.77,-37.74 1066.77,-57.74 1066.77,-57.74 1066.77,-63.74 1060.77,-69.74 1054.77,-69.74"/>
<text xml:space="preserve" text-anchor="middle" x="1014.52" y="-56.24" font-family="Arial" font-size="10.00">7. Knowledge Graph</text>
<text xml:space="preserve" text-anchor="middle" x="1014.52" y="-44.24" font-family="Arial" font-size="10.00">Create GraphML</text>
<text xml:space="preserve" text-anchor="middle" x="1014.52" y="-32.24" font-family="Arial" font-size="10.00">[amilib.ami_graph]</text>
</g>
<!-- encyclopedia_terms&#45;&gt;kg_creation -->
<g id="edge25" class="edge">
<title>encyclopedia_terms&#45;&gt;kg_creation</title>
<path fill="none" stroke="black" d="M885.93,-93.2C906.04,-86.03 929.53,-77.66 950.84,-70.07"/>
<polygon fill="black" stroke="black" points="951.76,-73.46 960,-66.81 949.41,-66.87 951.76,-73.46"/>
</g>
<!-- knowledge_graph -->
<g id="node4" class="node">
<title>knowledge_graph</title>
<ellipse fill="white" stroke="black" cx="835.66" cy="-47.74" rx="65.94" ry="22.63"/>
<text xml:space="preserve" text-anchor="middle" x="835.66" y="-50.24" font-family="Arial" font-size="10.00">Knowledge Graph</text>
<text xml:space="preserve" text-anchor="middle" x="835.66" y="-38.24" font-family="Arial" font-size="10.00">(GraphML format)</text>
</g>
<!-- corpus_xml -->
<g id="node5" class="node">
<title>corpus_xml</title>
<ellipse fill="white" stroke="black" cx="422.94" cy="-313.74" rx="34.43" ry="18"/>
<text xml:space="preserve" text-anchor="middle" x="422.94" y="-310.24" font-family="Arial" font-size="10.00">XML files</text>
</g>
<!-- convert_xml -->
<g id="node12" class="node">
<title>convert_xml</title>
<path fill="lightgreen" stroke="darkgreen" stroke-width="2" d="M706.06,-325.74C706.06,-325.74 603.81,-325.74 603.81,-325.74 597.81,-325.74 591.81,-319.74 591.81,-313.74 591.81,-313.74 591.81,-301.74 591.81,-301.74 591.81,-295.74 597.81,-289.74 603.81,-289.74 603.81,-289.74 706.06,-289.74 706.06,-289.74 712.06,-289.74 718.06,-295.74 718.06,-301.74 718.06,-301.74 718.06,-313.74 718.06,-313.74 718.06,-319.74 712.06,-325.74 706.06,-325.74"/>
<text xml:space="preserve" text-anchor="middle" x="654.93" y="-310.24" font-family="Arial" font-size="10.00">2. Convert XML to HTML</text>
<text xml:space="preserve" text-anchor="middle" x="654.93" y="-298.24" font-family="Arial" font-size="10.00">[amilib.ami_html]</text>
</g>
<!-- corpus_xml&#45;&gt;convert_xml -->
<g id="edge5" class="edge">
<title>corpus_xml&#45;&gt;convert_xml</title>
<path fill="none" stroke="black" d="M457.39,-312.87C489.27,-312.04 538.39,-310.76 579.55,-309.69"/>
<polygon fill="black" stroke="black" points="579.51,-313.19 589.41,-309.43 579.32,-306.19 579.51,-313.19"/>
</g>
<!-- datatables -->
<g id="node13" class="node">
<title>datatables</title>
<path fill="lightgreen" stroke="darkgreen" stroke-width="2" d="M709.06,-387.74C709.06,-387.74 600.81,-387.74 600.81,-387.74 594.81,-387.74 588.81,-381.74 588.81,-375.74 588.81,-375.74 588.81,-355.74 588.81,-355.74 588.81,-349.74 594.81,-343.74 600.81,-343.74 600.81,-343.74 709.06,-343.74 709.06,-343.74 715.06,-343.74 721.06,-349.74 721.06,-355.74 721.06,-355.74 721.06,-375.74 721.06,-375.74 721.06,-381.74 715.06,-387.74 709.06,-387.74"/>
<text xml:space="preserve" text-anchor="middle" x="654.93" y="-374.24" font-family="Arial" font-size="10.00">3. JQuery Datatables</text>
<text xml:space="preserve" text-anchor="middle" x="654.93" y="-362.24" font-family="Arial" font-size="10.00">Filter &amp; refine corpus</text>
<text xml:space="preserve" text-anchor="middle" x="654.93" y="-350.24" font-family="Arial" font-size="10.00">[amilib.datatables_module]</text>
</g>
<!-- corpus_xml&#45;&gt;datatables -->
<g id="edge8" class="edge">
<title>corpus_xml&#45;&gt;datatables</title>
<path fill="none" stroke="black" d="M456.63,-318.04C476.59,-321.77 501.99,-328.56 521.81,-340.74 527.44,-344.2 525.93,-348.73 531.81,-351.74 545.56,-358.79 561.31,-362.97 576.82,-365.35"/>
<polygon fill="black" stroke="black" points="576.18,-368.79 586.54,-366.58 577.06,-361.85 576.18,-368.79"/>
</g>
<!-- corpus_pdf -->
<g id="node6" class="node">
<title>corpus_pdf</title>
<ellipse fill="white" stroke="black" cx="422.94" cy="-367.74" rx="34.43" ry="18"/>
<text xml:space="preserve" text-anchor="middle" x="422.94" y="-364.24" font-family="Arial" font-size="10.00">PDF files</text>
</g>
<!-- corpus_pdf&#45;&gt;datatables -->
<g id="edge9" class="edge">
<title>corpus_pdf&#45;&gt;datatables</title>
<path fill="none" stroke="black" d="M456.62,-372.12C486.38,-375.55 531.55,-379.33 570.81,-376.74 572.84,-376.61 574.91,-376.46 576.99,-376.29"/>
<polygon fill="black" stroke="black" points="577.08,-379.8 586.71,-375.39 576.43,-372.83 577.08,-379.8"/>
</g>
<!-- corpus_json -->
<g id="node7" class="node">
<title>corpus_json</title>
<ellipse fill="white" stroke="black" cx="422.94" cy="-421.74" rx="38.49" ry="18"/>
<text xml:space="preserve" text-anchor="middle" x="422.94" y="-418.24" font-family="Arial" font-size="10.00">JSON files</text>
</g>
<!-- corpus_json&#45;&gt;datatables -->
<g id="edge10" class="edge">
<title>corpus_json&#45;&gt;datatables</title>
<path fill="none" stroke="black" d="M459.15,-415.18C489.02,-409.4 532.94,-400.42 570.81,-390.74 572.8,-390.24 574.82,-389.71 576.85,-389.17"/>
<polygon fill="black" stroke="black" points="577.64,-392.58 586.37,-386.57 575.8,-385.83 577.64,-392.58"/>
</g>
<!-- corpus_html -->
<g id="node8" class="node">
<title>corpus_html</title>
<ellipse fill="white" stroke="black" cx="422.94" cy="-259.74" rx="38.49" ry="18"/>
<text xml:space="preserve" text-anchor="middle" x="422.94" y="-256.24" font-family="Arial" font-size="10.00">HTML files</text>
</g>
<!-- corpus_html&#45;&gt;datatables -->
<g id="edge7" class="edge">
<title>corpus_html&#45;&gt;datatables</title>
<path fill="none" stroke="black" d="M461.53,-262.37C481.45,-265.53 505.17,-272.3 521.81,-286.74 530.22,-294.05 524,-301.79 531.81,-309.74 544.59,-322.78 560.96,-333.08 577.55,-341.1"/>
<polygon fill="black" stroke="black" points="575.94,-344.21 586.49,-345.17 578.84,-337.84 575.94,-344.21"/>
</g>
<!-- corpus_html&#45;&gt;supervised_search -->
<g id="edge22" class="edge">
<title>corpus_html&#45;&gt;supervised_search</title>
<path fill="none" stroke="black" d="M460.68,-256.06C480.34,-252.59 504.09,-245.84 521.81,-232.74 554.43,-208.63 552.44,-191.91 570.81,-155.74 580.75,-136.17 573.85,-125.81 588.81,-109.74 588.98,-109.56 589.15,-109.38 589.32,-109.2"/>
<polygon fill="black" stroke="black" points="591.54,-111.91 596.74,-102.68 586.92,-106.65 591.54,-111.91"/>
</g>
<!-- corpus_datatables -->
<g id="node9" class="node">
<title>corpus_datatables</title>
<ellipse fill="white" stroke="black" cx="422.94" cy="-200.74" rx="59.04" ry="22.63"/>
<text xml:space="preserve" text-anchor="middle" x="422.94" y="-203.24" font-family="Arial" font-size="10.00">Datatables</text>
<text xml:space="preserve" text-anchor="middle" x="422.94" y="-191.24" font-family="Arial" font-size="10.00">(filtered/refined)</text>
</g>
<!-- corpus_datatables&#45;&gt;supervised_search -->
<g id="edge16" class="edge">
<title>corpus_datatables&#45;&gt;supervised_search</title>
<path fill="none" stroke="black" d="M474.97,-189.59C490.67,-184.87 507.57,-178.4 521.81,-169.74 527.18,-166.48 527.22,-164.04 531.81,-159.74 556.4,-136.71 560.66,-128.27 588.81,-109.74 590.01,-108.95 591.24,-108.17 592.49,-107.39"/>
<polygon fill="black" stroke="black" points="594.17,-110.46 601.05,-102.4 590.65,-104.41 594.17,-110.46"/>
</g>
<!-- unsupervised_search -->
<g id="node17" class="node">
<title>unsupervised_search</title>
<path fill="yellow" stroke="gold" stroke-width="2" d="M705.68,-162.74C705.68,-162.74 604.18,-162.74 604.18,-162.74 598.18,-162.74 592.18,-156.74 592.18,-150.74 592.18,-150.74 592.18,-130.74 592.18,-130.74 592.18,-124.74 598.18,-118.74 604.18,-118.74 604.18,-118.74 705.68,-118.74 705.68,-118.74 711.68,-118.74 717.68,-124.74 717.68,-130.74 717.68,-130.74 717.68,-150.74 717.68,-150.74 717.68,-156.74 711.68,-162.74 705.68,-162.74"/>
<text xml:space="preserve" text-anchor="middle" x="654.93" y="-149.24" font-family="Arial" font-size="10.00">4. Unsupervised Search</text>
<text xml:space="preserve" text-anchor="middle" x="654.93" y="-137.24" font-family="Arial" font-size="10.00">TF&#45;IDF phrase extraction</text>
<text xml:space="preserve" text-anchor="middle" x="654.93" y="-125.24" font-family="Arial" font-size="10.00">[txt2phrases]</text>
</g>
<!-- corpus_datatables&#45;&gt;unsupervised_search -->
<g id="edge12" class="edge">
<title>corpus_datatables&#45;&gt;unsupervised_search</title>
<path fill="none" stroke="black" d="M472.44,-188.09C503.85,-179.9 545.35,-169.07 580.73,-159.84"/>
<polygon fill="black" stroke="black" points="581.24,-163.33 590.04,-157.41 579.48,-156.55 581.24,-163.33"/>
</g>
<!-- docanalysis_unsupervised -->
<g id="node18" class="node">
<title>docanalysis_unsupervised</title>
<path fill="lightblue" stroke="blue" stroke-width="2" d="M679.81,-270.74C679.81,-270.74 630.06,-270.74 630.06,-270.74 624.06,-270.74 618.06,-264.74 618.06,-258.74 618.06,-258.74 618.06,-246.74 618.06,-246.74 618.06,-240.74 624.06,-234.74 630.06,-234.74 630.06,-234.74 679.81,-234.74 679.81,-234.74 685.81,-234.74 691.81,-240.74 691.81,-246.74 691.81,-246.74 691.81,-258.74 691.81,-258.74 691.81,-264.74 685.81,-270.74 679.81,-270.74"/>
<text xml:space="preserve" text-anchor="middle" x="654.93" y="-249.24" font-family="Arial" font-size="10.00">[docanalysis]</text>
</g>
<!-- corpus_datatables&#45;&gt;docanalysis_unsupervised -->
<g id="edge13" class="edge">
<title>corpus_datatables&#45;&gt;docanalysis_unsupervised</title>
<path fill="none" stroke="black" d="M479.47,-207.64C507.14,-211.63 540.97,-217.33 570.81,-224.74 582.46,-227.64 594.81,-231.4 606.33,-235.23"/>
<polygon fill="black" stroke="black" points="605.05,-238.49 615.64,-238.4 607.3,-231.86 605.05,-238.49"/>
</g>
<!-- docanalysis_supervised -->
<g id="node19" class="node">
<title>docanalysis_supervised</title>
<path fill="lightblue" stroke="blue" stroke-width="2" d="M679.81,-216.74C679.81,-216.74 630.06,-216.74 630.06,-216.74 624.06,-216.74 618.06,-210.74 618.06,-204.74 618.06,-204.74 618.06,-192.74 618.06,-192.74 618.06,-186.74 624.06,-180.74 630.06,-180.74 630.06,-180.74 679.81,-180.74 679.81,-180.74 685.81,-180.74 691.81,-186.74 691.81,-192.74 691.81,-192.74 691.81,-204.74 691.81,-204.74 691.81,-210.74 685.81,-216.74 679.81,-216.74"/>
<text xml:space="preserve" text-anchor="middle" x="654.93" y="-195.24" font-family="Arial" font-size="10.00">[docanalysis]</text>
</g>
<!-- corpus_datatables&#45;&gt;docanalysis_supervised -->
<g id="edge17" class="edge">
<title>corpus_datatables&#45;&gt;docanalysis_supervised</title>
<path fill="none" stroke="black" d="M481.87,-198.2C498.03,-197.6 515.6,-197.05 531.81,-196.74 549.14,-196.42 553.48,-196.54 570.81,-196.74 582.17,-196.88 594.41,-197.12 605.91,-197.39"/>
<polygon fill="black" stroke="black" points="605.51,-200.88 615.59,-197.63 605.68,-193.89 605.51,-200.88"/>
</g>
<!-- corpus_annotated_html -->
<g id="node10" class="node">
<title>corpus_annotated_html</title>
<ellipse fill="white" stroke="black" cx="422.94" cy="-137.74" rx="90.86" ry="22.63"/>
<text xml:space="preserve" text-anchor="middle" x="422.94" y="-140.24" font-family="Arial" font-size="10.00">Annotated HTML</text>
<text xml:space="preserve" text-anchor="middle" x="422.94" y="-128.24" font-family="Arial" font-size="10.00">(full text with annotations)</text>
</g>
<!-- corpus_annotated_html&#45;&gt;kg_creation -->
<g id="edge24" class="edge">
<title>corpus_annotated_html&#45;&gt;kg_creation</title>
<path fill="none" stroke="black" d="M455.2,-116.33C476.3,-102.38 505.07,-84.31 531.81,-70.74 556.17,-58.38 562.7,-55.78 588.81,-47.74 730.81,-4.03 775.13,14.05 921.27,-12.74 931.65,-14.65 942.37,-17.66 952.68,-21.14"/>
<polygon fill="black" stroke="black" points="951.21,-24.33 961.8,-24.4 953.56,-17.74 951.21,-24.33"/>
</g>
<!-- pygetpapers_op&#45;&gt;corpus_xml -->
<g id="edge2" class="edge">
<title>pygetpapers_op&#45;&gt;corpus_xml</title>
<path fill="none" stroke="black" d="M295.73,-349.99C305.11,-346.81 314.87,-343.6 324.08,-340.74 342.45,-335.05 362.94,-329.31 380.4,-324.59"/>
<polygon fill="black" stroke="black" points="381.17,-328.01 389.92,-322.04 379.36,-321.25 381.17,-328.01"/>
</g>
<!-- pygetpapers_op&#45;&gt;corpus_pdf -->
<g id="edge3" class="edge">
<title>pygetpapers_op&#45;&gt;corpus_pdf</title>
<path fill="none" stroke="black" d="M295.74,-367.74C321.3,-367.74 352.16,-367.74 376.97,-367.74"/>
<polygon fill="black" stroke="black" points="376.74,-371.24 386.74,-367.74 376.74,-364.24 376.74,-371.24"/>
</g>
<!-- pygetpapers_op&#45;&gt;corpus_json -->
<g id="edge4" class="edge">
<title>pygetpapers_op&#45;&gt;corpus_json</title>
<path fill="none" stroke="black" d="M295.73,-385.5C305.11,-388.68 314.87,-391.89 324.08,-394.74 341.62,-400.18 361.09,-405.66 378.02,-410.25"/>
<polygon fill="black" stroke="black" points="376.7,-413.52 387.26,-412.74 378.52,-406.76 376.7,-413.52"/>
</g>
<!-- convert_xml&#45;&gt;corpus_html -->
<g id="edge6" class="edge">
<title>convert_xml&#45;&gt;corpus_html</title>
<path fill="none" stroke="black" d="M590.88,-293.57C584.11,-292.09 577.32,-290.62 570.81,-289.24 537.12,-282.11 498.98,-274.47 470.02,-268.74"/>
<polygon fill="black" stroke="black" points="470.97,-265.37 460.49,-266.87 469.62,-272.23 470.97,-265.37"/>
<text xml:space="preserve" text-anchor="middle" x="551.31" y="-292.44" font-family="Times,serif" font-size="14.00">adds to</text>
</g>
<!-- datatables&#45;&gt;corpus_datatables -->
<g id="edge11" class="edge">
<title>datatables&#45;&gt;corpus_datatables</title>
<path fill="none" stroke="black" d="M597.12,-342.97C594.07,-340.49 591.26,-337.76 588.81,-334.74 567.57,-308.66 590.95,-288.18 570.81,-261.24 555.72,-241.07 544.8,-243.05 521.81,-232.74 509.32,-227.15 495.55,-222.03 482.38,-217.62"/>
<polygon fill="black" stroke="black" points="483.53,-214.31 472.94,-214.55 481.36,-220.97 483.53,-214.31"/>
<text xml:space="preserve" text-anchor="middle" x="551.31" y="-264.44" font-family="Times,serif" font-size="14.00">creates</text>
</g>
<!-- encyclopedia_creation&#45;&gt;encyclopedia_terms -->
<g id="edge20" class="edge">
<title>encyclopedia_creation&#45;&gt;encyclopedia_terms</title>
<path fill="none" stroke="black" d="M949.47,-137.53C935.84,-134.3 921.37,-130.86 907.5,-127.57"/>
<polygon fill="black" stroke="black" points="908.55,-124.22 898.01,-125.31 906.93,-131.03 908.55,-124.22"/>
</g>
<!-- supervised_search&#45;&gt;corpus_annotated_html -->
<g id="edge23" class="edge">
<title>supervised_search&#45;&gt;corpus_annotated_html</title>
<path fill="none" stroke="black" d="M592.93,-73.84C573.17,-73.74 551.32,-75.24 531.81,-80.24 508.18,-86.3 484.02,-98.52 464.57,-110.13"/>
<polygon fill="black" stroke="black" points="462.82,-107.1 456.15,-115.33 466.5,-113.06 462.82,-107.1"/>
<text xml:space="preserve" text-anchor="middle" x="551.31" y="-83.44" font-family="Times,serif" font-size="14.00">creates</text>
</g>
<!-- kg_creation&#45;&gt;knowledge_graph -->
<g id="edge26" class="edge">
<title>kg_creation&#45;&gt;knowledge_graph</title>
<path fill="none" stroke="black" d="M961.41,-47.74C946.29,-47.74 929.46,-47.74 913.17,-47.74"/>
<polygon fill="black" stroke="black" points="913.53,-44.24 903.53,-47.74 913.53,-51.24 913.53,-44.24"/>
</g>
<!-- unsupervised_search&#45;&gt;phrases -->
<g id="edge14" class="edge">
<title>unsupervised_search&#45;&gt;phrases</title>
<path fill="none" stroke="black" d="M718.44,-159.63C736.45,-165.07 756.06,-171 773.96,-176.4"/>
<polygon fill="black" stroke="black" points="772.81,-179.71 783.4,-179.26 774.84,-173.01 772.81,-179.71"/>
</g>
<!-- docanalysis_unsupervised&#45;&gt;phrases -->
<g id="edge15" class="edge">
<title>docanalysis_unsupervised&#45;&gt;phrases</title>
<path fill="none" stroke="black" d="M692.53,-240.87C716.43,-233.11 748.16,-222.82 775.58,-213.92"/>
<polygon fill="black" stroke="black" points="776.37,-217.34 784.8,-210.93 774.21,-210.68 776.37,-217.34"/>
</g>
<!-- docanalysis_supervised&#45;&gt;supervised_search -->
<g id="edge18" class="edge">
<title>docanalysis_supervised&#45;&gt;supervised_search</title>
<path fill="none" stroke="black" d="M617.27,-195.57C595.31,-191.56 569.25,-182.61 555.31,-162.74 544.07,-146.74 544.35,-134.95 555.31,-118.74 562.1,-108.7 571.88,-101.17 582.68,-95.54"/>
<polygon fill="black" stroke="black" points="583.84,-98.86 591.47,-91.51 580.92,-92.5 583.84,-98.86"/>
</g>
</g>
</svg>
