<?xml version="1.0" encoding="UTF-8" standalone="no"?>
<!DOCTYPE svg PUBLIC "-//W3C//DTD SVG 1.1//EN"
 "http://www.w3.org/Graphics/SVG/1.1/DTD/svg11.dtd">
<!-- Generated by graphviz version 9.0.0 (20230911.1827)
 -->
<!-- Pages: 1 -->
<svg width="3944pt" height="397pt"
 viewBox="0.00 0.00 3944.01 397.43" xmlns="http://www.w3.org/2000/svg" xmlns:xlink="http://www.w3.org/1999/xlink">
<g id="graph0" class="graph" transform="scale(1 1) rotate(0) translate(4 393.43)">
<polygon fill="white" stroke="none" points="-4,4 -4,-393.43 3940.01,-393.43 3940.01,4 -4,4"/>
<!-- amilib -->
<g id="node1" class="node">
<title>amilib</title>
<ellipse fill="none" stroke="black" cx="1036.28" cy="-249.96" rx="39.95" ry="28.99"/>
<text text-anchor="middle" x="1036.28" y="-253.16" font-family="Times,serif" font-size="14.00">amilib</text>
<text text-anchor="middle" x="1036.28" y="-236.66" font-family="Times,serif" font-size="14.00">0.5.1a4</text>
</g>
<!-- lxml -->
<g id="node2" class="node">
<title>lxml</title>
<ellipse fill="none" stroke="black" stroke-dasharray="5,2" cx="515.28" cy="-139.47" rx="47.91" ry="28.99"/>
<text text-anchor="middle" x="515.28" y="-142.67" font-family="Times,serif" font-size="14.00">lxml</text>
<text text-anchor="middle" x="515.28" y="-126.17" font-family="Times,serif" font-size="14.00">(missing)</text>
</g>
<!-- amilib&#45;&gt;lxml -->
<g id="edge1" class="edge">
<title>amilib&#45;&gt;lxml</title>
<path fill="none" stroke="black" stroke-dasharray="5,2" d="M996.43,-246.32C914.83,-239.99 723.66,-220.43 572.28,-168.47 568.57,-167.19 564.79,-165.73 561.04,-164.16"/>
<polygon fill="black" stroke="black" points="562.52,-160.99 551.96,-160.12 559.67,-167.39 562.52,-160.99"/>
</g>
<!-- nltk -->
<g id="node3" class="node">
<title>nltk</title>
<ellipse fill="none" stroke="black" stroke-dasharray="5,2" cx="629.28" cy="-139.47" rx="47.91" ry="28.99"/>
<text text-anchor="middle" x="629.28" y="-142.67" font-family="Times,serif" font-size="14.00">nltk</text>
<text text-anchor="middle" x="629.28" y="-126.17" font-family="Times,serif" font-size="14.00">(missing)</text>
</g>
<!-- amilib&#45;&gt;nltk -->
<g id="edge2" class="edge">
<title>amilib&#45;&gt;nltk</title>
<path fill="none" stroke="black" stroke-dasharray="5,2" d="M997.13,-242.99C931.54,-232.32 795.86,-207.38 686.28,-168.47 682.59,-167.15 678.82,-165.66 675.07,-164.07"/>
<polygon fill="black" stroke="black" points="676.56,-160.91 666,-160.01 673.69,-167.29 676.56,-160.91"/>
</g>
<!-- pdfminer3 -->
<g id="node4" class="node">
<title>pdfminer3</title>
<ellipse fill="none" stroke="black" stroke-dasharray="5,2" cx="747.28" cy="-139.47" rx="51.62" ry="28.99"/>
<text text-anchor="middle" x="747.28" y="-142.67" font-family="Times,serif" font-size="14.00">pdfminer3</text>
<text text-anchor="middle" x="747.28" y="-126.17" font-family="Times,serif" font-size="14.00">(missing)</text>
</g>
<!-- amilib&#45;&gt;pdfminer3 -->
<g id="edge3" class="edge">
<title>amilib&#45;&gt;pdfminer3</title>
<path fill="none" stroke="black" stroke-dasharray="5,2" d="M999.97,-237.27C954.66,-222.43 875.01,-195.49 808.28,-168.47 804.44,-166.91 800.49,-165.24 796.53,-163.53"/>
<polygon fill="black" stroke="black" points="798.05,-160.38 787.49,-159.54 795.22,-166.78 798.05,-160.38"/>
</g>
<!-- pillow -->
<g id="node5" class="node">
<title>pillow</title>
<ellipse fill="none" stroke="black" stroke-dasharray="5,2" cx="865.28" cy="-139.47" rx="47.91" ry="28.99"/>
<text text-anchor="middle" x="865.28" y="-142.67" font-family="Times,serif" font-size="14.00">Pillow</text>
<text text-anchor="middle" x="865.28" y="-126.17" font-family="Times,serif" font-size="14.00">(missing)</text>
</g>
<!-- amilib&#45;&gt;pillow -->
<g id="edge4" class="edge">
<title>amilib&#45;&gt;pillow</title>
<path fill="none" stroke="black" stroke-dasharray="5,2" d="M1006.5,-230.06C979.13,-212.7 938.26,-186.77 907.53,-167.27"/>
<polygon fill="black" stroke="black" points="909.53,-164.4 899.21,-162 905.78,-170.31 909.53,-164.4"/>
</g>
<!-- setuptools -->
<g id="node6" class="node">
<title>setuptools</title>
<ellipse fill="none" stroke="black" cx="269.28" cy="-139.47" rx="50.03" ry="28.99"/>
<text text-anchor="middle" x="269.28" y="-142.67" font-family="Times,serif" font-size="14.00">setuptools</text>
<text text-anchor="middle" x="269.28" y="-126.17" font-family="Times,serif" font-size="14.00">56.0.0</text>
</g>
<!-- amilib&#45;&gt;setuptools -->
<g id="edge5" class="edge">
<title>amilib&#45;&gt;setuptools</title>
<path fill="none" stroke="black" d="M996.33,-246.8C908.42,-241.76 691.76,-227.71 511.78,-202.97 470.68,-197.31 367.74,-181.3 328.28,-168.47 324.33,-167.18 320.3,-165.69 316.3,-164.08"/>
<polygon fill="black" stroke="black" points="317.79,-160.91 307.22,-160.19 315.03,-167.34 317.79,-160.91"/>
<text text-anchor="middle" x="522.03" y="-189.67" font-family="Times,serif" font-size="14.00">any</text>
</g>
<!-- pdfplumber -->
<g id="node7" class="node">
<title>pdfplumber</title>
<ellipse fill="none" stroke="black" stroke-dasharray="5,2" cx="393.28" cy="-139.47" rx="56.39" ry="28.99"/>
<text text-anchor="middle" x="393.28" y="-142.67" font-family="Times,serif" font-size="14.00">pdfplumber</text>
<text text-anchor="middle" x="393.28" y="-126.17" font-family="Times,serif" font-size="14.00">(missing)</text>
</g>
<!-- amilib&#45;&gt;pdfplumber -->
<g id="edge6" class="edge">
<title>amilib&#45;&gt;pdfplumber</title>
<path fill="none" stroke="black" stroke-dasharray="5,2" d="M996.06,-247.86C900.58,-244.29 653.66,-229.39 458.28,-168.47 453.86,-167.09 449.34,-165.51 444.83,-163.82"/>
<polygon fill="black" stroke="black" points="446.4,-160.67 435.82,-160.26 443.84,-167.19 446.4,-160.67"/>
</g>
<!-- requests -->
<g id="node8" class="node">
<title>requests</title>
<ellipse fill="none" stroke="black" cx="158.28" cy="-139.47" rx="42.6" ry="28.99"/>
<text text-anchor="middle" x="158.28" y="-142.67" font-family="Times,serif" font-size="14.00">requests</text>
<text text-anchor="middle" x="158.28" y="-126.17" font-family="Times,serif" font-size="14.00">2.32.3</text>
</g>
<!-- amilib&#45;&gt;requests -->
<g id="edge7" class="edge">
<title>amilib&#45;&gt;requests</title>
<path fill="none" stroke="black" d="M996.07,-248.13C873.09,-245.27 503.41,-234.25 387.78,-202.97 371.76,-198.63 370.18,-191.23 354.28,-186.47 292.5,-167.96 271.73,-188.08 210.28,-168.47 206.77,-167.34 203.21,-165.98 199.7,-164.47"/>
<polygon fill="black" stroke="black" points="201.27,-161.34 190.73,-160.24 198.27,-167.67 201.27,-161.34"/>
<text text-anchor="middle" x="398.03" y="-189.67" font-family="Times,serif" font-size="14.00">any</text>
</g>
<!-- numpy -->
<g id="node9" class="node">
<title>numpy</title>
<ellipse fill="none" stroke="black" stroke-dasharray="5,2" cx="979.28" cy="-139.47" rx="47.91" ry="28.99"/>
<text text-anchor="middle" x="979.28" y="-142.67" font-family="Times,serif" font-size="14.00">numpy</text>
<text text-anchor="middle" x="979.28" y="-126.17" font-family="Times,serif" font-size="14.00">(missing)</text>
</g>
<!-- amilib&#45;&gt;numpy -->
<g id="edge8" class="edge">
<title>amilib&#45;&gt;numpy</title>
<path fill="none" stroke="black" stroke-dasharray="5,2" d="M1022.34,-222.42C1015.22,-208.86 1006.44,-192.15 998.67,-177.36"/>
<polygon fill="black" stroke="black" points="1001.93,-176.06 994.18,-168.83 995.74,-179.31 1001.93,-176.06"/>
</g>
<!-- pandas -->
<g id="node10" class="node">
<title>pandas</title>
<ellipse fill="none" stroke="black" stroke-dasharray="5,2" cx="1093.28" cy="-139.47" rx="47.91" ry="28.99"/>
<text text-anchor="middle" x="1093.28" y="-142.67" font-family="Times,serif" font-size="14.00">pandas</text>
<text text-anchor="middle" x="1093.28" y="-126.17" font-family="Times,serif" font-size="14.00">(missing)</text>
</g>
<!-- amilib&#45;&gt;pandas -->
<g id="edge9" class="edge">
<title>amilib&#45;&gt;pandas</title>
<path fill="none" stroke="black" stroke-dasharray="5,2" d="M1050.23,-222.42C1057.35,-208.86 1066.13,-192.15 1073.9,-177.36"/>
<polygon fill="black" stroke="black" points="1076.83,-179.31 1078.38,-168.83 1070.63,-176.06 1076.83,-179.31"/>
</g>
<!-- pyvis -->
<g id="node11" class="node">
<title>pyvis</title>
<ellipse fill="none" stroke="black" stroke-dasharray="5,2" cx="1207.28" cy="-139.47" rx="47.91" ry="28.99"/>
<text text-anchor="middle" x="1207.28" y="-142.67" font-family="Times,serif" font-size="14.00">pyvis</text>
<text text-anchor="middle" x="1207.28" y="-126.17" font-family="Times,serif" font-size="14.00">(missing)</text>
</g>
<!-- amilib&#45;&gt;pyvis -->
<g id="edge10" class="edge">
<title>amilib&#45;&gt;pyvis</title>
<path fill="none" stroke="black" stroke-dasharray="5,2" d="M1066.07,-230.06C1093.44,-212.7 1134.3,-186.77 1165.04,-167.27"/>
<polygon fill="black" stroke="black" points="1166.79,-170.31 1173.36,-162 1163.04,-164.4 1166.79,-170.31"/>
</g>
<!-- selenium -->
<g id="node12" class="node">
<title>selenium</title>
<ellipse fill="none" stroke="black" stroke-dasharray="5,2" cx="1321.28" cy="-139.47" rx="47.91" ry="28.99"/>
<text text-anchor="middle" x="1321.28" y="-142.67" font-family="Times,serif" font-size="14.00">selenium</text>
<text text-anchor="middle" x="1321.28" y="-126.17" font-family="Times,serif" font-size="14.00">(missing)</text>
</g>
<!-- amilib&#45;&gt;selenium -->
<g id="edge11" class="edge">
<title>amilib&#45;&gt;selenium</title>
<path fill="none" stroke="black" stroke-dasharray="5,2" d="M1072.72,-237.56C1118.15,-223.01 1197.92,-196.36 1264.28,-168.47 1267.69,-167.03 1271.18,-165.5 1274.67,-163.91"/>
<polygon fill="black" stroke="black" points="1276.14,-167.09 1283.72,-159.68 1273.18,-160.75 1276.14,-167.09"/>
</g>
<!-- tinycss -->
<g id="node13" class="node">
<title>tinycss</title>
<ellipse fill="none" stroke="black" stroke-dasharray="5,2" cx="1435.28" cy="-139.47" rx="47.91" ry="28.99"/>
<text text-anchor="middle" x="1435.28" y="-142.67" font-family="Times,serif" font-size="14.00">tinycss</text>
<text text-anchor="middle" x="1435.28" y="-126.17" font-family="Times,serif" font-size="14.00">(missing)</text>
</g>
<!-- amilib&#45;&gt;tinycss -->
<g id="edge12" class="edge">
<title>amilib&#45;&gt;tinycss</title>
<path fill="none" stroke="black" stroke-dasharray="5,2" d="M1075.31,-242.73C1139.69,-231.8 1271.61,-206.66 1378.28,-168.47 1381.98,-167.14 1385.74,-165.65 1389.49,-164.05"/>
<polygon fill="black" stroke="black" points="1390.87,-167.27 1398.56,-159.98 1388,-160.89 1390.87,-167.27"/>
</g>
<!-- sparqlwrapper -->
<g id="node14" class="node">
<title>sparqlwrapper</title>
<ellipse fill="none" stroke="black" stroke-dasharray="5,2" cx="1582.28" cy="-139.47" rx="81.32" ry="28.99"/>
<text text-anchor="middle" x="1582.28" y="-142.67" font-family="Times,serif" font-size="14.00">SPARQLWrapper</text>
<text text-anchor="middle" x="1582.28" y="-126.17" font-family="Times,serif" font-size="14.00">(missing)</text>
</g>
<!-- amilib&#45;&gt;sparqlwrapper -->
<g id="edge13" class="edge">
<title>amilib&#45;&gt;sparqlwrapper</title>
<path fill="none" stroke="black" stroke-dasharray="5,2" d="M1075.69,-243.82C1155.18,-233.07 1340.09,-206.03 1492.28,-168.47 1498.96,-166.82 1505.86,-164.96 1512.74,-163"/>
<polygon fill="black" stroke="black" points="1513.43,-166.44 1522.05,-160.28 1511.47,-159.73 1513.43,-166.44"/>
</g>
<!-- tkinterweb -->
<g id="node15" class="node">
<title>tkinterweb</title>
<ellipse fill="none" stroke="black" stroke-dasharray="5,2" cx="1737.28" cy="-139.47" rx="55.33" ry="28.99"/>
<text text-anchor="middle" x="1737.28" y="-142.67" font-family="Times,serif" font-size="14.00">Tkinterweb</text>
<text text-anchor="middle" x="1737.28" y="-126.17" font-family="Times,serif" font-size="14.00">(missing)</text>
</g>
<!-- amilib&#45;&gt;tkinterweb -->
<g id="edge14" class="edge">
<title>amilib&#45;&gt;tkinterweb</title>
<path fill="none" stroke="black" stroke-dasharray="5,2" d="M1076.49,-247.77C1178.09,-243.93 1452.7,-228.35 1672.28,-168.47 1677.01,-167.18 1681.85,-165.61 1686.64,-163.88"/>
<polygon fill="black" stroke="black" points="1687.51,-167.29 1695.59,-160.43 1685,-160.76 1687.51,-167.29"/>
</g>
<!-- webdriver&#45;manager -->
<g id="node16" class="node">
<title>webdriver&#45;manager</title>
<ellipse fill="none" stroke="black" stroke-dasharray="5,2" cx="1897.28" cy="-139.47" rx="86.62" ry="28.99"/>
<text text-anchor="middle" x="1897.28" y="-142.67" font-family="Times,serif" font-size="14.00">webdriver&#45;manager</text>
<text text-anchor="middle" x="1897.28" y="-126.17" font-family="Times,serif" font-size="14.00">(missing)</text>
</g>
<!-- amilib&#45;&gt;webdriver&#45;manager -->
<g id="edge15" class="edge">
<title>amilib&#45;&gt;webdriver&#45;manager</title>
<path fill="none" stroke="black" stroke-dasharray="5,2" d="M1076.6,-247.84C1191.27,-243.98 1528.6,-228.03 1801.28,-168.47 1808.63,-166.86 1816.25,-165 1823.82,-163.01"/>
<polygon fill="black" stroke="black" points="1824.66,-166.41 1833.4,-160.41 1822.83,-159.65 1824.66,-166.41"/>
</g>
<!-- scikit&#45;learn -->
<g id="node17" class="node">
<title>scikit&#45;learn</title>
<ellipse fill="none" stroke="black" stroke-dasharray="5,2" cx="2056.28" cy="-139.47" rx="54.27" ry="28.99"/>
<text text-anchor="middle" x="2056.28" y="-142.67" font-family="Times,serif" font-size="14.00">scikit&#45;learn</text>
<text text-anchor="middle" x="2056.28" y="-126.17" font-family="Times,serif" font-size="14.00">(missing)</text>
</g>
<!-- amilib&#45;&gt;scikit&#45;learn -->
<g id="edge16" class="edge">
<title>amilib&#45;&gt;scikit&#45;learn</title>
<path fill="none" stroke="black" stroke-dasharray="5,2" d="M1076.44,-246.53C1176.82,-240.36 1446.7,-223.12 1671.28,-202.97 1814.64,-190.1 1854.28,-205.8 1993.28,-168.47 1997.77,-167.26 2002.34,-165.78 2006.88,-164.13"/>
<polygon fill="black" stroke="black" points="2007.88,-167.5 2015.91,-160.58 2005.32,-160.98 2007.88,-167.5"/>
</g>
<!-- idna -->
<g id="node22" class="node">
<title>idna</title>
<ellipse fill="none" stroke="black" cx="28.28" cy="-28.99" rx="28.28" ry="28.99"/>
<text text-anchor="middle" x="28.28" y="-32.19" font-family="Times,serif" font-size="14.00">idna</text>
<text text-anchor="middle" x="28.28" y="-15.69" font-family="Times,serif" font-size="14.00">3.10</text>
</g>
<!-- requests&#45;&gt;idna -->
<g id="edge28" class="edge">
<title>requests&#45;&gt;idna</title>
<path fill="none" stroke="black" d="M131.17,-116.6C121.83,-109.01 111.31,-100.41 101.78,-92.48 87.45,-80.56 71.69,-67.19 58.45,-55.89"/>
<polygon fill="black" stroke="black" points="60.76,-53.26 50.88,-49.42 56.21,-58.58 60.76,-53.26"/>
<text text-anchor="middle" x="128.53" y="-79.18" font-family="Times,serif" font-size="14.00">&gt;=2.5,&lt;4</text>
</g>
<!-- urllib3 -->
<g id="node26" class="node">
<title>urllib3</title>
<ellipse fill="none" stroke="black" cx="2078.28" cy="-28.99" rx="36.77" ry="28.99"/>
<text text-anchor="middle" x="2078.28" y="-32.19" font-family="Times,serif" font-size="14.00">urllib3</text>
<text text-anchor="middle" x="2078.28" y="-15.69" font-family="Times,serif" font-size="14.00">2.2.3</text>
</g>
<!-- requests&#45;&gt;urllib3 -->
<g id="edge29" class="edge">
<title>requests&#45;&gt;urllib3</title>
<path fill="none" stroke="black" d="M188.95,-119.06C195.74,-115.6 203.07,-112.47 210.28,-110.48 390.3,-60.96 1755.51,-35.44 2030.21,-30.78"/>
<polygon fill="black" stroke="black" points="2029.92,-34.28 2039.86,-30.61 2029.8,-27.28 2029.92,-34.28"/>
<text text-anchor="middle" x="557.16" y="-79.18" font-family="Times,serif" font-size="14.00">&gt;=1.21.1,&lt;3</text>
</g>
<!-- charset&#45;normalizer -->
<g id="node34" class="node">
<title>charset&#45;normalizer</title>
<ellipse fill="none" stroke="black" cx="158.28" cy="-28.99" rx="83.44" ry="28.99"/>
<text text-anchor="middle" x="158.28" y="-32.19" font-family="Times,serif" font-size="14.00">charset&#45;normalizer</text>
<text text-anchor="middle" x="158.28" y="-15.69" font-family="Times,serif" font-size="14.00">3.4.1</text>
</g>
<!-- requests&#45;&gt;charset&#45;normalizer -->
<g id="edge27" class="edge">
<title>requests&#45;&gt;charset&#45;normalizer</title>
<path fill="none" stroke="black" d="M158.28,-110.25C158.28,-97.92 158.28,-83.24 158.28,-69.82"/>
<polygon fill="black" stroke="black" points="161.78,-69.96 158.28,-59.96 154.78,-69.96 161.78,-69.96"/>
<text text-anchor="middle" x="179.28" y="-79.18" font-family="Times,serif" font-size="14.00">&gt;=2,&lt;4</text>
</g>
<!-- certifi -->
<g id="node35" class="node">
<title>certifi</title>
<ellipse fill="none" stroke="black" cx="309.28" cy="-28.99" rx="50.03" ry="28.99"/>
<text text-anchor="middle" x="309.28" y="-32.19" font-family="Times,serif" font-size="14.00">certifi</text>
<text text-anchor="middle" x="309.28" y="-15.69" font-family="Times,serif" font-size="14.00">2025.4.26</text>
</g>
<!-- requests&#45;&gt;certifi -->
<g id="edge30" class="edge">
<title>requests&#45;&gt;certifi</title>
<path fill="none" stroke="black" d="M187.04,-117.81C210.29,-101.11 243.27,-77.41 269.13,-58.84"/>
<polygon fill="black" stroke="black" points="270.99,-61.82 277.07,-53.14 266.9,-56.13 270.99,-61.82"/>
<text text-anchor="middle" x="278.91" y="-79.18" font-family="Times,serif" font-size="14.00">&gt;=2017.4.17</text>
</g>
<!-- pygments -->
<g id="node18" class="node">
<title>pygments</title>
<ellipse fill="none" stroke="black" cx="3225.28" cy="-139.47" rx="49.5" ry="28.99"/>
<text text-anchor="middle" x="3225.28" y="-142.67" font-family="Times,serif" font-size="14.00">Pygments</text>
<text text-anchor="middle" x="3225.28" y="-126.17" font-family="Times,serif" font-size="14.00">2.19.1</text>
</g>
<!-- rfc3986 -->
<g id="node19" class="node">
<title>rfc3986</title>
<ellipse fill="none" stroke="black" cx="2069.28" cy="-249.96" rx="41.01" ry="28.99"/>
<text text-anchor="middle" x="2069.28" y="-253.16" font-family="Times,serif" font-size="14.00">rfc3986</text>
<text text-anchor="middle" x="2069.28" y="-236.66" font-family="Times,serif" font-size="14.00">2.0.0</text>
</g>
<!-- importlib&#45;metadata -->
<g id="node20" class="node">
<title>importlib&#45;metadata</title>
<ellipse fill="none" stroke="black" cx="2711.28" cy="-139.47" rx="87.15" ry="28.99"/>
<text text-anchor="middle" x="2711.28" y="-142.67" font-family="Times,serif" font-size="14.00">importlib_metadata</text>
<text text-anchor="middle" x="2711.28" y="-126.17" font-family="Times,serif" font-size="14.00">8.5.0</text>
</g>
<!-- zipp -->
<g id="node21" class="node">
<title>zipp</title>
<ellipse fill="none" stroke="black" cx="2776.28" cy="-28.99" rx="35.71" ry="28.99"/>
<text text-anchor="middle" x="2776.28" y="-32.19" font-family="Times,serif" font-size="14.00">zipp</text>
<text text-anchor="middle" x="2776.28" y="-15.69" font-family="Times,serif" font-size="14.00">3.20.2</text>
</g>
<!-- importlib&#45;metadata&#45;&gt;zipp -->
<g id="edge17" class="edge">
<title>importlib&#45;metadata&#45;&gt;zipp</title>
<path fill="none" stroke="black" d="M2728.02,-110.54C2736.28,-96.77 2746.32,-80.01 2755.1,-65.35"/>
<polygon fill="black" stroke="black" points="2758.02,-67.28 2760.16,-56.9 2752.02,-63.68 2758.02,-67.28"/>
<text text-anchor="middle" x="2767.53" y="-79.18" font-family="Times,serif" font-size="14.00">&gt;=3.20</text>
</g>
<!-- jaraco&#45;classes -->
<g id="node23" class="node">
<title>jaraco&#45;classes</title>
<ellipse fill="none" stroke="black" cx="2542.28" cy="-139.47" rx="63.82" ry="28.99"/>
<text text-anchor="middle" x="2542.28" y="-142.67" font-family="Times,serif" font-size="14.00">jaraco.classes</text>
<text text-anchor="middle" x="2542.28" y="-126.17" font-family="Times,serif" font-size="14.00">3.4.0</text>
</g>
<!-- more&#45;itertools -->
<g id="node24" class="node">
<title>more&#45;itertools</title>
<ellipse fill="none" stroke="black" cx="2451.28" cy="-28.99" rx="65.94" ry="28.99"/>
<text text-anchor="middle" x="2451.28" y="-32.19" font-family="Times,serif" font-size="14.00">more&#45;itertools</text>
<text text-anchor="middle" x="2451.28" y="-15.69" font-family="Times,serif" font-size="14.00">10.5.0</text>
</g>
<!-- jaraco&#45;classes&#45;&gt;more&#45;itertools -->
<g id="edge18" class="edge">
<title>jaraco&#45;classes&#45;&gt;more&#45;itertools</title>
<path fill="none" stroke="black" d="M2520.02,-111.94C2508.24,-97.88 2493.6,-80.44 2480.87,-65.26"/>
<polygon fill="black" stroke="black" points="2483.71,-63.2 2474.6,-57.79 2478.35,-67.7 2483.71,-63.2"/>
<text text-anchor="middle" x="2511.03" y="-79.18" font-family="Times,serif" font-size="14.00">any</text>
</g>
<!-- importlib&#45;resources -->
<g id="node25" class="node">
<title>importlib&#45;resources</title>
<ellipse fill="none" stroke="black" cx="2904.28" cy="-139.47" rx="88.21" ry="28.99"/>
<text text-anchor="middle" x="2904.28" y="-142.67" font-family="Times,serif" font-size="14.00">importlib_resources</text>
<text text-anchor="middle" x="2904.28" y="-126.17" font-family="Times,serif" font-size="14.00">6.4.5</text>
</g>
<!-- importlib&#45;resources&#45;&gt;zipp -->
<g id="edge19" class="edge">
<title>importlib&#45;resources&#45;&gt;zipp</title>
<path fill="none" stroke="black" d="M2872.97,-111.94C2853.59,-95.51 2828.74,-74.45 2809.08,-57.79"/>
<polygon fill="black" stroke="black" points="2811.5,-55.25 2801.61,-51.46 2806.98,-60.59 2811.5,-55.25"/>
<text text-anchor="middle" x="2869.41" y="-79.18" font-family="Times,serif" font-size="14.00">&gt;=3.1.0</text>
</g>
<!-- keyring -->
<g id="node27" class="node">
<title>keyring</title>
<ellipse fill="none" stroke="black" cx="2461.28" cy="-249.96" rx="40.48" ry="28.99"/>
<text text-anchor="middle" x="2461.28" y="-253.16" font-family="Times,serif" font-size="14.00">keyring</text>
<text text-anchor="middle" x="2461.28" y="-236.66" font-family="Times,serif" font-size="14.00">25.5.0</text>
</g>
<!-- keyring&#45;&gt;importlib&#45;metadata -->
<g id="edge23" class="edge">
<title>keyring&#45;&gt;importlib&#45;metadata</title>
<path fill="none" stroke="black" d="M2487.96,-228.07C2506.11,-214.67 2531.13,-197.74 2555.28,-186.47 2557.35,-185.5 2597.15,-173.77 2636.03,-162.4"/>
<polygon fill="black" stroke="black" points="2636.87,-165.8 2645.48,-159.64 2634.9,-159.08 2636.87,-165.8"/>
<text text-anchor="middle" x="2580.78" y="-189.67" font-family="Times,serif" font-size="14.00">&gt;=4.11.4</text>
</g>
<!-- keyring&#45;&gt;jaraco&#45;classes -->
<g id="edge20" class="edge">
<title>keyring&#45;&gt;jaraco&#45;classes</title>
<path fill="none" stroke="black" d="M2478.42,-223.41C2486.26,-211.97 2495.79,-198.39 2504.78,-186.47 2507.43,-182.96 2510.24,-179.34 2513.07,-175.75"/>
<polygon fill="black" stroke="black" points="2515.65,-178.13 2519.18,-168.13 2510.19,-173.75 2515.65,-178.13"/>
<text text-anchor="middle" x="2514.03" y="-189.67" font-family="Times,serif" font-size="14.00">any</text>
</g>
<!-- keyring&#45;&gt;importlib&#45;resources -->
<g id="edge24" class="edge">
<title>keyring&#45;&gt;importlib&#45;resources</title>
<path fill="none" stroke="black" d="M2500.1,-240.62C2564.28,-226.69 2696.42,-197.34 2807.28,-168.47 2814.27,-166.65 2821.51,-164.69 2828.76,-162.68"/>
<polygon fill="black" stroke="black" points="2829.57,-166.09 2838.26,-160.03 2827.68,-159.35 2829.57,-166.09"/>
<text text-anchor="middle" x="2741.03" y="-189.67" font-family="Times,serif" font-size="14.00">any</text>
</g>
<!-- jaraco&#45;functools -->
<g id="node28" class="node">
<title>jaraco&#45;functools</title>
<ellipse fill="none" stroke="black" cx="2387.28" cy="-139.47" rx="72.83" ry="28.99"/>
<text text-anchor="middle" x="2387.28" y="-142.67" font-family="Times,serif" font-size="14.00">jaraco.functools</text>
<text text-anchor="middle" x="2387.28" y="-126.17" font-family="Times,serif" font-size="14.00">4.1.0</text>
</g>
<!-- keyring&#45;&gt;jaraco&#45;functools -->
<g id="edge21" class="edge">
<title>keyring&#45;&gt;jaraco&#45;functools</title>
<path fill="none" stroke="black" d="M2443.93,-223.52C2434.45,-209.62 2422.55,-192.17 2412.1,-176.85"/>
<polygon fill="black" stroke="black" points="2415.2,-175.18 2406.67,-168.9 2409.42,-179.13 2415.2,-175.18"/>
<text text-anchor="middle" x="2438.03" y="-189.67" font-family="Times,serif" font-size="14.00">any</text>
</g>
<!-- jaraco&#45;context -->
<g id="node29" class="node">
<title>jaraco&#45;context</title>
<ellipse fill="none" stroke="black" cx="2231.28" cy="-139.47" rx="65.41" ry="28.99"/>
<text text-anchor="middle" x="2231.28" y="-142.67" font-family="Times,serif" font-size="14.00">jaraco.context</text>
<text text-anchor="middle" x="2231.28" y="-126.17" font-family="Times,serif" font-size="14.00">6.0.1</text>
</g>
<!-- keyring&#45;&gt;jaraco&#45;context -->
<g id="edge22" class="edge">
<title>keyring&#45;&gt;jaraco&#45;context</title>
<path fill="none" stroke="black" d="M2427.84,-233.18C2390.58,-215.61 2329.8,-186.94 2285.68,-166.13"/>
<polygon fill="black" stroke="black" points="2287.32,-163.03 2276.78,-161.93 2284.33,-169.36 2287.32,-163.03"/>
<text text-anchor="middle" x="2369.03" y="-189.67" font-family="Times,serif" font-size="14.00">any</text>
</g>
<!-- jaraco&#45;functools&#45;&gt;more&#45;itertools -->
<g id="edge37" class="edge">
<title>jaraco&#45;functools&#45;&gt;more&#45;itertools</title>
<path fill="none" stroke="black" d="M2403.6,-110.82C2411.48,-97.46 2421.05,-81.23 2429.55,-66.84"/>
<polygon fill="black" stroke="black" points="2432.38,-68.92 2434.45,-58.52 2426.36,-65.36 2432.38,-68.92"/>
<text text-anchor="middle" x="2432.03" y="-79.18" font-family="Times,serif" font-size="14.00">any</text>
</g>
<!-- backports&#45;tarfile -->
<g id="node42" class="node">
<title>backports&#45;tarfile</title>
<ellipse fill="none" stroke="black" cx="2231.28" cy="-28.99" rx="73.89" ry="28.99"/>
<text text-anchor="middle" x="2231.28" y="-32.19" font-family="Times,serif" font-size="14.00">backports.tarfile</text>
<text text-anchor="middle" x="2231.28" y="-15.69" font-family="Times,serif" font-size="14.00">1.2.0</text>
</g>
<!-- jaraco&#45;context&#45;&gt;backports&#45;tarfile -->
<g id="edge35" class="edge">
<title>jaraco&#45;context&#45;&gt;backports&#45;tarfile</title>
<path fill="none" stroke="black" d="M2231.28,-110.25C2231.28,-97.92 2231.28,-83.24 2231.28,-69.82"/>
<polygon fill="black" stroke="black" points="2234.78,-69.96 2231.28,-59.96 2227.78,-69.96 2234.78,-69.96"/>
<text text-anchor="middle" x="2241.03" y="-79.18" font-family="Times,serif" font-size="14.00">any</text>
</g>
<!-- ninja -->
<g id="node30" class="node">
<title>ninja</title>
<ellipse fill="none" stroke="black" cx="3785.28" cy="-360.44" rx="43.13" ry="28.99"/>
<text text-anchor="middle" x="3785.28" y="-363.64" font-family="Times,serif" font-size="14.00">ninja</text>
<text text-anchor="middle" x="3785.28" y="-347.14" font-family="Times,serif" font-size="14.00">1.11.1.4</text>
</g>
<!-- beautifulsoup4 -->
<g id="node31" class="node">
<title>beautifulsoup4</title>
<ellipse fill="none" stroke="black" cx="3693.28" cy="-249.96" rx="68.06" ry="28.99"/>
<text text-anchor="middle" x="3693.28" y="-253.16" font-family="Times,serif" font-size="14.00">beautifulsoup4</text>
<text text-anchor="middle" x="3693.28" y="-236.66" font-family="Times,serif" font-size="14.00">4.13.4</text>
</g>
<!-- soupsieve -->
<g id="node32" class="node">
<title>soupsieve</title>
<ellipse fill="none" stroke="black" cx="3727.28" cy="-139.47" rx="48.97" ry="28.99"/>
<text text-anchor="middle" x="3727.28" y="-142.67" font-family="Times,serif" font-size="14.00">soupsieve</text>
<text text-anchor="middle" x="3727.28" y="-126.17" font-family="Times,serif" font-size="14.00">2.6</text>
</g>
<!-- beautifulsoup4&#45;&gt;soupsieve -->
<g id="edge25" class="edge">
<title>beautifulsoup4&#45;&gt;soupsieve</title>
<path fill="none" stroke="black" d="M3702.13,-220.74C3706.13,-207.96 3710.93,-192.65 3715.26,-178.85"/>
<polygon fill="black" stroke="black" points="3718.5,-180.21 3718.15,-169.62 3711.82,-178.12 3718.5,-180.21"/>
<text text-anchor="middle" x="3725.03" y="-189.67" font-family="Times,serif" font-size="14.00">&gt;1.2</text>
</g>
<!-- typing&#45;extensions -->
<g id="node33" class="node">
<title>typing&#45;extensions</title>
<ellipse fill="none" stroke="black" cx="3474.28" cy="-139.47" rx="80.79" ry="28.99"/>
<text text-anchor="middle" x="3474.28" y="-142.67" font-family="Times,serif" font-size="14.00">typing_extensions</text>
<text text-anchor="middle" x="3474.28" y="-126.17" font-family="Times,serif" font-size="14.00">4.13.2</text>
</g>
<!-- beautifulsoup4&#45;&gt;typing&#45;extensions -->
<g id="edge26" class="edge">
<title>beautifulsoup4&#45;&gt;typing&#45;extensions</title>
<path fill="none" stroke="black" d="M3675.3,-221.73C3665.72,-209.23 3652.89,-195.27 3638.28,-186.47 3608.92,-168.77 3596.32,-177.61 3563.28,-168.47 3556.98,-166.72 3550.46,-164.83 3543.93,-162.88"/>
<polygon fill="black" stroke="black" points="3545.03,-159.56 3534.45,-160.01 3543,-166.26 3545.03,-159.56"/>
<text text-anchor="middle" x="3679.41" y="-189.67" font-family="Times,serif" font-size="14.00">&gt;=4.0.0</text>
</g>
<!-- markdown&#45;it&#45;py -->
<g id="node36" class="node">
<title>markdown&#45;it&#45;py</title>
<ellipse fill="none" stroke="black" cx="3084.28" cy="-139.47" rx="73.89" ry="28.99"/>
<text text-anchor="middle" x="3084.28" y="-142.67" font-family="Times,serif" font-size="14.00">markdown&#45;it&#45;py</text>
<text text-anchor="middle" x="3084.28" y="-126.17" font-family="Times,serif" font-size="14.00">3.0.0</text>
</g>
<!-- mdurl -->
<g id="node37" class="node">
<title>mdurl</title>
<ellipse fill="none" stroke="black" cx="3084.28" cy="-28.99" rx="34.65" ry="28.99"/>
<text text-anchor="middle" x="3084.28" y="-32.19" font-family="Times,serif" font-size="14.00">mdurl</text>
<text text-anchor="middle" x="3084.28" y="-15.69" font-family="Times,serif" font-size="14.00">0.1.2</text>
</g>
<!-- markdown&#45;it&#45;py&#45;&gt;mdurl -->
<g id="edge31" class="edge">
<title>markdown&#45;it&#45;py&#45;&gt;mdurl</title>
<path fill="none" stroke="black" d="M3084.28,-110.25C3084.28,-97.92 3084.28,-83.24 3084.28,-69.82"/>
<polygon fill="black" stroke="black" points="3087.78,-69.96 3084.28,-59.96 3080.78,-69.96 3087.78,-69.96"/>
<text text-anchor="middle" x="3100.78" y="-79.18" font-family="Times,serif" font-size="14.00">~=0.1</text>
</g>
<!-- graphviz -->
<g id="node38" class="node">
<title>graphviz</title>
<ellipse fill="none" stroke="black" cx="3891.28" cy="-360.44" rx="44.72" ry="28.99"/>
<text text-anchor="middle" x="3891.28" y="-363.64" font-family="Times,serif" font-size="14.00">graphviz</text>
<text text-anchor="middle" x="3891.28" y="-347.14" font-family="Times,serif" font-size="14.00">0.20.3</text>
</g>
<!-- readme&#45;renderer -->
<g id="node39" class="node">
<title>readme&#45;renderer</title>
<ellipse fill="none" stroke="black" cx="3265.28" cy="-249.96" rx="76.54" ry="28.99"/>
<text text-anchor="middle" x="3265.28" y="-253.16" font-family="Times,serif" font-size="14.00">readme_renderer</text>
<text text-anchor="middle" x="3265.28" y="-236.66" font-family="Times,serif" font-size="14.00">43.0</text>
</g>
<!-- readme&#45;renderer&#45;&gt;pygments -->
<g id="edge34" class="edge">
<title>readme&#45;renderer&#45;&gt;pygments</title>
<path fill="none" stroke="black" d="M3255.63,-220.89C3251.86,-210.09 3247.45,-197.68 3243.28,-186.47 3242.35,-183.96 3241.38,-181.38 3240.39,-178.78"/>
<polygon fill="black" stroke="black" points="3243.7,-177.62 3236.83,-169.55 3237.17,-180.14 3243.7,-177.62"/>
<text text-anchor="middle" x="3270.41" y="-189.67" font-family="Times,serif" font-size="14.00">&gt;=2.5.1</text>
</g>
<!-- nh3 -->
<g id="node40" class="node">
<title>nh3</title>
<ellipse fill="none" stroke="black" cx="3608.28" cy="-139.47" rx="35.71" ry="28.99"/>
<text text-anchor="middle" x="3608.28" y="-142.67" font-family="Times,serif" font-size="14.00">nh3</text>
<text text-anchor="middle" x="3608.28" y="-126.17" font-family="Times,serif" font-size="14.00">0.2.21</text>
</g>
<!-- readme&#45;renderer&#45;&gt;nh3 -->
<g id="edge32" class="edge">
<title>readme&#45;renderer&#45;&gt;nh3</title>
<path fill="none" stroke="black" d="M3319.67,-229.08C3329.74,-225.96 3340.25,-223.08 3350.28,-220.97 3431.12,-203.94 3459.28,-235.33 3535.28,-202.97 3551.87,-195.9 3567.46,-183.67 3579.94,-171.89"/>
<polygon fill="black" stroke="black" points="3582.33,-174.45 3586.98,-164.93 3577.41,-169.47 3582.33,-174.45"/>
<text text-anchor="middle" x="3586.78" y="-189.67" font-family="Times,serif" font-size="14.00">&gt;=0.2.14</text>
</g>
<!-- docutils -->
<g id="node41" class="node">
<title>docutils</title>
<ellipse fill="none" stroke="black" cx="3334.28" cy="-139.47" rx="41.54" ry="28.99"/>
<text text-anchor="middle" x="3334.28" y="-142.67" font-family="Times,serif" font-size="14.00">docutils</text>
<text text-anchor="middle" x="3334.28" y="-126.17" font-family="Times,serif" font-size="14.00">0.20.1</text>
</g>
<!-- readme&#45;renderer&#45;&gt;docutils -->
<g id="edge33" class="edge">
<title>readme&#45;renderer&#45;&gt;docutils</title>
<path fill="none" stroke="black" d="M3284.18,-221.37C3288.23,-215.34 3292.44,-208.97 3296.28,-202.97 3301.76,-194.42 3307.52,-185.12 3312.85,-176.37"/>
<polygon fill="black" stroke="black" points="3315.68,-178.45 3317.87,-168.09 3309.69,-174.82 3315.68,-178.45"/>
<text text-anchor="middle" x="3330.78" y="-189.67" font-family="Times,serif" font-size="14.00">&gt;=0.13.1</text>
</g>
<!-- pip -->
<g id="node43" class="node">
<title>pip</title>
<ellipse fill="none" stroke="black" cx="3514.28" cy="-249.96" rx="35.71" ry="28.99"/>
<text text-anchor="middle" x="3514.28" y="-253.16" font-family="Times,serif" font-size="14.00">pip</text>
<text text-anchor="middle" x="3514.28" y="-236.66" font-family="Times,serif" font-size="14.00">25.0.1</text>
</g>
<!-- id -->
<g id="node44" class="node">
<title>id</title>
<ellipse fill="none" stroke="black" cx="108.28" cy="-249.96" rx="30.94" ry="28.99"/>
<text text-anchor="middle" x="108.28" y="-253.16" font-family="Times,serif" font-size="14.00">id</text>
<text text-anchor="middle" x="108.28" y="-236.66" font-family="Times,serif" font-size="14.00">1.5.0</text>
</g>
<!-- id&#45;&gt;requests -->
<g id="edge36" class="edge">
<title>id&#45;&gt;requests</title>
<path fill="none" stroke="black" d="M120.26,-222.97C126.49,-209.45 134.22,-192.69 141.08,-177.81"/>
<polygon fill="black" stroke="black" points="144.24,-179.3 145.25,-168.75 137.89,-176.37 144.24,-179.3"/>
<text text-anchor="middle" x="146.03" y="-189.67" font-family="Times,serif" font-size="14.00">any</text>
</g>
<!-- packaging -->
<g id="node45" class="node">
<title>packaging</title>
<ellipse fill="none" stroke="black" cx="3410.28" cy="-249.96" rx="50.56" ry="28.99"/>
<text text-anchor="middle" x="3410.28" y="-253.16" font-family="Times,serif" font-size="14.00">packaging</text>
<text text-anchor="middle" x="3410.28" y="-236.66" font-family="Times,serif" font-size="14.00">25.0</text>
</g>
<!-- requests&#45;toolbelt -->
<g id="node46" class="node">
<title>requests&#45;toolbelt</title>
<ellipse fill="none" stroke="black" cx="232.28" cy="-249.96" rx="74.95" ry="28.99"/>
<text text-anchor="middle" x="232.28" y="-253.16" font-family="Times,serif" font-size="14.00">requests&#45;toolbelt</text>
<text text-anchor="middle" x="232.28" y="-236.66" font-family="Times,serif" font-size="14.00">1.0.0</text>
</g>
<!-- requests&#45;toolbelt&#45;&gt;requests -->
<g id="edge38" class="edge">
<title>requests&#45;toolbelt&#45;&gt;requests</title>
<path fill="none" stroke="black" d="M213.61,-221.58C204.13,-207.68 192.5,-190.63 182.35,-175.75"/>
<polygon fill="black" stroke="black" points="185.31,-173.89 176.79,-167.6 179.53,-177.83 185.31,-173.89"/>
<text text-anchor="middle" x="242.28" y="-189.67" font-family="Times,serif" font-size="14.00">&gt;=2.0.1,&lt;3.0.0</text>
</g>
<!-- bs4 -->
<g id="node47" class="node">
<title>bs4</title>
<ellipse fill="none" stroke="black" cx="3693.28" cy="-360.44" rx="30.94" ry="28.99"/>
<text text-anchor="middle" x="3693.28" y="-363.64" font-family="Times,serif" font-size="14.00">bs4</text>
<text text-anchor="middle" x="3693.28" y="-347.14" font-family="Times,serif" font-size="14.00">0.0.2</text>
</g>
<!-- bs4&#45;&gt;beautifulsoup4 -->
<g id="edge39" class="edge">
<title>bs4&#45;&gt;beautifulsoup4</title>
<path fill="none" stroke="black" d="M3693.28,-331.22C3693.28,-318.89 3693.28,-304.2 3693.28,-290.78"/>
<polygon fill="black" stroke="black" points="3696.78,-290.93 3693.28,-280.93 3689.78,-290.93 3696.78,-290.93"/>
<text text-anchor="middle" x="3703.03" y="-300.15" font-family="Times,serif" font-size="14.00">any</text>
</g>
<!-- rich -->
<g id="node48" class="node">
<title>rich</title>
<ellipse fill="none" stroke="black" cx="3109.28" cy="-249.96" rx="35.71" ry="28.99"/>
<text text-anchor="middle" x="3109.28" y="-253.16" font-family="Times,serif" font-size="14.00">rich</text>
<text text-anchor="middle" x="3109.28" y="-236.66" font-family="Times,serif" font-size="14.00">14.0.0</text>
</g>
<!-- rich&#45;&gt;pygments -->
<g id="edge41" class="edge">
<title>rich&#45;&gt;pygments</title>
<path fill="none" stroke="black" d="M3122.13,-222.66C3128.86,-210.67 3137.92,-196.86 3148.53,-186.47 3157.03,-178.15 3167.3,-170.69 3177.54,-164.33"/>
<polygon fill="black" stroke="black" points="3179.15,-167.44 3185.97,-159.34 3175.58,-161.42 3179.15,-167.44"/>
<text text-anchor="middle" x="3193.66" y="-189.67" font-family="Times,serif" font-size="14.00">&gt;=2.13.0,&lt;3.0.0</text>
</g>
<!-- rich&#45;&gt;typing&#45;extensions -->
<g id="edge42" class="edge">
<title>rich&#45;&gt;typing&#45;extensions</title>
<path fill="none" stroke="black" d="M3140.03,-234.49C3152.03,-229.42 3166.06,-224.2 3179.28,-220.97 3257.81,-201.77 3283.06,-226.88 3360.28,-202.97 3383.71,-195.71 3407.78,-183.36 3427.74,-171.54"/>
<polygon fill="black" stroke="black" points="3429.45,-174.6 3436.18,-166.41 3425.82,-168.61 3429.45,-174.6"/>
<text text-anchor="middle" x="3436.03" y="-189.67" font-family="Times,serif" font-size="14.00">&gt;=4.0.0,&lt;5.0</text>
</g>
<!-- rich&#45;&gt;markdown&#45;it&#45;py -->
<g id="edge40" class="edge">
<title>rich&#45;&gt;markdown&#45;it&#45;py</title>
<path fill="none" stroke="black" d="M3093.18,-223.56C3089.85,-217.08 3086.81,-209.96 3085.03,-202.97 3083.19,-195.7 3082.29,-187.81 3081.95,-180.16"/>
<polygon fill="black" stroke="black" points="3085.45,-180.31 3081.84,-170.35 3078.45,-180.39 3085.45,-180.31"/>
<text text-anchor="middle" x="3106.41" y="-189.67" font-family="Times,serif" font-size="14.00">&gt;=2.2.0</text>
</g>
<!-- twine -->
<g id="node49" class="node">
<title>twine</title>
<ellipse fill="none" stroke="black" cx="2275.28" cy="-360.44" rx="32.53" ry="28.99"/>
<text text-anchor="middle" x="2275.28" y="-363.64" font-family="Times,serif" font-size="14.00">twine</text>
<text text-anchor="middle" x="2275.28" y="-347.14" font-family="Times,serif" font-size="14.00">6.1.0</text>
</g>
<!-- twine&#45;&gt;requests -->
<g id="edge44" class="edge">
<title>twine&#45;&gt;requests</title>
<path fill="none" stroke="black" d="M2242.43,-359.21C2055.91,-357.38 1111.85,-341.41 357.28,-202.97 326.27,-197.28 318.98,-193.68 288.28,-186.47 253.65,-178.33 243.58,-181.01 210.28,-168.47 207.03,-167.24 203.73,-165.85 200.44,-164.36"/>
<polygon fill="black" stroke="black" points="201.99,-161.22 191.47,-159.99 198.93,-167.51 201.99,-161.22"/>
<text text-anchor="middle" x="900.53" y="-244.91" font-family="Times,serif" font-size="14.00">&gt;=2.20</text>
</g>
<!-- twine&#45;&gt;rfc3986 -->
<g id="edge49" class="edge">
<title>twine&#45;&gt;rfc3986</title>
<path fill="none" stroke="black" d="M2242.85,-356.11C2193.25,-350.33 2101.99,-336.78 2080.03,-313.45 2074.11,-307.15 2070.81,-298.83 2069.08,-290.32"/>
<polygon fill="black" stroke="black" points="2072.58,-290.15 2067.82,-280.69 2065.64,-291.06 2072.58,-290.15"/>
<text text-anchor="middle" x="2101.41" y="-300.15" font-family="Times,serif" font-size="14.00">&gt;=1.4.0</text>
</g>
<!-- twine&#45;&gt;importlib&#45;metadata -->
<g id="edge47" class="edge">
<title>twine&#45;&gt;importlib&#45;metadata</title>
<path fill="none" stroke="black" d="M2307.3,-353.63C2378.7,-339.29 2553.45,-296.4 2665.28,-202.97 2673.88,-195.79 2681.74,-186.68 2688.44,-177.66"/>
<polygon fill="black" stroke="black" points="2691.22,-179.79 2694.11,-169.6 2685.49,-175.76 2691.22,-179.79"/>
<text text-anchor="middle" x="2657.16" y="-244.91" font-family="Times,serif" font-size="14.00">&gt;=3.6</text>
</g>
<!-- twine&#45;&gt;urllib3 -->
<g id="edge46" class="edge">
<title>twine&#45;&gt;urllib3</title>
<path fill="none" stroke="black" d="M2259.54,-334.58C2236.65,-298.3 2193.01,-228.61 2157.28,-168.47 2136.7,-133.81 2113.97,-93.78 2098.2,-65.7"/>
<polygon fill="black" stroke="black" points="2101.41,-64.25 2093.46,-57.24 2095.3,-67.68 2101.41,-64.25"/>
<text text-anchor="middle" x="2202.78" y="-189.67" font-family="Times,serif" font-size="14.00">&gt;=1.26.0</text>
</g>
<!-- twine&#45;&gt;keyring -->
<g id="edge48" class="edge">
<title>twine&#45;&gt;keyring</title>
<path fill="none" stroke="black" d="M2302.33,-343.67C2333.37,-325.56 2384.59,-295.69 2420.48,-274.75"/>
<polygon fill="black" stroke="black" points="2421.99,-277.93 2428.86,-269.87 2418.46,-271.88 2421.99,-277.93"/>
<text text-anchor="middle" x="2399.53" y="-300.15" font-family="Times,serif" font-size="14.00">&gt;=15.1</text>
</g>
<!-- twine&#45;&gt;readme&#45;renderer -->
<g id="edge43" class="edge">
<title>twine&#45;&gt;readme&#45;renderer</title>
<path fill="none" stroke="black" d="M2307.9,-358.59C2423.99,-355.12 2827.64,-339.17 3154.28,-278.95 3166.91,-276.62 3180.22,-273.69 3193.08,-270.6"/>
<polygon fill="black" stroke="black" points="3193.89,-274.01 3202.77,-268.22 3192.22,-267.21 3193.89,-274.01"/>
<text text-anchor="middle" x="3055.53" y="-300.15" font-family="Times,serif" font-size="14.00">&gt;=35.0</text>
</g>
<!-- twine&#45;&gt;id -->
<g id="edge52" class="edge">
<title>twine&#45;&gt;id</title>
<path fill="none" stroke="black" d="M2242.51,-359.17C1986.26,-357 310.97,-341.76 208.78,-313.45 183.55,-306.46 158.53,-290.93 139.76,-277.11"/>
<polygon fill="black" stroke="black" points="142.1,-274.49 132.02,-271.22 137.86,-280.06 142.1,-274.49"/>
<text text-anchor="middle" x="219.03" y="-300.15" font-family="Times,serif" font-size="14.00">any</text>
</g>
<!-- twine&#45;&gt;packaging -->
<g id="edge51" class="edge">
<title>twine&#45;&gt;packaging</title>
<path fill="none" stroke="black" d="M2307.93,-358.39C2417.34,-354.7 2780.93,-341.02 3080.28,-313.45 3201.19,-302.31 3234.76,-313.06 3351.28,-278.95 3355.27,-277.78 3359.33,-276.37 3363.35,-274.82"/>
<polygon fill="black" stroke="black" points="3364.58,-278.1 3372.45,-271.01 3361.88,-271.64 3364.58,-278.1"/>
<text text-anchor="middle" x="3293.53" y="-300.15" font-family="Times,serif" font-size="14.00">&gt;=24.0</text>
</g>
<!-- twine&#45;&gt;requests&#45;toolbelt -->
<g id="edge45" class="edge">
<title>twine&#45;&gt;requests&#45;toolbelt</title>
<path fill="none" stroke="black" d="M2242.35,-359.29C1983.08,-358 279.73,-348.24 240.78,-313.45 234.26,-307.62 230.98,-299.33 229.55,-290.69"/>
<polygon fill="black" stroke="black" points="233.05,-290.51 228.76,-280.82 226.07,-291.07 233.05,-290.51"/>
<text text-anchor="middle" x="285.53" y="-300.15" font-family="Times,serif" font-size="14.00">&gt;=0.8.0,!=0.9.0</text>
</g>
<!-- twine&#45;&gt;rich -->
<g id="edge50" class="edge">
<title>twine&#45;&gt;rich</title>
<path fill="none" stroke="black" d="M2307.86,-356.3C2378.28,-349.41 2549.94,-332.09 2693.28,-313.45 2827.96,-295.93 2986.48,-270.89 3063.14,-258.5"/>
<polygon fill="black" stroke="black" points="3063.48,-261.99 3072.79,-256.93 3062.36,-255.08 3063.48,-261.99"/>
<text text-anchor="middle" x="2832.78" y="-300.15" font-family="Times,serif" font-size="14.00">&gt;=12.0.0</text>
</g>
<!-- pipdeptree -->
<g id="node50" class="node">
<title>pipdeptree</title>
<ellipse fill="none" stroke="black" cx="3472.28" cy="-360.44" rx="51.62" ry="28.99"/>
<text text-anchor="middle" x="3472.28" y="-363.64" font-family="Times,serif" font-size="14.00">pipdeptree</text>
<text text-anchor="middle" x="3472.28" y="-347.14" font-family="Times,serif" font-size="14.00">2.24.0</text>
</g>
<!-- pipdeptree&#45;&gt;pip -->
<g id="edge54" class="edge">
<title>pipdeptree&#45;&gt;pip</title>
<path fill="none" stroke="black" d="M3482.99,-331.78C3488.1,-318.58 3494.3,-302.58 3499.82,-288.31"/>
<polygon fill="black" stroke="black" points="3502.99,-289.81 3503.34,-279.22 3496.47,-287.29 3502.99,-289.81"/>
<text text-anchor="middle" x="3515.53" y="-300.15" font-family="Times,serif" font-size="14.00">&gt;=24.2</text>
</g>
<!-- pipdeptree&#45;&gt;packaging -->
<g id="edge53" class="edge">
<title>pipdeptree&#45;&gt;packaging</title>
<path fill="none" stroke="black" d="M3456.84,-332.7C3453.21,-326.39 3449.35,-319.69 3445.78,-313.45 3441.07,-305.21 3436.02,-296.35 3431.26,-287.96"/>
<polygon fill="black" stroke="black" points="3434.35,-286.33 3426.37,-279.36 3428.27,-289.79 3434.35,-286.33"/>
<text text-anchor="middle" x="3465.53" y="-300.15" font-family="Times,serif" font-size="14.00">&gt;=24.1</text>
</g>
</g>
</svg>

