<?xml version="1.0" encoding="UTF-8" standalone="no"?>
<!DOCTYPE svg PUBLIC "-//W3C//DTD SVG 1.1//EN"
 "http://www.w3.org/Graphics/SVG/1.1/DTD/svg11.dtd">
<!-- Generated by graphviz version 13.1.0 (20250701.0955)
 -->
<!-- Title: EncyclopediaArchitecture Pages: 1 -->
<svg width="2846pt" height="627pt"
 viewBox="0.00 0.00 2846.00 627.00" xmlns="http://www.w3.org/2000/svg" xmlns:xlink="http://www.w3.org/1999/xlink">
<g id="graph0" class="graph" transform="scale(1 1) rotate(0) translate(4 622.82)">
<title>EncyclopediaArchitecture</title>
<polygon fill="white" stroke="none" points="-4,4 -4,-622.82 2841.68,-622.82 2841.68,4 -4,4"/>
<g id="clust1" class="cluster">
<title>cluster_internal</title>
<polygon fill="none" stroke="black" stroke-dasharray="5,2" points="8,-184.16 8,-502.32 856,-502.32 856,-184.16 8,-184.16"/>
<text xml:space="preserve" text-anchor="middle" x="432" y="-485.02" font-family="Times,serif" font-size="14.00">Internal Processing Methods</text>
</g>
<!-- AmiEncyclopedia -->
<g id="node1" class="node">
<title>AmiEncyclopedia</title>
<path fill="lightblue" stroke="black" d="M836.38,-445.32C836.38,-445.32 663.62,-445.32 663.62,-445.32 657.62,-445.32 651.62,-439.32 651.62,-433.32 651.62,-433.32 651.62,-350.32 651.62,-350.32 651.62,-344.32 657.62,-338.32 663.62,-338.32 663.62,-338.32 836.38,-338.32 836.38,-338.32 842.38,-338.32 848.38,-344.32 848.38,-350.32 848.38,-350.32 848.38,-433.32 848.38,-433.32 848.38,-439.32 842.38,-445.32 836.38,-445.32"/>
<text xml:space="preserve" text-anchor="middle" x="750" y="-428.02" font-family="Times,serif" font-size="14.00">AmiEncyclopedia</text>
<text xml:space="preserve" text-anchor="middle" x="750" y="-411.52" font-family="Times,serif" font-size="14.00">Main Class</text>
<text xml:space="preserve" text-anchor="middle" x="750" y="-395.02" font-family="Times,serif" font-size="14.00">&#45; create_from_html_file()</text>
<text xml:space="preserve" text-anchor="middle" x="750" y="-378.52" font-family="Times,serif" font-size="14.00">&#45; normalize_by_wikipedia_url()</text>
<text xml:space="preserve" text-anchor="middle" x="750" y="-362.02" font-family="Times,serif" font-size="14.00">&#45; aggregate_synonyms()</text>
<text xml:space="preserve" text-anchor="middle" x="750" y="-345.52" font-family="Times,serif" font-size="14.00">&#45; create_wiki_normalized_html()</text>
</g>
<!-- EncyclopediaLinkExtractor -->
<g id="node2" class="node">
<title>EncyclopediaLinkExtractor</title>
<path fill="lightgreen" stroke="black" d="M2092.38,-247.16C2092.38,-247.16 1937.62,-247.16 1937.62,-247.16 1931.62,-247.16 1925.62,-241.16 1925.62,-235.16 1925.62,-235.16 1925.62,-185.16 1925.62,-185.16 1925.62,-179.16 1931.62,-173.16 1937.62,-173.16 1937.62,-173.16 2092.38,-173.16 2092.38,-173.16 2098.38,-173.16 2104.38,-179.16 2104.38,-185.16 2104.38,-185.16 2104.38,-235.16 2104.38,-235.16 2104.38,-241.16 2098.38,-247.16 2092.38,-247.16"/>
<text xml:space="preserve" text-anchor="middle" x="2015" y="-229.86" font-family="Times,serif" font-size="14.00">EncyclopediaLinkExtractor</text>
<text xml:space="preserve" text-anchor="middle" x="2015" y="-213.36" font-family="Times,serif" font-size="14.00">&#45; extract_entries_from_html()</text>
<text xml:space="preserve" text-anchor="middle" x="2015" y="-196.86" font-family="Times,serif" font-size="14.00">&#45; normalize_wikipedia_url()</text>
<text xml:space="preserve" text-anchor="middle" x="2015" y="-180.36" font-family="Times,serif" font-size="14.00">&#45; _classify_link_type()</text>
</g>
<!-- AmiEncyclopedia&#45;&gt;EncyclopediaLinkExtractor -->
<g id="edge8" class="edge">
<title>AmiEncyclopedia&#45;&gt;EncyclopediaLinkExtractor</title>
<path fill="none" stroke="black" d="M848.7,-389.14C1145.13,-383.62 2009.79,-363.83 2051,-320.32 2067.11,-303.31 2060.87,-278.94 2049.4,-257.55"/>
<polygon fill="black" stroke="black" points="2052.44,-255.82 2044.38,-248.95 2046.4,-259.35 2052.44,-255.82"/>
<text xml:space="preserve" text-anchor="middle" x="2099.49" y="-307.02" font-family="Times,serif" font-size="14.00">uses (optional)</text>
</g>
<!-- LinkValidator -->
<g id="node3" class="node">
<title>LinkValidator</title>
<path fill="lightgreen" stroke="black" d="M1020,-238.91C1020,-238.91 878,-238.91 878,-238.91 872,-238.91 866,-232.91 866,-226.91 866,-226.91 866,-193.41 866,-193.41 866,-187.41 872,-181.41 878,-181.41 878,-181.41 1020,-181.41 1020,-181.41 1026,-181.41 1032,-187.41 1032,-193.41 1032,-193.41 1032,-226.91 1032,-226.91 1032,-232.91 1026,-238.91 1020,-238.91"/>
<text xml:space="preserve" text-anchor="middle" x="949" y="-221.61" font-family="Times,serif" font-size="14.00">LinkValidator</text>
<text xml:space="preserve" text-anchor="middle" x="949" y="-205.11" font-family="Times,serif" font-size="14.00">&#45; validate_link()</text>
<text xml:space="preserve" text-anchor="middle" x="949" y="-188.61" font-family="Times,serif" font-size="14.00">&#45; check_link_accessibility()</text>
</g>
<!-- AmiEncyclopedia&#45;&gt;LinkValidator -->
<g id="edge9" class="edge">
<title>AmiEncyclopedia&#45;&gt;LinkValidator</title>
<path fill="none" stroke="black" d="M808.63,-337.89C841.19,-308.5 880.81,-272.72 909.64,-246.69"/>
<polygon fill="black" stroke="black" points="911.65,-249.6 916.73,-240.3 906.96,-244.4 911.65,-249.6"/>
<text xml:space="preserve" text-anchor="middle" x="883.66" y="-307.02" font-family="Times,serif" font-size="14.00">uses (optional)</text>
</g>
<!-- SynonymNormalizer -->
<g id="node4" class="node">
<title>SynonymNormalizer</title>
<path fill="lightgreen" stroke="black" d="M1178.25,-238.91C1178.25,-238.91 1061.75,-238.91 1061.75,-238.91 1055.75,-238.91 1049.75,-232.91 1049.75,-226.91 1049.75,-226.91 1049.75,-193.41 1049.75,-193.41 1049.75,-187.41 1055.75,-181.41 1061.75,-181.41 1061.75,-181.41 1178.25,-181.41 1178.25,-181.41 1184.25,-181.41 1190.25,-187.41 1190.25,-193.41 1190.25,-193.41 1190.25,-226.91 1190.25,-226.91 1190.25,-232.91 1184.25,-238.91 1178.25,-238.91"/>
<text xml:space="preserve" text-anchor="middle" x="1120" y="-221.61" font-family="Times,serif" font-size="14.00">SynonymNormalizer</text>
<text xml:space="preserve" text-anchor="middle" x="1120" y="-205.11" font-family="Times,serif" font-size="14.00">&#45; normalize_terms()</text>
<text xml:space="preserve" text-anchor="middle" x="1120" y="-188.61" font-family="Times,serif" font-size="14.00">&#45; get_canonical_term()</text>
</g>
<!-- AmiEncyclopedia&#45;&gt;SynonymNormalizer -->
<g id="edge10" class="edge">
<title>AmiEncyclopedia&#45;&gt;SynonymNormalizer</title>
<path fill="none" stroke="black" d="M848.54,-366.25C907.14,-349.03 981.42,-322.49 1041,-285.82 1057.9,-275.42 1074.25,-260.96 1087.65,-247.54"/>
<polygon fill="black" stroke="black" points="1090.08,-250.06 1094.53,-240.44 1085.05,-245.18 1090.08,-250.06"/>
<text xml:space="preserve" text-anchor="middle" x="1044.52" y="-307.02" font-family="Times,serif" font-size="14.00">uses (optional)</text>
</g>
<!-- AmiDictionary -->
<g id="node6" class="node">
<title>AmiDictionary</title>
<path fill="lightcoral" stroke="black" d="M2267.12,-247.16C2267.12,-247.16 2134.88,-247.16 2134.88,-247.16 2128.88,-247.16 2122.88,-241.16 2122.88,-235.16 2122.88,-235.16 2122.88,-185.16 2122.88,-185.16 2122.88,-179.16 2128.88,-173.16 2134.88,-173.16 2134.88,-173.16 2267.12,-173.16 2267.12,-173.16 2273.12,-173.16 2279.12,-179.16 2279.12,-185.16 2279.12,-185.16 2279.12,-235.16 2279.12,-235.16 2279.12,-241.16 2273.12,-247.16 2267.12,-247.16"/>
<text xml:space="preserve" text-anchor="middle" x="2201" y="-229.86" font-family="Times,serif" font-size="14.00">AmiDictionary</text>
<text xml:space="preserve" text-anchor="middle" x="2201" y="-213.36" font-family="Times,serif" font-size="14.00">Composition</text>
<text xml:space="preserve" text-anchor="middle" x="2201" y="-196.86" font-family="Times,serif" font-size="14.00">&#45; create_from_html_file()</text>
<text xml:space="preserve" text-anchor="middle" x="2201" y="-180.36" font-family="Times,serif" font-size="14.00">&#45; entry_by_term</text>
</g>
<!-- AmiEncyclopedia&#45;&gt;AmiDictionary -->
<g id="edge2" class="edge">
<title>AmiEncyclopedia&#45;&gt;AmiDictionary</title>
<path fill="none" stroke="black" d="M848.74,-391.43C1148.75,-392.5 2035.75,-389.71 2144,-320.32 2165.91,-306.28 2179.87,-280.91 2188.49,-258.16"/>
<polygon fill="black" stroke="black" points="2191.68,-259.63 2191.69,-249.03 2185.08,-257.31 2191.68,-259.63"/>
<text xml:space="preserve" text-anchor="middle" x="2213.1" y="-307.02" font-family="Times,serif" font-size="14.00">uses (composition)</text>
</g>
<!-- HtmlLib -->
<g id="node8" class="node">
<title>HtmlLib</title>
<path fill="wheat" stroke="black" d="M2182.88,-78C2182.88,-78 1971.12,-78 1971.12,-78 1965.12,-78 1959.12,-72 1959.12,-66 1959.12,-66 1959.12,-16 1959.12,-16 1959.12,-10 1965.12,-4 1971.12,-4 1971.12,-4 2182.88,-4 2182.88,-4 2188.88,-4 2194.88,-10 2194.88,-16 2194.88,-16 2194.88,-66 2194.88,-66 2194.88,-72 2188.88,-78 2182.88,-78"/>
<text xml:space="preserve" text-anchor="middle" x="2077" y="-60.7" font-family="Times,serif" font-size="14.00">HtmlLib</text>
<text xml:space="preserve" text-anchor="middle" x="2077" y="-44.2" font-family="Times,serif" font-size="14.00">HTML Processing</text>
<text xml:space="preserve" text-anchor="middle" x="2077" y="-27.7" font-family="Times,serif" font-size="14.00">&#45; parse_html_string()</text>
<text xml:space="preserve" text-anchor="middle" x="2077" y="-11.2" font-family="Times,serif" font-size="14.00">&#45; create_html_with_empty_head_body()</text>
</g>
<!-- AmiEncyclopedia&#45;&gt;HtmlLib -->
<g id="edge11" class="edge">
<title>AmiEncyclopedia&#45;&gt;HtmlLib</title>
<path fill="none" stroke="black" d="M848.63,-388.88C1175.9,-382.12 2208.7,-357.86 2269,-320.32 2310.66,-294.38 2316.82,-136.49 2284,-100 2259.63,-72.9 2239.19,-91.48 2204,-82 2203.34,-81.82 2202.67,-81.64 2202.01,-81.46"/>
<polygon fill="black" stroke="black" points="2203.13,-78.14 2192.56,-78.84 2201.26,-84.89 2203.13,-78.14"/>
<text xml:space="preserve" text-anchor="middle" x="2335.74" y="-205.11" font-family="Times,serif" font-size="14.00">depends on</text>
</g>
<!-- XmlLib -->
<g id="node10" class="node">
<title>XmlLib</title>
<path fill="wheat" stroke="black" d="M1327.75,-238.91C1327.75,-238.91 1220.25,-238.91 1220.25,-238.91 1214.25,-238.91 1208.25,-232.91 1208.25,-226.91 1208.25,-226.91 1208.25,-193.41 1208.25,-193.41 1208.25,-187.41 1214.25,-181.41 1220.25,-181.41 1220.25,-181.41 1327.75,-181.41 1327.75,-181.41 1333.75,-181.41 1339.75,-187.41 1339.75,-193.41 1339.75,-193.41 1339.75,-226.91 1339.75,-226.91 1339.75,-232.91 1333.75,-238.91 1327.75,-238.91"/>
<text xml:space="preserve" text-anchor="middle" x="1274" y="-221.61" font-family="Times,serif" font-size="14.00">XmlLib</text>
<text xml:space="preserve" text-anchor="middle" x="1274" y="-205.11" font-family="Times,serif" font-size="14.00">XML Processing</text>
<text xml:space="preserve" text-anchor="middle" x="1274" y="-188.61" font-family="Times,serif" font-size="14.00">&#45; element_to_string()</text>
</g>
<!-- AmiEncyclopedia&#45;&gt;XmlLib -->
<g id="edge12" class="edge">
<title>AmiEncyclopedia&#45;&gt;XmlLib</title>
<path fill="none" stroke="black" d="M848.52,-385.29C944.16,-376.06 1090.4,-351.44 1199,-285.82 1215.67,-275.75 1231.39,-261.22 1244.1,-247.65"/>
<polygon fill="black" stroke="black" points="1246.46,-250.25 1250.58,-240.49 1241.27,-245.55 1246.46,-250.25"/>
<text xml:space="preserve" text-anchor="middle" x="1185.96" y="-307.02" font-family="Times,serif" font-size="14.00">depends on</text>
</g>
<!-- Entries -->
<g id="node11" class="node">
<title>Entries</title>
<ellipse fill="lavender" stroke="black" cx="1440" cy="-210.16" rx="82.38" ry="75.66"/>
<text xml:space="preserve" text-anchor="middle" x="1440" y="-246.36" font-family="Times,serif" font-size="14.00">entries</text>
<text xml:space="preserve" text-anchor="middle" x="1440" y="-229.86" font-family="Times,serif" font-size="14.00">List[Dict]</text>
<text xml:space="preserve" text-anchor="middle" x="1440" y="-213.36" font-family="Times,serif" font-size="14.00">&#45; term</text>
<text xml:space="preserve" text-anchor="middle" x="1440" y="-196.86" font-family="Times,serif" font-size="14.00">&#45; search_term</text>
<text xml:space="preserve" text-anchor="middle" x="1440" y="-180.36" font-family="Times,serif" font-size="14.00">&#45; wikipedia_url</text>
<text xml:space="preserve" text-anchor="middle" x="1440" y="-163.86" font-family="Times,serif" font-size="14.00">&#45; description_html</text>
</g>
<!-- AmiEncyclopedia&#45;&gt;Entries -->
<g id="edge4" class="edge">
<title>AmiEncyclopedia&#45;&gt;Entries</title>
<path fill="none" stroke="black" d="M848.59,-380.72C995.39,-364.49 1263.33,-329.9 1349,-285.82 1357.07,-281.67 1365.09,-276.71 1372.82,-271.34"/>
<polygon fill="black" stroke="black" points="1374.82,-274.22 1380.86,-265.52 1370.71,-268.55 1374.82,-274.22"/>
<text xml:space="preserve" text-anchor="middle" x="1312.69" y="-307.02" font-family="Times,serif" font-size="14.00">extracts</text>
</g>
<!-- NormalizeURL -->
<g id="node16" class="node">
<title>NormalizeURL</title>
<path fill="none" stroke="black" d="M536.12,-228.16C536.12,-228.16 391.88,-228.16 391.88,-228.16 385.88,-228.16 379.88,-222.16 379.88,-216.16 379.88,-216.16 379.88,-204.16 379.88,-204.16 379.88,-198.16 385.88,-192.16 391.88,-192.16 391.88,-192.16 536.12,-192.16 536.12,-192.16 542.12,-192.16 548.12,-198.16 548.12,-204.16 548.12,-204.16 548.12,-216.16 548.12,-216.16 548.12,-222.16 542.12,-228.16 536.12,-228.16"/>
<text xml:space="preserve" text-anchor="middle" x="464" y="-205.11" font-family="Times,serif" font-size="14.00">_normalize_wikipedia_url()</text>
</g>
<!-- AmiEncyclopedia&#45;&gt;NormalizeURL -->
<g id="edge17" class="edge">
<title>AmiEncyclopedia&#45;&gt;NormalizeURL</title>
<path fill="none" stroke="black" d="M651.32,-341.5C620.44,-324.92 586.69,-305.59 557,-285.82 534.04,-270.54 509.8,-250.95 491.82,-235.67"/>
<polygon fill="black" stroke="black" points="494.55,-233.39 484.68,-229.54 489.99,-238.71 494.55,-233.39"/>
</g>
<!-- NormalizeTerms -->
<g id="node17" class="node">
<title>NormalizeTerms</title>
<path fill="none" stroke="black" d="M678,-228.16C678,-228.16 578,-228.16 578,-228.16 572,-228.16 566,-222.16 566,-216.16 566,-216.16 566,-204.16 566,-204.16 566,-198.16 572,-192.16 578,-192.16 578,-192.16 678,-192.16 678,-192.16 684,-192.16 690,-198.16 690,-204.16 690,-204.16 690,-216.16 690,-216.16 690,-222.16 684,-228.16 678,-228.16"/>
<text xml:space="preserve" text-anchor="middle" x="628" y="-205.11" font-family="Times,serif" font-size="14.00">_normalize_terms()</text>
</g>
<!-- AmiEncyclopedia&#45;&gt;NormalizeTerms -->
<g id="edge18" class="edge">
<title>AmiEncyclopedia&#45;&gt;NormalizeTerms</title>
<path fill="none" stroke="black" d="M714.06,-337.89C691.74,-305.03 664.02,-264.2 646.17,-237.92"/>
<polygon fill="black" stroke="black" points="649.21,-236.16 640.69,-229.85 643.42,-240.09 649.21,-236.16"/>
</g>
<!-- GetCanonical -->
<g id="node18" class="node">
<title>GetCanonical</title>
<path fill="none" stroke="black" d="M835.5,-228.16C835.5,-228.16 720.5,-228.16 720.5,-228.16 714.5,-228.16 708.5,-222.16 708.5,-216.16 708.5,-216.16 708.5,-204.16 708.5,-204.16 708.5,-198.16 714.5,-192.16 720.5,-192.16 720.5,-192.16 835.5,-192.16 835.5,-192.16 841.5,-192.16 847.5,-198.16 847.5,-204.16 847.5,-204.16 847.5,-216.16 847.5,-216.16 847.5,-222.16 841.5,-228.16 835.5,-228.16"/>
<text xml:space="preserve" text-anchor="middle" x="778" y="-205.11" font-family="Times,serif" font-size="14.00">_get_canonical_term()</text>
</g>
<!-- AmiEncyclopedia&#45;&gt;GetCanonical -->
<g id="edge19" class="edge">
<title>AmiEncyclopedia&#45;&gt;GetCanonical</title>
<path fill="none" stroke="black" d="M758.25,-337.89C763.26,-305.75 769.45,-266 773.56,-239.67"/>
<polygon fill="black" stroke="black" points="776.97,-240.52 775.05,-230.1 770.05,-239.44 776.97,-240.52"/>
</g>
<!-- ExtractPageTitle -->
<g id="node19" class="node">
<title>ExtractPageTitle</title>
<path fill="none" stroke="black" d="M188,-228.16C188,-228.16 28,-228.16 28,-228.16 22,-228.16 16,-222.16 16,-216.16 16,-216.16 16,-204.16 16,-204.16 16,-198.16 22,-192.16 28,-192.16 28,-192.16 188,-192.16 188,-192.16 194,-192.16 200,-198.16 200,-204.16 200,-204.16 200,-216.16 200,-216.16 200,-222.16 194,-228.16 188,-228.16"/>
<text xml:space="preserve" text-anchor="middle" x="108" y="-205.11" font-family="Times,serif" font-size="14.00">_extract_page_title_from_url()</text>
</g>
<!-- AmiEncyclopedia&#45;&gt;ExtractPageTitle -->
<g id="edge20" class="edge">
<title>AmiEncyclopedia&#45;&gt;ExtractPageTitle</title>
<path fill="none" stroke="black" d="M651.34,-384.8C539.82,-375.06 354.83,-349.92 209,-285.82 181.25,-273.63 153.87,-252.67 134.62,-236.05"/>
<polygon fill="black" stroke="black" points="137.07,-233.54 127.26,-229.54 132.43,-238.79 137.07,-233.54"/>
</g>
<!-- GetBestDescription -->
<g id="node20" class="node">
<title>GetBestDescription</title>
<path fill="none" stroke="black" d="M349.75,-228.16C349.75,-228.16 230.25,-228.16 230.25,-228.16 224.25,-228.16 218.25,-222.16 218.25,-216.16 218.25,-216.16 218.25,-204.16 218.25,-204.16 218.25,-198.16 224.25,-192.16 230.25,-192.16 230.25,-192.16 349.75,-192.16 349.75,-192.16 355.75,-192.16 361.75,-198.16 361.75,-204.16 361.75,-204.16 361.75,-216.16 361.75,-216.16 361.75,-222.16 355.75,-228.16 349.75,-228.16"/>
<text xml:space="preserve" text-anchor="middle" x="290" y="-205.11" font-family="Times,serif" font-size="14.00">_get_best_description()</text>
</g>
<!-- AmiEncyclopedia&#45;&gt;GetBestDescription -->
<g id="edge21" class="edge">
<title>AmiEncyclopedia&#45;&gt;GetBestDescription</title>
<path fill="none" stroke="black" d="M651.3,-376.67C571.81,-362.26 459.17,-334.85 371,-285.82 348.44,-273.27 327.14,-253.2 312.06,-237.02"/>
<polygon fill="black" stroke="black" points="314.67,-234.69 305.36,-229.63 309.48,-239.39 314.67,-234.69"/>
</g>
<!-- EncyclopediaLinkExtractor&#45;&gt;HtmlLib -->
<g id="edge13" class="edge">
<title>EncyclopediaLinkExtractor&#45;&gt;HtmlLib</title>
<path fill="none" stroke="black" d="M2028.45,-172.89C2037.56,-148.33 2049.68,-115.65 2059.54,-89.08"/>
<polygon fill="black" stroke="black" points="2062.74,-90.5 2062.94,-79.91 2056.18,-88.07 2062.74,-90.5"/>
<text xml:space="preserve" text-anchor="middle" x="2085.93" y="-103.2" font-family="Times,serif" font-size="14.00">depends on</text>
</g>
<!-- WikipediaPage -->
<g id="node9" class="node">
<title>WikipediaPage</title>
<path fill="wheat" stroke="black" d="M1928.62,-61.5C1928.62,-61.5 1817.38,-61.5 1817.38,-61.5 1811.38,-61.5 1805.38,-55.5 1805.38,-49.5 1805.38,-49.5 1805.38,-32.5 1805.38,-32.5 1805.38,-26.5 1811.38,-20.5 1817.38,-20.5 1817.38,-20.5 1928.62,-20.5 1928.62,-20.5 1934.62,-20.5 1940.62,-26.5 1940.62,-32.5 1940.62,-32.5 1940.62,-49.5 1940.62,-49.5 1940.62,-55.5 1934.62,-61.5 1928.62,-61.5"/>
<text xml:space="preserve" text-anchor="middle" x="1873" y="-44.2" font-family="Times,serif" font-size="14.00">WikipediaPage</text>
<text xml:space="preserve" text-anchor="middle" x="1873" y="-27.7" font-family="Times,serif" font-size="14.00">Wikipedia Integration</text>
</g>
<!-- EncyclopediaLinkExtractor&#45;&gt;WikipediaPage -->
<g id="edge14" class="edge">
<title>EncyclopediaLinkExtractor&#45;&gt;WikipediaPage</title>
<path fill="none" stroke="black" d="M1984.19,-172.89C1958.13,-142.22 1921.31,-98.87 1897.3,-70.6"/>
<polygon fill="black" stroke="black" points="1900.1,-68.5 1890.96,-63.14 1894.77,-73.03 1900.1,-68.5"/>
<text xml:space="preserve" text-anchor="middle" x="1966.25" y="-103.2" font-family="Times,serif" font-size="14.00">depends on</text>
</g>
<!-- EncyclopediaArgs -->
<g id="node5" class="node">
<title>EncyclopediaArgs</title>
<path fill="lightyellow" stroke="black" d="M809.75,-618.82C809.75,-618.82 690.25,-618.82 690.25,-618.82 684.25,-618.82 678.25,-612.82 678.25,-606.82 678.25,-606.82 678.25,-556.82 678.25,-556.82 678.25,-550.82 684.25,-544.82 690.25,-544.82 690.25,-544.82 809.75,-544.82 809.75,-544.82 815.75,-544.82 821.75,-550.82 821.75,-556.82 821.75,-556.82 821.75,-606.82 821.75,-606.82 821.75,-612.82 815.75,-618.82 809.75,-618.82"/>
<text xml:space="preserve" text-anchor="middle" x="750" y="-601.52" font-family="Times,serif" font-size="14.00">EncyclopediaArgs</text>
<text xml:space="preserve" text-anchor="middle" x="750" y="-585.02" font-family="Times,serif" font-size="14.00">CLI Arguments</text>
<text xml:space="preserve" text-anchor="middle" x="750" y="-568.52" font-family="Times,serif" font-size="14.00">&#45; process_args()</text>
<text xml:space="preserve" text-anchor="middle" x="750" y="-552.02" font-family="Times,serif" font-size="14.00">&#45; create_encyclopedia()</text>
</g>
<!-- EncyclopediaArgs&#45;&gt;AmiEncyclopedia -->
<g id="edge16" class="edge">
<title>EncyclopediaArgs&#45;&gt;AmiEncyclopedia</title>
<path fill="none" stroke="black" d="M750,-544.57C750,-519.8 750,-486.29 750,-457.06"/>
<polygon fill="black" stroke="black" points="753.5,-457.19 750,-447.19 746.5,-457.19 753.5,-457.19"/>
<text xml:space="preserve" text-anchor="middle" x="768.75" y="-513.52" font-family="Times,serif" font-size="14.00">creates</text>
</g>
<!-- AmiEntry -->
<g id="node7" class="node">
<title>AmiEntry</title>
<path fill="lightcoral" stroke="black" d="M2283,-69.75C2283,-69.75 2225,-69.75 2225,-69.75 2219,-69.75 2213,-63.75 2213,-57.75 2213,-57.75 2213,-24.25 2213,-24.25 2213,-18.25 2219,-12.25 2225,-12.25 2225,-12.25 2283,-12.25 2283,-12.25 2289,-12.25 2295,-18.25 2295,-24.25 2295,-24.25 2295,-57.75 2295,-57.75 2295,-63.75 2289,-69.75 2283,-69.75"/>
<text xml:space="preserve" text-anchor="middle" x="2254" y="-52.45" font-family="Times,serif" font-size="14.00">AmiEntry</text>
<text xml:space="preserve" text-anchor="middle" x="2254" y="-35.95" font-family="Times,serif" font-size="14.00">&#45; element</text>
<text xml:space="preserve" text-anchor="middle" x="2254" y="-19.45" font-family="Times,serif" font-size="14.00">&#45; get_term()</text>
</g>
<!-- AmiDictionary&#45;&gt;AmiEntry -->
<g id="edge3" class="edge">
<title>AmiDictionary&#45;&gt;AmiEntry</title>
<path fill="none" stroke="black" d="M2212.5,-172.89C2221.09,-145.8 2232.81,-108.82 2241.61,-81.08"/>
<polygon fill="black" stroke="black" points="2244.92,-82.22 2244.61,-71.63 2238.25,-80.1 2244.92,-82.22"/>
<text xml:space="preserve" text-anchor="middle" x="2257.84" y="-103.2" font-family="Times,serif" font-size="14.00">contains</text>
</g>
<!-- AmiDictionary&#45;&gt;HtmlLib -->
<g id="edge15" class="edge">
<title>AmiDictionary&#45;&gt;HtmlLib</title>
<path fill="none" stroke="black" d="M2174.48,-172.66C2158.98,-151.4 2138.98,-124.11 2121,-100 2117.99,-95.96 2114.84,-91.77 2111.68,-87.57"/>
<polygon fill="black" stroke="black" points="2114.52,-85.52 2105.7,-79.65 2108.93,-89.74 2114.52,-85.52"/>
<text xml:space="preserve" text-anchor="middle" x="2162.73" y="-103.2" font-family="Times,serif" font-size="14.00">depends on</text>
</g>
<!-- NormalizedEntries -->
<g id="node12" class="node">
<title>NormalizedEntries</title>
<ellipse fill="lavender" stroke="black" cx="1807" cy="-210.16" rx="100.94" ry="28.99"/>
<text xml:space="preserve" text-anchor="middle" x="1807" y="-213.36" font-family="Times,serif" font-size="14.00">normalized_entries</text>
<text xml:space="preserve" text-anchor="middle" x="1807" y="-196.86" font-family="Times,serif" font-size="14.00">Dict[URL, List[Entry]]</text>
</g>
<!-- Entries&#45;&gt;NormalizedEntries -->
<g id="edge5" class="edge">
<title>Entries&#45;&gt;NormalizedEntries</title>
<path fill="none" stroke="black" d="M1522.82,-210.16C1573.55,-210.16 1639.15,-210.16 1694.54,-210.16"/>
<polygon fill="black" stroke="black" points="1694.32,-213.66 1704.32,-210.16 1694.32,-206.66 1694.32,-213.66"/>
<text xml:space="preserve" text-anchor="middle" x="1614.22" y="-216.36" font-family="Times,serif" font-size="14.00">normalize_by_wikipedia_url()</text>
</g>
<!-- SynonymGroups -->
<g id="node13" class="node">
<title>SynonymGroups</title>
<ellipse fill="lavender" stroke="black" cx="2477" cy="-210.16" rx="82.91" ry="63.99"/>
<text xml:space="preserve" text-anchor="middle" x="2477" y="-238.11" font-family="Times,serif" font-size="14.00">synonym_groups</text>
<text xml:space="preserve" text-anchor="middle" x="2477" y="-221.61" font-family="Times,serif" font-size="14.00">Dict[URL, Group]</text>
<text xml:space="preserve" text-anchor="middle" x="2477" y="-205.11" font-family="Times,serif" font-size="14.00">&#45; canonical_term</text>
<text xml:space="preserve" text-anchor="middle" x="2477" y="-188.61" font-family="Times,serif" font-size="14.00">&#45; synonyms</text>
<text xml:space="preserve" text-anchor="middle" x="2477" y="-172.11" font-family="Times,serif" font-size="14.00">&#45; page_title</text>
</g>
<!-- NormalizedEntries&#45;&gt;SynonymGroups -->
<g id="edge6" class="edge">
<title>NormalizedEntries&#45;&gt;SynonymGroups</title>
<path fill="none" stroke="black" d="M1832.21,-238.26C1854.39,-260.72 1888.89,-290.5 1926.12,-303.34 1966.1,-317.11 2317.83,-309.61 2381,-285.82 2393.18,-281.23 2405.03,-274.5 2416.02,-266.92"/>
<polygon fill="black" stroke="black" points="2417.77,-269.97 2423.8,-261.26 2413.66,-264.31 2417.77,-269.97"/>
<text xml:space="preserve" text-anchor="middle" x="1988" y="-307.02" font-family="Times,serif" font-size="14.00">aggregate_synonyms()</text>
</g>
<!-- HTMLOutput -->
<g id="node15" class="node">
<title>HTMLOutput</title>
<polygon fill="lightcyan" stroke="black" points="2640.55,-82 2380.38,-82 2313.45,0 2573.62,0 2640.55,-82"/>
<text xml:space="preserve" text-anchor="middle" x="2477" y="-44.2" font-family="Times,serif" font-size="14.00">HTML Output</text>
<text xml:space="preserve" text-anchor="middle" x="2477" y="-27.7" font-family="Times,serif" font-size="14.00">Normalized Encyclopedia</text>
</g>
<!-- SynonymGroups&#45;&gt;HTMLOutput -->
<g id="edge7" class="edge">
<title>SynonymGroups&#45;&gt;HTMLOutput</title>
<path fill="none" stroke="black" d="M2477,-145.96C2477,-128.54 2477,-109.85 2477,-93.19"/>
<polygon fill="black" stroke="black" points="2480.5,-93.54 2477,-83.54 2473.5,-93.54 2480.5,-93.54"/>
<text xml:space="preserve" text-anchor="middle" x="2563.25" y="-103.2" font-family="Times,serif" font-size="14.00">create_wiki_normalized_html()</text>
</g>
<!-- HTMLInput -->
<g id="node14" class="node">
<title>HTMLInput</title>
<polygon fill="lightcyan" stroke="black" points="2837.68,-82 2695.02,-82 2658.32,0 2800.98,0 2837.68,-82"/>
<text xml:space="preserve" text-anchor="middle" x="2748" y="-44.2" font-family="Times,serif" font-size="14.00">HTML Input</text>
<text xml:space="preserve" text-anchor="middle" x="2748" y="-27.7" font-family="Times,serif" font-size="14.00">File/Content</text>
</g>
<!-- HTMLInput&#45;&gt;AmiEncyclopedia -->
<g id="edge1" class="edge">
<title>HTMLInput&#45;&gt;AmiEncyclopedia</title>
<path fill="none" stroke="black" d="M2730.95,-82.47C2704.99,-138.58 2649.86,-238.41 2569,-285.82 2421.85,-372.1 1231.26,-387.53 860.09,-390.25"/>
<polygon fill="black" stroke="black" points="860.3,-386.75 850.33,-390.32 860.35,-393.75 860.3,-386.75"/>
<text xml:space="preserve" text-anchor="middle" x="2769.98" y="-205.11" font-family="Times,serif" font-size="14.00">create_from_html_file()</text>
</g>
</g>
</svg>
